<svg width="228" height="76" viewBox="0 0 228 76" fill="none" xmlns="http://www.w3.org/2000/svg">
<path d="M29.5639 76C24.6486 76 20.3276 75.2968 16.5951 73.8876C13.6144 72.6949 10.5594 70.7189 7.43016 67.9656C3.85512 64.6991 1.58469 60.6433 0.618871 55.8014C0.244428 54.2438 0.0601784 52.6802 0.0601784 51.1137C-0.0200595 50.5915 -0.0200595 50.0753 0.0601784 49.559V48.7758L15.3707 49.0012V48.8826C15.3707 51.6359 15.9651 53.9085 17.1538 55.6946C19.3886 59.0412 23.5253 60.7146 29.5639 60.7146C39.2548 60.7146 44.1018 58.4449 44.1018 53.9026C44.1018 49.5205 39.1092 46.7701 29.1241 45.6546C23.3767 44.9841 18.4554 43.7914 14.3603 42.0824C10.5624 40.5159 7.47177 38.4332 5.08841 35.8282C1.73625 32.1107 0.0601784 27.7939 0.0601784 22.8807C0.0601784 19.8367 0.618871 16.9706 1.73626 14.2886C2.55052 12.28 3.6679 10.4553 5.08841 8.81761C10.3009 2.94019 18.5713 0 29.8967 0C36.6783 0 42.4197 1.34104 47.1211 4.02311C50.6931 6.03467 53.5995 8.71081 55.8343 12.0575C57.4747 14.5912 58.6307 17.4899 59.3053 20.7564C59.5252 21.872 59.6738 22.9934 59.7452 24.1149C59.8224 24.4888 59.864 24.8596 59.864 25.2305V25.8951H44.5416V26.0019C44.6189 23.7708 44.0602 21.8779 42.8655 20.3173C40.4792 16.9706 36.1553 15.2973 29.8967 15.2973C26.0988 15.2973 22.9695 15.7809 20.5059 16.7452C17.4539 17.9319 15.9294 19.6408 15.9294 21.872C15.9294 26.4944 20.8863 29.3604 30.8001 30.476C41.974 31.7339 50.0215 35.1933 54.9428 40.8482C58.2236 44.7171 59.864 49.0695 59.864 53.9026V54.9113C59.864 55.3563 59.8224 55.8014 59.7452 56.2523C59.6738 57.4391 59.5252 58.5547 59.3053 59.599C58.5594 62.5748 57.1419 65.2183 55.0498 67.5265C52.5921 70.2798 49.2756 72.4012 45.1003 73.8876C40.9309 75.2968 35.7511 76 29.5639 76Z" fill="#F5F5F5"/>
<path d="M163.815 3.34729L124.695 75.8938L112.059 52.4553L99.4345 75.8938L60.3022 3.34729H80.4271L99.4345 39.6265L102.228 34.2623L85.5623 3.34729H105.687L124.695 39.6265L143.702 3.34729H163.815Z" fill="#F5F5F5"/>
<path d="M219.033 35.2711C220.522 35.9446 222.011 37.2826 223.503 39.2823C226.48 43.2313 227.972 48.4767 227.972 55.0187C227.972 62.9878 224.507 68.8652 217.583 72.654C214.079 74.5142 210.575 75.5942 207.075 75.8938H167.61V3.34729H201.262C204.02 3.34729 206.962 3.9466 210.094 5.1393C216.275 7.52171 220.225 11.6516 221.945 17.5291C223.205 21.7717 223.09 26.0114 221.601 30.2511C220.855 32.3339 219.999 34.0072 219.033 35.2711ZM185.048 16.8526V33.04H200.584C202.825 33.04 204.763 32.2567 206.397 30.6902C207.966 29.1326 208.751 27.2367 208.751 25.0056C208.751 22.6974 207.966 20.763 206.397 19.2024C204.763 17.6359 202.825 16.8526 200.584 16.8526H185.048ZM214.338 54.461C214.338 52.2299 213.556 50.2954 211.996 48.6577C210.427 47.1001 208.525 46.3198 206.29 46.3198H185.048V62.5072H206.29C208.525 62.5072 210.427 61.7239 211.996 60.1574C213.556 58.5998 214.338 56.701 214.338 54.461Z" fill="#F5F5F5"/>
</svg>
