<svg width="252" height="252" viewBox="0 0 252 252" fill="none" xmlns="http://www.w3.org/2000/svg">
<path d="M39.1407 119.04C-8.83002 146.735 -8.82498 191.616 39.1407 219.336C87.1064 247.056 164.884 247.031 212.854 219.336C260.825 191.641 260.82 146.76 212.854 119.04C164.889 91.3198 87.1114 91.345 39.1407 119.04Z" fill="#FAFAFA"/>
<path d="M241.366 159.839L233.493 150.898L150.504 102.907C148.438 101.496 145.343 104.358 144.139 107.246C143.951 107.677 143.81 108.126 143.716 108.587C143.484 109.786 143.685 110.87 144.577 111.48L228.241 159.864L239.723 162.132L242.847 162.752C242.94 162.772 243.038 162.763 243.125 162.725C243.213 162.686 243.286 162.621 243.333 162.538C243.381 162.456 243.401 162.36 243.391 162.265C243.381 162.17 243.34 162.081 243.276 162.011L241.366 159.839Z" fill="#E0E0E0"/>
<path d="M101.702 98.2447L9.92374 159.808C8.5579 160.726 8.56294 162.112 9.92374 162.908L134.009 234.476C134.787 234.863 135.651 235.046 136.519 235.007C137.388 234.968 138.232 234.709 138.973 234.254L230.751 172.691C232.117 171.773 232.112 170.382 230.751 169.586L106.667 98.023C105.888 97.6364 105.024 97.4539 104.156 97.4927C103.287 97.5315 102.443 97.7903 101.702 98.2447Z" fill="#E0E0E0"/>
<path d="M154.174 112.694L155.247 113.309L156.537 114.055L229.723 156.391C229.32 155.489 229.632 153.69 230.555 151.966C231.623 149.95 233.261 148.362 234.446 148.302L161.608 106.168L159.133 104.746C160.685 105.754 155.736 113.682 154.174 112.694Z" fill="#455A64"/>
<path d="M161.497 106.097L159.098 104.726C158.417 104.308 157.127 105.533 155.993 107.15C154.481 109.297 153.261 112.14 154.163 112.694L155.933 113.702L156.568 114.05C155.665 113.496 156.885 110.648 158.397 108.506C159.481 106.959 160.726 105.764 161.421 106.052C161.45 106.059 161.476 106.075 161.497 106.097Z" fill="#EBEBEB"/>
<path d="M160.897 105.759C159.314 104.782 154.385 112.75 155.963 113.728L158.357 115.104C156.779 114.126 161.708 106.158 163.291 107.135L160.897 105.759Z" fill="#B7E0D8"/>
<path d="M165.569 108.451L163.205 107.09C161.663 106.117 156.825 113.763 158.135 114.978C158.16 115.003 158.189 115.025 158.221 115.043L160.61 116.394C159.062 115.416 164.002 107.458 165.569 108.451Z" fill="#EBEBEB"/>
<path d="M159.133 104.731H159.098C158.422 104.298 157.132 105.533 155.998 107.155C154.486 109.262 153.287 112.049 154.128 112.669L144.144 106.929C143.343 106.379 143.136 105.417 143.368 104.323C143.922 101.41 147.329 97.7155 149.486 99.1872L159.133 104.731Z" fill="#F28F8F"/>
<path d="M240.826 156.744C240 157.863 240.08 158.412 240.08 158.412L229.723 156.371C228.715 154.804 229.37 152.253 230.792 150.439L231.245 150.696L240.826 156.744Z" fill="#F28F8F"/>
<path d="M242.898 158.972L240.08 158.422C240.08 158.422 239.954 157.873 240.826 156.754L243.286 158.306C243.355 158.386 243.39 158.49 243.384 158.595C243.378 158.7 243.332 158.799 243.256 158.871C243.209 158.917 243.152 158.95 243.09 158.968C243.027 158.985 242.961 158.987 242.898 158.972Z" fill="#37474F"/>
<path d="M234.441 148.292L241.547 156.356C241.265 156.406 241.008 156.547 240.816 156.759L231.24 150.711L230.787 150.454C231.759 149.209 233.08 148.307 234.441 148.292Z" fill="#FFA8A7"/>
<path d="M240.826 156.744C240.911 156.627 241.02 156.53 241.147 156.46C241.273 156.391 241.413 156.35 241.557 156.341L243.286 158.296L240.826 156.744Z" fill="#455A64"/>
<path opacity="0.2" d="M230.792 150.449L144.371 101.894C143.893 102.637 143.552 103.46 143.363 104.323C143.151 105.407 143.338 106.374 144.144 106.929L154.174 112.694L155.247 113.309L156.537 114.055L229.723 156.391C228.458 154.436 229.824 151.553 230.792 150.449Z" fill="black"/>
<path d="M104.071 101.349L17.0504 154.935L15.2712 158.064V160.524C15.2786 161.135 15.4499 161.733 15.7673 162.255C16.0847 162.777 16.5365 163.205 17.0756 163.493L132.366 230.152C133.283 230.651 134.322 230.882 135.364 230.817C136.427 230.782 137.459 230.46 138.353 229.884L223.408 172.801V170.347L104.071 101.349Z" fill="#263238"/>
<path d="M135.349 228.362C134.308 228.427 133.27 228.194 132.355 227.692L17.0756 161.033C16.5362 160.746 16.0841 160.318 15.7666 159.796C15.4492 159.274 15.2781 158.676 15.2712 158.064C15.2828 157.436 15.4517 156.82 15.7624 156.273C16.0732 155.726 16.516 155.266 17.0504 154.935L100.21 99.1217L223.398 170.352L138.338 227.425C137.444 228.001 136.412 228.325 135.349 228.362Z" fill="#B7E0D8"/>
<path d="M100.19 91.9145L17.9625 147.092L17.136 148.408L17.1763 157.984C17.1947 158.248 17.2834 158.502 17.4332 158.72C17.5829 158.938 17.7884 159.112 18.0281 159.224L133.293 225.878C133.935 226.197 134.647 226.347 135.363 226.316C136.078 226.284 136.774 226.071 137.385 225.696L219.618 170.518L219.573 160.942L100.19 91.9145Z" fill="#EBEBEB"/>
<path d="M219.578 160.947L218.57 161.638L205.189 170.614L202.699 172.292L137.37 216.14C136.759 216.514 136.063 216.727 135.347 216.759C134.632 216.791 133.92 216.64 133.278 216.322L17.9676 149.648C16.8437 148.992 16.8387 147.843 17.9676 147.087L19.0613 146.357L100.205 91.9246L218.555 160.353L218.802 160.504L219.578 160.947Z" fill="#F0F0F0"/>
<path d="M135.299 216.75L135.339 226.326C134.639 226.368 133.941 226.215 133.323 225.883L18.0131 159.219C17.7736 159.107 17.5687 158.933 17.4197 158.715C17.2707 158.497 17.1832 158.242 17.1663 157.979L17.121 148.403C17.1419 148.665 17.2311 148.918 17.3796 149.135C17.5281 149.353 17.7308 149.528 17.9677 149.643L133.258 216.307C133.883 216.643 134.59 216.797 135.299 216.75Z" fill="#E0E0E0"/>
<path d="M219.573 159.672L204.77 169.601L202.447 171.158L137.345 214.845C136.734 215.22 136.039 215.434 135.323 215.466C134.607 215.499 133.895 215.349 133.253 215.032L30.0132 155.338C29.0859 154.834 28.224 154.33 27.4176 153.826C23.2143 151.255 20.6792 148.902 19.0512 146.346L18.8547 146.024C18.7243 145.827 18.6352 145.606 18.5926 145.374C18.514 144.881 18.6153 144.376 18.8781 143.951C19.1409 143.526 19.5475 143.21 20.024 143.06C22.7424 142.074 25.341 140.784 27.7704 139.215L27.8712 139.149L100.18 90.6242L219.573 159.672Z" fill="white"/>
<path d="M100.2 91.224L218.64 159.697L204.528 169.178L202.21 170.735L137.088 214.427C136.492 214.791 135.805 214.978 135.107 214.966C134.556 214.98 134.011 214.852 133.525 214.593L30.24 154.894C29.3984 154.431 28.5516 153.942 27.6646 153.408C23.7082 150.983 21.1126 148.66 19.4645 146.089L19.3738 145.943L19.2629 145.767C19.1646 145.614 19.0993 145.442 19.0714 145.263C19.0179 144.888 19.1003 144.507 19.3037 144.188C19.5071 143.869 19.8181 143.634 20.1802 143.524C22.9333 142.526 25.5643 141.219 28.0224 139.628L28.0829 139.593H28.1132L100.185 91.2442M100.185 90.6494L27.8712 139.159L27.7704 139.225C25.341 140.794 22.7424 142.084 20.024 143.07C19.5475 143.22 19.1409 143.536 18.8781 143.961C18.6153 144.386 18.514 144.891 18.5926 145.384C18.6352 145.616 18.7243 145.837 18.8547 146.034L19.0512 146.357C20.6792 148.912 23.2143 151.266 27.4176 153.836C28.224 154.34 29.0859 154.844 30.0132 155.348L133.253 215.032C133.816 215.334 134.448 215.485 135.087 215.47C135.884 215.483 136.668 215.266 137.345 214.845L202.447 171.158L204.77 169.601L219.573 159.672L100.18 90.6242L100.185 90.6494Z" fill="#E0E0E0"/>
<path opacity="0.1" d="M204.201 159.234C203.152 159.944 203.157 161.018 204.201 161.633C204.8 161.932 205.466 162.073 206.136 162.043C206.805 162.013 207.456 161.813 208.026 161.461C209.079 160.751 209.079 159.677 208.026 159.062C207.427 158.762 206.761 158.62 206.091 158.65C205.421 158.68 204.771 158.881 204.201 159.234Z" fill="black"/>
<path d="M216.453 150.928C214.991 150.086 213.167 150.308 211.307 151.548C208.434 153.488 205.955 157.631 204.886 161.9C205.343 162.037 205.824 162.078 206.297 162.021C207.305 158.216 209.478 154.567 212.023 152.848C212.711 152.35 213.52 152.045 214.366 151.966C214.848 151.937 215.328 152.05 215.747 152.289C216.982 153.004 217.698 154.844 217.708 157.329C217.713 157.739 217.693 158.15 217.647 158.558L218.993 159.34C219.083 158.651 219.128 157.957 219.129 157.263C219.114 154.224 218.141 151.906 216.453 150.928Z" fill="#263238"/>
<path d="M218.867 160.141C218.854 160.263 218.832 160.385 218.802 160.504L218.555 160.353L218.867 160.141Z" fill="#263238"/>
<path opacity="0.1" d="M192.649 152.551C191.601 153.261 191.606 154.335 192.649 154.95C193.249 155.249 193.915 155.39 194.584 155.36C195.253 155.33 195.904 155.13 196.474 154.778C197.528 154.068 197.528 152.994 196.474 152.379C195.875 152.08 195.209 151.939 194.539 151.969C193.87 151.999 193.219 152.199 192.649 152.551Z" fill="black"/>
<path d="M204.901 144.25C203.44 143.403 201.615 143.625 199.76 144.865C196.883 146.805 194.403 150.948 193.334 155.222C193.792 155.354 194.272 155.395 194.746 155.343C195.754 151.533 197.931 147.884 200.471 146.165C201.159 145.667 201.969 145.362 202.815 145.283C203.297 145.256 203.777 145.37 204.196 145.611C205.43 146.321 206.146 148.161 206.156 150.651C206.161 151.061 206.141 151.472 206.096 151.88L207.441 152.662C207.536 151.974 207.582 151.28 207.578 150.585C207.562 147.536 206.59 145.228 204.901 144.25Z" fill="#263238"/>
<path opacity="0.1" d="M181.092 145.873C180.049 146.578 180.049 147.652 181.092 148.272C181.693 148.568 182.358 148.708 183.027 148.678C183.696 148.648 184.346 148.45 184.918 148.1C185.976 147.39 185.971 146.316 184.918 145.701C184.318 145.402 183.652 145.261 182.983 145.291C182.313 145.321 181.663 145.521 181.092 145.873Z" fill="black"/>
<path d="M193.345 137.592C191.888 136.745 190.063 136.972 188.204 138.207C185.326 140.147 182.851 144.29 181.778 148.564C182.236 148.696 182.715 148.737 183.189 148.685C184.197 144.875 186.374 141.226 188.919 139.507C189.605 139.008 190.413 138.703 191.258 138.625C191.742 138.601 192.222 138.714 192.644 138.953C193.874 139.663 194.594 141.503 194.605 143.993C194.608 144.405 194.586 144.818 194.539 145.228L195.89 146.004C195.98 145.317 196.024 144.625 196.021 143.932C196.006 140.853 195.048 138.545 193.345 137.592Z" fill="#263238"/>
<path opacity="0.1" d="M169.541 139.19C168.492 139.9 168.497 140.974 169.541 141.589C170.14 141.887 170.806 142.029 171.475 142C172.144 141.971 172.795 141.772 173.366 141.422C174.419 140.707 174.419 139.633 173.366 139.018C172.766 138.72 172.1 138.58 171.431 138.61C170.762 138.64 170.111 138.839 169.541 139.19Z" fill="black"/>
<path d="M181.793 130.889C180.331 130.042 178.507 130.269 176.652 131.509C173.774 133.444 171.295 137.587 170.226 141.861C170.684 141.993 171.163 142.034 171.637 141.982C172.62 138.172 174.818 134.523 177.368 132.804C178.054 132.305 178.862 132 179.706 131.922C180.19 131.898 180.671 132.011 181.092 132.25C182.322 132.96 183.038 134.8 183.048 137.29C183.053 137.702 183.033 138.114 182.987 138.524L184.338 139.301C184.426 138.614 184.47 137.922 184.469 137.229C184.464 134.175 183.481 131.867 181.793 130.889Z" fill="#263238"/>
<path opacity="0.1" d="M157.989 132.512C156.941 133.222 156.946 134.296 157.989 134.911C158.588 135.21 159.253 135.351 159.921 135.321C160.59 135.291 161.24 135.091 161.809 134.739C162.868 134.029 162.863 132.955 161.809 132.34C161.211 132.041 160.545 131.899 159.877 131.929C159.208 131.959 158.558 132.16 157.989 132.512Z" fill="black"/>
<path d="M170.241 124.206C168.78 123.359 166.955 123.586 165.1 124.826C162.222 126.766 159.743 130.904 158.674 135.178C159.131 135.315 159.612 135.356 160.086 135.299C161.068 131.494 163.266 127.845 165.811 126.126C166.5 125.628 167.308 125.321 168.155 125.239C168.637 125.215 169.115 125.329 169.536 125.567C170.77 126.282 171.486 128.122 171.496 130.607C171.501 131.017 171.481 131.428 171.436 131.836L172.781 132.612C172.872 131.926 172.916 131.234 172.912 130.541C172.902 127.512 171.924 125.184 170.241 124.206Z" fill="#263238"/>
<path opacity="0.1" d="M146.432 125.829C145.384 126.539 145.389 127.613 146.432 128.228C147.031 128.527 147.696 128.668 148.365 128.638C149.033 128.608 149.683 128.408 150.252 128.056C151.311 127.346 151.306 126.272 150.252 125.657C149.654 125.359 148.989 125.218 148.32 125.248C147.652 125.278 147.002 125.478 146.432 125.829Z" fill="black"/>
<path d="M158.684 117.523C157.223 116.681 155.398 116.908 153.544 118.143C150.666 120.083 148.176 124.226 147.118 128.52C147.576 128.652 148.055 128.693 148.529 128.641C149.512 124.831 151.709 121.182 154.254 119.463C154.943 118.965 155.752 118.66 156.598 118.581C157.08 118.556 157.559 118.669 157.979 118.909C159.214 119.619 159.929 121.459 159.939 123.949C159.944 124.359 159.924 124.77 159.879 125.178L161.225 125.96C161.314 125.273 161.36 124.581 161.361 123.888C161.346 120.814 160.373 118.5 158.684 117.523Z" fill="#263238"/>
<path opacity="0.1" d="M134.881 119.151C133.832 119.861 133.837 120.935 134.881 121.55C135.479 121.849 136.144 121.99 136.813 121.96C137.481 121.93 138.131 121.73 138.701 121.378C139.759 120.668 139.754 119.594 138.701 118.979C138.102 118.68 137.437 118.538 136.768 118.568C136.1 118.598 135.45 118.799 134.881 119.151Z" fill="black"/>
<path d="M147.133 110.845C145.671 110.003 143.847 110.225 141.987 111.465C139.104 113.4 136.634 117.548 135.576 121.817C136.033 121.954 136.514 121.995 136.987 121.938C137.995 118.133 140.167 114.484 142.713 112.76C143.402 112.265 144.211 111.962 145.056 111.883C145.538 111.856 146.017 111.968 146.437 112.206C147.672 112.921 148.388 114.761 148.398 117.246C148.4 117.656 148.38 118.067 148.337 118.475L149.683 119.251C149.773 118.565 149.818 117.873 149.819 117.18C149.794 114.136 148.821 111.822 147.133 110.845Z" fill="#263238"/>
<path opacity="0.1" d="M123.324 112.468C122.275 113.178 122.28 114.252 123.324 114.867C123.923 115.166 124.589 115.307 125.259 115.277C125.928 115.247 126.579 115.047 127.149 114.695C128.202 113.99 128.202 112.911 127.149 112.296C126.549 111.998 125.883 111.858 125.214 111.888C124.545 111.918 123.895 112.117 123.324 112.468Z" fill="black"/>
<path d="M135.576 104.167C134.114 103.32 132.295 103.547 130.435 104.782C127.557 106.722 125.078 110.865 124.009 115.139C124.467 115.271 124.947 115.312 125.42 115.26C126.428 111.45 128.601 107.801 131.151 106.082C131.837 105.583 132.645 105.278 133.49 105.2C133.972 105.175 134.451 105.288 134.87 105.528C136.105 106.238 136.821 108.078 136.831 110.568C136.836 110.978 136.816 111.389 136.771 111.797L138.121 112.578C138.209 111.892 138.253 111.2 138.252 110.507C138.237 107.453 137.264 105.144 135.576 104.167Z" fill="#263238"/>
<path opacity="0.1" d="M111.772 105.79C110.724 106.495 110.729 107.569 111.772 108.189C112.372 108.487 113.038 108.627 113.707 108.597C114.376 108.567 115.027 108.368 115.598 108.017C116.651 107.307 116.651 106.233 115.598 105.618C114.998 105.319 114.332 105.177 113.663 105.207C112.993 105.237 112.342 105.438 111.772 105.79Z" fill="black"/>
<path d="M124.024 97.4837C122.563 96.6369 120.738 96.8637 118.884 98.1036C116.006 100.044 113.526 104.182 112.458 108.456C112.915 108.59 113.395 108.631 113.869 108.577C114.852 104.766 117.049 101.118 119.594 99.3989C120.283 98.9024 121.092 98.598 121.938 98.5169C122.42 98.4915 122.899 98.6052 123.319 98.8445C124.554 99.5551 125.269 101.395 125.279 103.884C125.284 104.297 125.264 104.709 125.219 105.119L126.564 105.895C126.657 105.209 126.702 104.517 126.701 103.824C126.685 100.77 125.713 98.4614 124.024 97.4837Z" fill="#263238"/>
<path opacity="0.1" d="M100.215 99.1066C99.1671 99.8172 99.1721 100.891 100.215 101.506C100.815 101.805 101.481 101.946 102.15 101.916C102.82 101.886 103.47 101.686 104.041 101.334C105.099 100.624 105.094 99.5501 104.041 98.9352C103.441 98.6372 102.775 98.4966 102.106 98.5265C101.437 98.5565 100.786 98.7561 100.215 99.1066Z" fill="black"/>
<path d="M112.468 90.8057C111.011 89.959 109.187 90.1858 107.327 91.4206C104.449 93.361 101.974 97.5038 100.901 101.778C101.359 101.91 101.838 101.951 102.312 101.899C103.32 98.0885 105.497 94.4395 108.043 92.7209C108.728 92.2217 109.536 91.917 110.381 91.8389C110.865 91.8125 111.346 91.9263 111.767 92.1665C112.997 92.8771 113.718 94.7167 113.728 97.2065C113.73 97.6172 113.71 98.0278 113.667 98.4362L115.013 99.2174C115.103 98.5307 115.147 97.8386 115.144 97.146C115.129 94.0918 114.156 91.7834 112.468 90.8057Z" fill="#263238"/>
<path d="M123.717 202.608C123.487 202.617 123.259 202.56 123.059 202.445C122.859 202.33 122.696 202.161 122.588 201.958C122.417 201.633 122.369 201.257 122.454 200.9C122.54 200.543 122.752 200.229 123.052 200.017L186.314 157.566C186.456 157.467 186.617 157.4 186.786 157.368C186.956 157.337 187.131 157.342 187.298 157.383C187.466 157.424 187.623 157.5 187.759 157.606C187.895 157.712 188.007 157.846 188.088 157.999C188.259 158.324 188.307 158.699 188.221 159.056C188.136 159.414 187.924 159.727 187.624 159.939L124.367 202.406C124.173 202.531 123.948 202.601 123.717 202.608Z" fill="#EBEBEB"/>
<path d="M116.016 198.173C115.785 198.182 115.557 198.125 115.358 198.01C115.158 197.895 114.995 197.726 114.887 197.523C114.716 197.197 114.669 196.821 114.755 196.464C114.842 196.107 115.055 195.794 115.356 195.582L178.613 153.125C178.755 153.028 178.917 152.961 179.086 152.93C179.256 152.899 179.431 152.904 179.599 152.945C179.767 152.986 179.924 153.062 180.061 153.167C180.197 153.273 180.31 153.406 180.392 153.559C180.563 153.884 180.609 154.26 180.523 154.617C180.437 154.974 180.223 155.288 179.923 155.499L116.666 197.956C116.473 198.087 116.248 198.162 116.016 198.173Z" fill="#EBEBEB"/>
<path d="M108.31 193.717C108.08 193.725 107.852 193.668 107.653 193.552C107.454 193.436 107.292 193.266 107.186 193.062C107.014 192.738 106.967 192.362 107.052 192.005C107.137 191.648 107.35 191.334 107.649 191.122L170.912 148.68C171.054 148.583 171.215 148.517 171.384 148.487C171.554 148.456 171.728 148.461 171.895 148.502C172.062 148.543 172.219 148.619 172.355 148.724C172.491 148.829 172.604 148.962 172.686 149.113C172.857 149.438 172.905 149.814 172.819 150.171C172.734 150.528 172.522 150.842 172.222 151.054L108.96 193.496C108.767 193.628 108.543 193.704 108.31 193.717Z" fill="#EBEBEB"/>
<path d="M100.609 189.267C100.378 189.275 100.15 189.218 99.9499 189.102C99.7503 188.986 99.5873 188.816 99.4796 188.612C99.3081 188.287 99.2607 187.911 99.346 187.554C99.4313 187.197 99.6436 186.884 99.9433 186.672L163.205 144.22C163.347 144.12 163.508 144.053 163.678 144.021C163.848 143.989 164.023 143.993 164.191 144.034C164.358 144.075 164.516 144.152 164.652 144.259C164.788 144.365 164.9 144.5 164.979 144.653C165.151 144.978 165.198 145.354 165.113 145.711C165.028 146.068 164.815 146.381 164.516 146.593L101.254 189.045C101.063 189.177 100.84 189.254 100.609 189.267Z" fill="#EBEBEB"/>
<path d="M92.9023 184.807C92.672 184.816 92.4439 184.759 92.2442 184.644C92.0445 184.529 91.8813 184.36 91.7734 184.157C91.6024 183.831 91.5557 183.455 91.642 183.098C91.7283 182.741 91.9416 182.427 92.2421 182.216L155.504 139.764C155.647 139.667 155.808 139.6 155.978 139.569C156.148 139.538 156.323 139.543 156.49 139.584C156.658 139.625 156.816 139.701 156.952 139.806C157.089 139.912 157.202 140.045 157.283 140.198C157.454 140.523 157.501 140.899 157.415 141.256C157.328 141.613 157.115 141.927 156.815 142.138L93.5525 184.59C93.3598 184.721 93.1349 184.796 92.9023 184.807Z" fill="#EBEBEB"/>
<path d="M85.2013 180.356C84.9704 180.365 84.7417 180.309 84.5418 180.193C84.3419 180.077 84.1791 179.906 84.0723 179.701C83.9014 179.376 83.8547 179 83.941 178.643C84.0272 178.286 84.2405 177.972 84.541 177.761L147.798 135.309C147.94 135.21 148.102 135.143 148.272 135.112C148.442 135.08 148.617 135.085 148.785 135.126C148.953 135.167 149.111 135.243 149.247 135.349C149.384 135.456 149.496 135.589 149.577 135.742C149.749 136.067 149.796 136.443 149.711 136.8C149.625 137.157 149.413 137.471 149.114 137.683L85.8514 180.135C85.6602 180.269 85.4347 180.346 85.2013 180.356Z" fill="#EBEBEB"/>
<path d="M77.5001 175.896C77.2694 175.904 77.0412 175.846 76.8416 175.731C76.6419 175.615 76.4789 175.445 76.3712 175.241C76.1997 174.916 76.1523 174.54 76.2376 174.183C76.3229 173.826 76.5352 173.512 76.8349 173.3L140.112 130.854C140.254 130.755 140.415 130.688 140.585 130.656C140.754 130.625 140.929 130.63 141.097 130.671C141.264 130.712 141.421 130.788 141.558 130.894C141.694 131 141.806 131.134 141.886 131.287C142.058 131.612 142.105 131.987 142.02 132.344C141.934 132.702 141.722 133.015 141.422 133.227L78.1453 175.679C77.9539 175.809 77.7309 175.884 77.5001 175.896Z" fill="#EBEBEB"/>
<path d="M69.7939 171.446C69.5636 171.455 69.3355 171.398 69.1358 171.283C68.9361 171.168 68.7729 170.999 68.665 170.796C68.4941 170.47 68.4473 170.094 68.5336 169.737C68.6199 169.38 68.8332 169.066 69.1337 168.855L132.396 126.403C132.537 126.304 132.698 126.236 132.868 126.204C133.038 126.172 133.213 126.177 133.381 126.218C133.549 126.259 133.706 126.335 133.842 126.442C133.978 126.549 134.09 126.683 134.17 126.837C134.341 127.161 134.389 127.537 134.303 127.894C134.218 128.251 134.006 128.565 133.706 128.777L70.4441 171.229C70.2511 171.359 70.0263 171.434 69.7939 171.446Z" fill="#EBEBEB"/>
<path d="M62.0929 166.99C61.8639 166.993 61.6386 166.932 61.4426 166.814C61.2466 166.695 61.0877 166.524 60.9841 166.32C60.8131 165.995 60.7664 165.619 60.8527 165.261C60.939 164.904 61.1523 164.591 61.4528 164.38L124.69 121.968C124.832 121.869 124.993 121.801 125.163 121.769C125.334 121.737 125.509 121.742 125.677 121.783C125.846 121.824 126.003 121.9 126.14 122.007C126.276 122.113 126.388 122.248 126.469 122.401C126.64 122.727 126.686 123.103 126.6 123.46C126.514 123.817 126.301 124.131 126 124.342L62.743 166.774C62.5504 166.904 62.3254 166.979 62.0929 166.99Z" fill="#EBEBEB"/>
<path d="M54.3867 162.54C54.1566 162.548 53.929 162.491 53.7301 162.375C53.5312 162.259 53.3692 162.089 53.2628 161.885C53.0913 161.56 53.0439 161.184 53.1292 160.827C53.2145 160.47 53.4268 160.156 53.7265 159.944L116.989 117.492C117.13 117.394 117.292 117.327 117.461 117.295C117.631 117.264 117.805 117.269 117.973 117.31C118.141 117.351 118.298 117.427 118.434 117.533C118.57 117.639 118.682 117.773 118.763 117.926C118.934 118.251 118.982 118.626 118.896 118.983C118.811 119.34 118.599 119.654 118.299 119.866L55.0369 162.318C54.8445 162.45 54.6196 162.527 54.3867 162.54Z" fill="#EBEBEB"/>
<path d="M46.6856 158.09C46.4549 158.097 46.2266 158.04 46.027 157.924C45.8273 157.808 45.6643 157.639 45.5566 157.434C45.3852 157.11 45.3377 156.734 45.423 156.377C45.5083 156.02 45.7206 155.706 46.0203 155.494L109.287 113.037C109.429 112.939 109.59 112.872 109.76 112.84C109.93 112.809 110.104 112.814 110.272 112.854C110.44 112.895 110.597 112.972 110.733 113.078C110.869 113.184 110.981 113.318 111.061 113.471C111.233 113.795 111.28 114.171 111.195 114.528C111.11 114.885 110.897 115.199 110.598 115.411L47.3307 157.868C47.1399 157.999 46.9168 158.076 46.6856 158.09Z" fill="#EBEBEB"/>
<path d="M38.9794 153.629C38.7491 153.638 38.521 153.582 38.3213 153.467C38.1216 153.352 37.9583 153.183 37.8504 152.979C37.6795 152.654 37.6328 152.278 37.719 151.921C37.8053 151.563 38.0186 151.25 38.3191 151.039L101.581 108.587C101.723 108.488 101.885 108.421 102.055 108.39C102.225 108.358 102.4 108.363 102.568 108.404C102.736 108.445 102.894 108.521 103.03 108.627C103.167 108.733 103.279 108.867 103.36 109.02C103.531 109.345 103.578 109.722 103.492 110.079C103.405 110.436 103.192 110.749 102.892 110.961L39.6295 153.413C39.4369 153.543 39.2119 153.618 38.9794 153.629Z" fill="#EBEBEB"/>
<path d="M31.2783 149.184C31.0481 149.192 30.8203 149.136 30.6207 149.021C30.4211 148.906 30.2578 148.737 30.1494 148.534C29.9784 148.209 29.9317 147.832 30.018 147.475C30.1042 147.118 30.3176 146.805 30.6181 146.593L93.8751 104.136C94.0176 104.039 94.1791 103.972 94.349 103.941C94.519 103.91 94.6936 103.915 94.8614 103.956C95.0293 103.997 95.1866 104.073 95.3232 104.179C95.4598 104.284 95.5726 104.418 95.6542 104.57C95.8252 104.895 95.8719 105.271 95.7856 105.628C95.6993 105.986 95.486 106.299 95.1855 106.51L31.9285 148.962C31.7364 149.095 31.5113 149.171 31.2783 149.184Z" fill="#EBEBEB"/>
<path d="M131.544 207.078C131.313 207.086 131.085 207.029 130.886 206.913C130.686 206.797 130.523 206.627 130.415 206.423C130.244 206.099 130.196 205.723 130.282 205.366C130.367 205.009 130.579 204.695 130.879 204.483L197.79 159.501C197.932 159.402 198.094 159.335 198.264 159.304C198.434 159.272 198.609 159.277 198.777 159.318C198.945 159.359 199.102 159.435 199.239 159.541C199.375 159.647 199.488 159.781 199.569 159.934C199.741 160.26 199.789 160.637 199.702 160.996C199.616 161.354 199.402 161.668 199.1 161.88L132.189 206.857C131.998 206.987 131.775 207.064 131.544 207.078Z" fill="#B7E0D8"/>
<path d="M138.192 180.054C138.096 179.777 137.955 179.495 137.753 179.55C137.693 179.58 137.642 179.627 137.608 179.685C137.573 179.743 137.555 179.81 137.557 179.878C137.558 179.967 137.575 180.056 137.607 180.14C137.668 180.341 137.794 180.447 137.859 180.644C138.605 183.108 136.161 183.889 134.87 183.98C131.211 184.252 127.618 182.604 124.256 180.81C119.433 178.24 114.63 175.412 109.58 173.754C105.336 172.368 98.784 170.992 96.3447 177.408C96.2993 177.539 96.4505 177.776 96.516 177.63C99.162 171.683 105.215 172.912 109.388 174.293C114.489 175.982 119.332 178.854 124.211 181.445C127.472 183.174 130.899 184.681 134.437 184.59C136.055 184.555 139.316 183.617 138.308 180.402C138.277 180.331 138.237 180.195 138.192 180.054Z" fill="#263238"/>
<path d="M158.256 104.414C155.978 100.301 153.292 95.7701 150.464 89.1324C147.637 82.4947 145.233 82.4393 138.872 80.1612C133.595 78.2762 119.216 72.2232 113.476 69.7788C106.087 66.6288 104.046 66.2508 97.7508 59.1242C90.9014 51.3475 67.9039 25.8199 67.9039 25.8199L38.6719 79.9243C48.4344 85.5389 56.6042 90.216 62.5464 94.0111C67.7376 97.3174 70.9178 100.18 73.8208 110.396C75.7965 117.331 76.0284 120.34 81.4564 126.524C85.6648 131.332 86.8946 132.693 91.7683 138.03L110.88 130.032C110.274 129.065 109.899 127.972 109.781 126.837C109.62 122.739 115.401 123.379 118.047 123.656C124.241 124.312 144.134 133.111 144.134 133.111L155.887 123.823C157.792 121.807 159.657 119.352 157.707 113.743C159.017 112.256 160.534 108.531 158.256 104.414Z" fill="#FFBF9D"/>
<path d="M143.721 88.8199C143.198 88.1688 142.569 87.61 141.861 87.1668C141.478 86.9047 141.1 86.6628 140.717 86.3957C140.277 86.0805 139.815 85.7959 139.336 85.5439C139.245 85.5036 139.26 85.6548 139.296 85.6951C140.581 86.9854 142.32 87.7111 143.363 89.2584C143.78 89.9109 144.143 90.5971 144.446 91.3097C144.86 92.2018 145.283 93.0787 145.732 93.9557C145.767 94.0212 145.812 93.9557 145.802 93.9002C145.333 92.1413 144.814 90.3118 143.721 88.8199Z" fill="#FFB188"/>
<path d="M157.752 113.783C158.084 113.382 158.367 112.942 158.594 112.473C157.248 109.655 154.058 104.625 151.502 98.3606C153.271 103.35 154.783 105.84 157.752 113.783Z" fill="#FFB188"/>
<path d="M147.979 88.6738C147.924 88.277 147.822 87.8879 147.677 87.5146C147.429 86.8351 147.056 86.2079 146.578 85.6649C146.007 85.0974 145.338 84.638 144.603 84.3091C143.823 83.8851 142.991 83.5648 142.128 83.3566C142.128 83.3566 142.128 83.3868 142.128 83.3969C142.854 83.8102 143.605 84.1831 144.33 84.5964C145.024 84.9371 145.649 85.4017 146.175 85.9673C147.072 87.0307 147.405 88.4369 148 89.6666C148.035 89.7372 148.11 89.7221 148.11 89.6666C148.096 89.3325 148.052 89.0003 147.979 88.6738Z" fill="#FFB188"/>
<path d="M157.399 122.008C157.177 119.07 155.645 117.175 154.048 113.521C152.032 108.935 147.586 100.175 146.089 95.0393C146.593 99.6509 149.673 115.602 151.916 126.993L155.907 123.838C156.462 123.278 156.962 122.665 157.399 122.008Z" fill="#FFB188"/>
<path d="M110.482 129.432C110.256 128.84 109.979 128.269 109.655 127.724C109.368 127.169 109.116 126.595 108.869 126.02C108.405 124.949 108.013 123.847 107.695 122.724C107.375 121.582 107.188 120.406 107.135 119.221C107.112 118.643 107.123 118.064 107.171 117.487C107.196 117.185 107.236 116.883 107.281 116.58C107.317 116.353 107.382 116.101 107.397 115.875C107.412 115.648 107.397 115.527 107.428 115.371C107.428 115.27 107.246 115.028 107.171 115.189C107.035 115.45 106.922 115.721 106.833 116.001C106.763 116.255 106.705 116.512 106.661 116.772C106.574 117.28 106.522 117.794 106.505 118.309C106.478 119.273 106.547 120.237 106.712 121.187C107.046 123.069 107.674 124.887 108.572 126.575C108.829 127.079 109.106 127.537 109.383 128.016C109.659 128.557 109.998 129.065 110.391 129.528C110.467 129.568 110.497 129.478 110.482 129.432Z" fill="#FFB188"/>
<path d="M146.911 125.773L134.87 103.013C134.87 103.013 122.568 106.541 116.726 109.771C110.885 113.002 108.158 124.186 110.401 129.513L110.638 129.563C110.16 128.733 109.87 127.807 109.791 126.852C109.63 122.754 115.411 123.394 118.057 123.672C124.251 124.327 144.144 133.127 144.144 133.127L147.067 130.813L146.911 125.773Z" fill="#FFB188"/>
<path d="M68.145 58.6647C74.8868 42.8206 73.0849 26.8841 64.1204 23.0697C55.1559 19.2553 42.4234 29.0072 35.6816 44.8514C28.9399 60.6955 30.7418 76.6319 39.7063 80.4464C48.6708 84.2608 61.4033 74.5088 68.145 58.6647Z" fill="#FFBF9D"/>
<path d="M137.456 84.7728C144.436 87.8522 145.258 91.6877 146.493 96.6521C147.727 101.616 152.45 112.19 154.3 116.968C156.149 121.746 156.557 122.971 154.708 129.442C152.858 135.914 147.617 148.594 147.617 148.594C147.617 148.594 131.907 98.8596 130.884 93.744C129.861 88.6284 130.47 82.9332 137.456 84.7728Z" fill="#FFBF9D"/>
<path d="M153.15 126.116C153.143 126.129 153.139 126.144 153.139 126.159C153.139 126.174 153.143 126.189 153.15 126.202C153.372 126.272 153.71 126.121 153.932 126.081C154.153 126.04 154.496 125.97 154.778 125.929C155.061 125.889 155.333 125.864 155.625 125.849C155.66 125.662 155.691 125.481 155.721 125.31C155.008 125.393 154.307 125.562 153.634 125.814C153.444 125.858 153.274 125.964 153.15 126.116ZM153.12 122.739C153.816 122.477 154.537 122.286 155.272 122.17C155.465 122.144 155.658 122.129 155.852 122.124C155.852 121.933 155.807 121.741 155.771 121.555C155.56 121.555 155.353 121.585 155.141 121.615C154.346 121.705 153.577 121.957 152.883 122.356C152.656 122.472 152.908 122.81 153.12 122.739ZM155.459 123.48C155.013 123.499 154.568 123.546 154.128 123.621C153.221 123.752 152.346 124.049 151.548 124.498C151.356 124.614 151.613 124.871 151.78 124.816C152.531 124.528 153.302 124.297 154.088 124.125C154.466 124.053 154.848 124.006 155.232 123.984C155.428 123.984 155.645 123.984 155.857 123.984C155.857 123.808 155.882 123.641 155.887 123.48C155.736 123.48 155.6 123.48 155.459 123.48Z" fill="#FFB188"/>
<path d="M148.584 115.839C145.733 110.26 143.25 104.501 141.15 98.5975L134.87 96.6521L132.789 100.654C137.219 115.668 147.617 148.589 147.617 148.589C147.617 148.589 148.393 146.709 149.456 144.053C149.456 144.053 150.857 132.421 151.472 127.215C152.087 122.008 150.605 119.634 148.584 115.839Z" fill="#FFB188"/>
<path d="M125.949 144.396C125.561 144.134 125.173 143.892 124.79 143.595C119.594 139.774 114.06 135.838 110.88 130.032L91.7279 138.036C94.9923 141.628 98.4694 145.021 102.141 148.196C105.24 151.008 114.665 154.869 120.789 157.949C126.912 161.028 129.483 162.555 131.025 161.688C132.829 160.721 135.042 150.575 125.949 144.396Z" fill="#FFBF9D"/>
<path d="M103.864 149.471C103.93 149.25 103.995 149.033 104.076 148.816C104.244 148.365 104.438 147.925 104.656 147.496C104.916 147.086 105.135 146.652 105.311 146.2C105.336 146.089 105.185 145.903 105.074 145.989C104.677 146.355 104.355 146.795 104.126 147.284C103.855 147.779 103.625 148.295 103.436 148.826C103.401 148.922 103.375 149.023 103.34 149.118L103.864 149.471Z" fill="#FFB188"/>
<path d="M105.865 150.484C106.068 149.73 106.341 148.995 106.682 148.292C106.975 147.697 107.336 147.137 107.755 146.624C108.047 146.258 108.373 145.921 108.728 145.616C109.02 145.379 109.328 145.167 109.595 144.905C109.665 144.834 109.564 144.648 109.464 144.673C108.72 144.907 108.052 145.335 107.528 145.913C106.963 146.476 106.483 147.118 106.102 147.818C105.69 148.581 105.369 149.39 105.144 150.227L105.825 150.62C105.84 150.595 105.84 150.54 105.865 150.484Z" fill="#FFB188"/>
<path d="M107.962 150.318C108.171 149.739 108.422 149.177 108.713 148.635C108.838 148.402 108.976 148.177 109.126 147.959C109.303 147.76 109.442 147.529 109.534 147.279C109.534 147.168 109.403 146.992 109.287 147.052C108.78 147.424 108.369 147.911 108.088 148.473C107.771 148.999 107.498 149.55 107.271 150.121C107.13 150.484 107.004 150.852 106.888 151.225L107.544 151.573C107.675 151.15 107.806 150.731 107.962 150.318Z" fill="#FFB188"/>
<path d="M118.238 156.694C118.51 154.773 119.44 153.006 120.869 151.694C120.869 151.694 125.259 153.534 127.134 155.222C129.009 156.91 130.455 160.635 129.286 161.829C126.6 161.839 122.976 159.193 118.238 156.694Z" fill="#FFC4C3"/>
<path opacity="0.3" d="M118.238 156.694C118.793 156.986 119.327 157.278 119.851 157.571C120.425 155.66 120.763 153.686 120.859 151.694C119.433 153.007 118.507 154.774 118.238 156.694Z" fill="white"/>
<path d="M126.312 113.586C129.387 118.626 134.114 127.698 134.17 128.868C134.482 135.485 134.104 142.4 134.104 149.557C134.104 156.714 134.044 161.94 137.184 166.693C140.026 170.977 145.248 172.156 145.989 167.474C146.634 163.467 147.037 155.313 147.617 148.604C148.196 141.896 149.733 132.179 150.137 126.751C150.54 121.323 146.971 115.996 144.567 108.975C142.481 102.871 140.712 95.1602 137.441 91.8893C134.17 88.6183 121.792 82.4897 117.281 80.1108L126.312 113.586Z" fill="#FFBF9D"/>
<path d="M149.779 127.169C149.391 127.197 149.002 127.197 148.614 127.169C147.808 127.088 147.009 126.943 146.225 126.736C146.024 126.696 146.074 126.983 146.195 127.048C146.987 127.411 147.845 127.608 148.715 127.628C149.148 127.661 149.583 127.661 150.016 127.628H150.056C150.056 127.462 150.081 127.305 150.091 127.149L149.779 127.169Z" fill="#FFB188"/>
<path d="M145.152 122.306C145.016 122.371 145.187 122.608 145.308 122.578C146.245 122.328 147.222 122.273 148.181 122.417C148.606 122.492 149.021 122.612 149.421 122.774L149.789 122.951C149.743 122.734 149.693 122.517 149.643 122.301C149.213 122.127 148.765 122.002 148.307 121.928C147.241 121.73 146.141 121.862 145.152 122.306Z" fill="#FFB188"/>
<path d="M147.002 124.06C146.237 124.03 145.472 124.094 144.724 124.251C144.094 124.392 143.171 124.548 142.758 125.098C142.758 125.098 142.758 125.184 142.783 125.184C143.134 125.173 143.482 125.112 143.816 125.002C144.179 124.911 144.542 124.831 144.91 124.775C146.27 124.557 147.662 124.64 148.987 125.017C149.377 125.131 149.757 125.273 150.126 125.441C150.126 125.184 150.126 124.937 150.081 124.664C149.804 124.564 149.522 124.473 149.249 124.397C148.516 124.195 147.762 124.082 147.002 124.06Z" fill="#FFB188"/>
<path d="M147.223 152.42C146.961 152.334 146.689 152.258 146.422 152.183C145.868 152.037 145.313 151.906 144.749 151.8C144.72 151.792 144.689 151.791 144.659 151.796C144.63 151.801 144.601 151.812 144.576 151.829C144.551 151.846 144.53 151.867 144.514 151.893C144.497 151.918 144.486 151.946 144.482 151.976C144.482 152.117 144.613 152.213 144.734 152.233C145.238 152.334 145.742 152.445 146.271 152.581L147.012 152.798L147.279 152.883L147.309 152.445L147.223 152.42Z" fill="#FFB188"/>
<path d="M145.545 150.585C146.115 150.755 146.674 150.96 147.218 151.2L147.4 151.281L147.445 150.686L147.385 150.656C146.805 150.423 146.21 150.228 145.606 150.071C145.007 149.916 144.399 149.798 143.786 149.718C143.14 149.593 142.476 149.581 141.826 149.683C141.705 149.683 141.76 149.9 141.861 149.92C142.501 150.046 143.156 150.081 143.796 150.192C144.386 150.29 144.97 150.421 145.545 150.585Z" fill="#FFB188"/>
<path d="M144.603 148.998C145.399 149.175 146.185 149.398 146.956 149.663C147.143 149.728 147.324 149.804 147.506 149.88C147.506 149.713 147.536 149.552 147.546 149.376L147.163 149.229C146.32 148.957 145.455 148.761 144.577 148.645C144.351 148.63 144.436 148.962 144.603 148.998Z" fill="#FFB188"/>
<path d="M146.911 157.928C143.957 155.081 140.863 156.094 140.863 156.094C140.496 158.503 140.359 160.942 140.455 163.377C140.666 166.784 142.914 168.452 144.633 168.744C146.351 169.037 146.578 165.675 146.911 157.928Z" fill="#FFC4C3"/>
<path opacity="0.3" d="M146.855 159.183C146.855 158.78 146.891 158.362 146.911 157.928C143.957 155.081 140.863 156.094 140.863 156.094C141.453 157.142 144.719 158.982 146.855 159.183Z" fill="white"/>
<path d="M139.104 92.7914C137.738 90.9266 135.692 89.8279 133.676 88.7998C132.537 88.2483 131.432 87.6272 130.37 86.94C130.309 86.8946 130.294 87.0257 130.329 87.061C131.927 88.4722 133.857 89.455 135.601 90.6343C137.513 91.8324 138.994 93.6083 139.83 95.7046C140.364 96.9192 140.807 98.1691 141.291 99.4039C141.327 99.4997 141.402 99.4392 141.392 99.3586C141.12 97.0704 140.475 94.6714 139.104 92.7914Z" fill="#FFB188"/>
<path d="M104.53 33.4152C104.618 33.5502 104.689 33.6958 104.741 33.8486L104.469 32.8759C104.454 32.8179 104.435 32.7607 104.414 32.7046V32.6693C104.395 32.6101 104.372 32.5528 104.343 32.4979L104.303 32.4173C104.303 32.3719 104.257 32.3316 104.227 32.2862L104.086 32.0846C104.031 32.0191 103.975 31.9536 103.915 31.8931C103.428 31.4383 102.83 31.1201 102.181 30.9708C99.5954 30.2904 95.9717 31.2732 94.0867 33.1682C93.8343 33.4132 93.6142 33.6892 93.4315 33.9898C93.3948 34.0405 93.3628 34.0945 93.3358 34.151C93.3122 34.1789 93.295 34.2116 93.2854 34.2468C93.2491 34.3094 93.2187 34.3752 93.1946 34.4434C93.0952 34.6607 93.0289 34.8918 92.9981 35.1288C92.9552 35.4061 92.9706 35.6894 93.0434 35.9604L93.3509 37.0742C93.2993 36.8889 93.2755 36.697 93.2803 36.5047C93.7768 37.1961 94.5171 37.6734 95.3518 37.8403C97.9373 38.5258 101.566 37.543 103.451 35.6479C104.084 35.0695 104.47 34.2702 104.53 33.4152Z" fill="#B7E0D8"/>
<path d="M139.996 164.107L128.55 167.232L128.248 166.113L93.3207 37.0894C93.2691 36.9041 93.2453 36.7121 93.2501 36.5198C93.3208 35.6547 93.7214 34.8499 94.369 34.272C96.254 32.377 99.8777 31.3992 102.463 32.0846C103.112 32.2286 103.711 32.5435 104.197 32.9969C104.324 33.1231 104.435 33.2635 104.53 33.4152C104.618 33.5502 104.689 33.6958 104.741 33.8486C104.741 33.8486 104.741 33.9041 104.767 33.9242V33.9545L139.996 164.107Z" fill="#F0F0F0"/>
<path d="M137.683 162.228C140.268 162.908 140.838 165.005 138.948 166.9C137.058 168.795 133.439 169.777 130.854 169.092C128.268 168.407 127.704 166.315 129.589 164.42C131.473 162.525 135.097 161.542 137.683 162.228Z" fill="#B7E0D8"/>
<path d="M139.684 173.003C139.684 172.953 139.684 172.897 139.684 172.847L140.036 164.899V164.808C140.039 164.759 140.039 164.711 140.036 164.662V164.581C140.011 163.523 139.195 162.621 137.663 162.217C135.077 161.532 131.453 162.515 129.568 164.41C128.475 165.509 128.213 166.678 128.681 167.595L128.722 167.651C128.77 167.742 128.826 167.83 128.888 167.913L128.923 167.968L133.227 174.641C133.509 175.028 133.927 175.295 134.397 175.387C135.212 175.558 136.056 175.534 136.86 175.316C137.664 175.099 138.405 174.695 139.023 174.137C139.366 173.845 139.599 173.445 139.684 173.003Z" fill="#E0E0E0"/>
<path d="M115.093 86.7334C115.096 86.7286 115.097 86.7235 115.097 86.7182C115.097 86.713 115.096 86.7078 115.093 86.7031L115.053 86.5469C114.976 86.3942 114.864 86.2615 114.727 86.1592C114.589 86.0568 114.43 85.9877 114.262 85.9572C113.753 85.8531 113.227 85.8701 112.727 86.0066C112.226 86.1432 111.764 86.3956 111.379 86.7434C111.252 86.8505 111.151 86.9852 111.084 87.1371C111.016 87.2891 110.985 87.4543 110.991 87.6204L111.046 87.822L133.222 169.702L137.904 170.942L115.093 86.7334Z" fill="#455A64"/>
<path d="M131.413 163.12L133.197 169.712L137.879 170.952L135.46 162.021C134.049 162.098 132.67 162.472 131.413 163.12Z" fill="#37474F"/>
<path d="M139.205 176.471L139.522 169.263C139.53 169.2 139.53 169.135 139.522 169.072C139.522 168.306 138.938 167.661 137.839 167.368C136.831 167.159 135.787 167.191 134.793 167.461C133.799 167.73 132.883 168.231 132.119 168.921C131.347 169.697 131.156 170.513 131.484 171.163V171.204L131.594 171.375L135.576 177.494C135.736 177.711 135.971 177.86 136.236 177.912C136.695 178.009 137.171 177.995 137.624 177.873C138.077 177.75 138.494 177.522 138.842 177.206C138.951 177.116 139.039 177.004 139.102 176.877C139.164 176.75 139.199 176.612 139.205 176.471Z" fill="#B7E0D8"/>
<path opacity="0.1" d="M139.205 176.471L139.522 169.263C139.53 169.2 139.53 169.135 139.522 169.072C139.522 168.306 138.938 167.661 137.839 167.368C136.831 167.159 135.787 167.191 134.793 167.461C133.799 167.73 132.883 168.231 132.119 168.921C131.347 169.697 131.156 170.513 131.484 171.163V171.204L131.594 171.375L135.576 177.494C135.736 177.711 135.971 177.86 136.236 177.912C136.695 178.009 137.171 177.995 137.624 177.873C138.077 177.75 138.494 177.522 138.842 177.206C138.951 177.116 139.039 177.004 139.102 176.877C139.164 176.75 139.199 176.612 139.205 176.471Z" fill="black"/>
<path d="M138.857 177.211C138.508 177.525 138.089 177.752 137.635 177.874C137.182 177.995 136.706 178.009 136.246 177.912C135.983 177.861 135.749 177.711 135.591 177.494L133.575 174.399C133.258 173.895 133.374 173.275 133.973 172.665C134.531 172.163 135.199 171.8 135.923 171.604C136.647 171.408 137.407 171.385 138.141 171.536C138.928 171.743 139.351 172.207 139.361 172.756V172.902L139.205 176.471C139.199 176.611 139.166 176.749 139.106 176.876C139.046 177.004 138.962 177.118 138.857 177.211Z" fill="#B7E0D8"/>
<path opacity="0.1" d="M138.449 175.704C139.28 175.926 139.457 176.597 138.857 177.216C138.509 177.532 138.092 177.76 137.639 177.883C137.186 178.005 136.711 178.019 136.251 177.922C135.42 177.705 135.243 177.03 135.843 176.41C136.191 176.096 136.609 175.868 137.061 175.745C137.514 175.623 137.99 175.609 138.449 175.704Z" fill="black"/>
<path d="M104.363 47.0736C104.302 46.8982 104.193 46.7433 104.049 46.6258C103.905 46.5084 103.731 46.4332 103.547 46.4083C103.042 46.3021 102.518 46.3171 102.02 46.452C101.521 46.5869 101.062 46.8379 100.679 47.1845C100.532 47.3031 100.42 47.4596 100.355 47.6373C100.29 47.8149 100.275 48.0069 100.311 48.1925L110.986 87.6355C110.98 87.4695 111.011 87.3042 111.079 87.1522C111.146 87.0003 111.247 86.8656 111.374 86.7586C111.759 86.4107 112.221 86.1583 112.722 86.0218C113.222 85.8852 113.748 85.8682 114.257 85.9723C114.425 86.0028 114.584 86.072 114.722 86.1743C114.859 86.2766 114.971 86.4093 115.048 86.562L104.363 47.0736Z" fill="#FAFAFA"/>
<path d="M103.995 48.0614C103.612 48.4069 103.152 48.6573 102.654 48.7921C102.156 48.927 101.633 48.9425 101.128 48.8376C100.946 48.8115 100.775 48.7361 100.633 48.6198C100.49 48.5034 100.383 48.3504 100.321 48.1774C100.28 47.9927 100.292 47.8002 100.355 47.622C100.419 47.4437 100.531 47.2869 100.679 47.1694C101.062 46.8228 101.521 46.5718 102.02 46.4369C102.518 46.302 103.042 46.287 103.547 46.3932C103.731 46.418 103.905 46.4933 104.049 46.6107C104.193 46.7281 104.302 46.8831 104.363 47.0585C104.398 47.2433 104.382 47.4341 104.317 47.6106C104.253 47.7872 104.141 47.9429 103.995 48.0614Z" fill="#F5F5F5"/>
<path d="M106.117 41.2171V41.1667C106.12 41.1416 106.12 41.1163 106.117 41.0911L104.247 34.2014C104.235 34.1469 104.22 34.093 104.202 34.0402V33.9998C103.96 33.2942 103.27 32.7146 102.186 32.4223C100.902 32.1557 99.5737 32.1956 98.3083 32.5389C97.0428 32.8822 95.8762 33.5191 94.9032 34.398C94.0464 35.2548 93.7541 36.157 93.9658 36.918L95.8608 43.8984C95.8586 43.9101 95.8586 43.922 95.8608 43.9337V43.974C96.0876 44.7098 96.7831 45.3096 97.9171 45.612C99.2009 45.8778 100.529 45.8375 101.795 45.4942C103.06 45.151 104.226 44.5145 105.2 43.6363C105.976 42.84 106.279 41.963 106.117 41.2171Z" fill="#B7E0D8"/>
<path opacity="0.05" d="M106.117 41.2171V41.1667C106.12 41.1416 106.12 41.1163 106.117 41.0911L104.247 34.2014C104.235 34.1469 104.22 34.093 104.202 34.0402V33.9998C103.96 33.2942 103.27 32.7146 102.186 32.4223C100.902 32.1557 99.5737 32.1956 98.3083 32.5389C97.0428 32.8822 95.8762 33.5191 94.9032 34.398C94.0464 35.2548 93.7541 36.157 93.9658 36.918L95.8608 43.8984C95.8586 43.9101 95.8586 43.922 95.8608 43.9337V43.974C96.0876 44.7098 96.7831 45.3096 97.9171 45.612C99.2009 45.8778 100.529 45.8375 101.795 45.4942C103.06 45.151 104.226 44.5145 105.2 43.6363C105.976 42.84 106.279 41.963 106.117 41.2171Z" fill="black"/>
<path opacity="0.1" d="M104.021 39.433C106.349 40.0478 106.858 41.953 105.16 43.6414C104.186 44.5195 103.02 45.156 101.754 45.4993C100.489 45.8425 99.1606 45.8829 97.8768 45.617C95.5483 44.9971 95.0393 43.097 96.7378 41.4086C97.7108 40.5298 98.8774 39.8928 100.143 39.5496C101.408 39.2063 102.737 39.1663 104.021 39.433Z" fill="black"/>
<path d="M139.028 179.464L138.298 176.571C138.271 176.486 138.221 176.41 138.153 176.352C138.086 176.294 138.003 176.257 137.915 176.244C137.679 176.196 137.436 176.204 137.204 176.267C136.972 176.33 136.758 176.446 136.579 176.607C136.514 176.662 136.464 176.734 136.434 176.814C136.404 176.894 136.395 176.981 136.408 177.065L137.128 179.958C137.175 180.117 137.262 180.261 137.38 180.377C137.531 180.527 137.727 180.625 137.937 180.654C138.148 180.684 138.363 180.645 138.55 180.542C138.736 180.439 138.884 180.278 138.971 180.084C139.059 179.889 139.08 179.672 139.033 179.464H139.028Z" fill="#455A64"/>
<path d="M139.049 179.651C139.056 179.594 139.056 179.536 139.049 179.479C139.009 179.412 138.955 179.354 138.89 179.31C138.826 179.265 138.753 179.236 138.676 179.222C138.44 179.172 138.196 179.179 137.964 179.242C137.732 179.305 137.518 179.423 137.34 179.585C137.274 179.638 137.224 179.707 137.195 179.786C137.165 179.865 137.158 179.951 137.174 180.034C137.171 180.052 137.171 180.071 137.174 180.089C137.172 180.106 137.172 180.123 137.174 180.14C137.217 180.239 137.281 180.328 137.36 180.402C137.548 180.58 137.797 180.68 138.056 180.68C138.315 180.68 138.564 180.58 138.751 180.402C138.853 180.306 138.933 180.19 138.984 180.06C139.036 179.93 139.058 179.79 139.049 179.651Z" fill="#263238"/>
<path d="M137.456 84.7728C144.436 87.8522 145.258 91.6877 146.493 96.6521C147.727 101.616 152.45 112.19 154.3 116.968C156.149 121.746 156.557 122.971 154.708 129.442C152.858 135.914 147.617 148.594 147.617 148.594C147.617 148.594 131.907 98.8596 130.884 93.744C129.861 88.6284 130.47 82.9332 137.456 84.7728Z" fill="#FFBF9D"/>
<path d="M153.15 126.116C153.143 126.129 153.139 126.144 153.139 126.159C153.139 126.174 153.143 126.189 153.15 126.202C153.372 126.272 153.71 126.121 153.932 126.081C154.153 126.04 154.496 125.97 154.778 125.929C155.061 125.889 155.333 125.864 155.625 125.849C155.66 125.662 155.691 125.481 155.721 125.31C155.008 125.393 154.307 125.562 153.634 125.814C153.444 125.858 153.274 125.964 153.15 126.116ZM153.12 122.739C153.816 122.477 154.537 122.286 155.272 122.17C155.465 122.144 155.658 122.129 155.852 122.124C155.852 121.933 155.807 121.741 155.771 121.555C155.56 121.555 155.353 121.585 155.141 121.615C154.346 121.705 153.577 121.957 152.883 122.356C152.656 122.472 152.908 122.81 153.12 122.739ZM155.459 123.48C155.013 123.499 154.568 123.546 154.128 123.621C153.221 123.752 152.346 124.049 151.548 124.498C151.356 124.614 151.613 124.871 151.78 124.816C152.531 124.528 153.302 124.297 154.088 124.125C154.466 124.053 154.848 124.006 155.232 123.984C155.428 123.984 155.645 123.984 155.857 123.984C155.857 123.808 155.882 123.641 155.887 123.48C155.736 123.48 155.6 123.48 155.459 123.48Z" fill="#FFB188"/>
<path d="M148.584 115.839C145.733 110.26 143.25 104.501 141.15 98.5975L134.87 96.6521L132.789 100.654C137.219 115.668 147.617 148.589 147.617 148.589C147.617 148.589 148.393 146.709 149.456 144.053C149.456 144.053 150.857 132.421 151.472 127.215C152.087 122.008 150.605 119.634 148.584 115.839Z" fill="#FFB188"/>
<path d="M125.949 144.396C125.561 144.134 125.173 143.892 124.79 143.595C119.594 139.774 114.06 135.838 110.88 130.032L91.7279 138.036C94.9923 141.628 98.4694 145.021 102.141 148.196C105.24 151.008 114.665 154.869 120.789 157.949C126.912 161.028 129.483 162.555 131.025 161.688C132.829 160.721 135.042 150.575 125.949 144.396Z" fill="#FFBF9D"/>
<path d="M103.864 149.471C103.93 149.25 103.995 149.033 104.076 148.816C104.244 148.365 104.438 147.925 104.656 147.496C104.916 147.086 105.135 146.652 105.311 146.2C105.336 146.089 105.185 145.903 105.074 145.989C104.677 146.355 104.355 146.795 104.126 147.284C103.855 147.779 103.625 148.295 103.436 148.826C103.401 148.922 103.375 149.023 103.34 149.118L103.864 149.471Z" fill="#FFB188"/>
<path d="M105.865 150.484C106.068 149.73 106.341 148.995 106.682 148.292C106.975 147.697 107.336 147.137 107.755 146.624C108.047 146.258 108.373 145.921 108.728 145.616C109.02 145.379 109.328 145.167 109.595 144.905C109.665 144.834 109.564 144.648 109.464 144.673C108.72 144.907 108.052 145.335 107.528 145.913C106.963 146.476 106.483 147.118 106.102 147.818C105.69 148.581 105.369 149.39 105.144 150.227L105.825 150.62C105.84 150.595 105.84 150.54 105.865 150.484Z" fill="#FFB188"/>
<path d="M107.962 150.318C108.171 149.739 108.422 149.177 108.713 148.635C108.838 148.402 108.976 148.177 109.126 147.959C109.303 147.76 109.442 147.529 109.534 147.279C109.534 147.168 109.403 146.992 109.287 147.052C108.78 147.424 108.369 147.911 108.088 148.473C107.771 148.999 107.497 149.55 107.271 150.121C107.13 150.484 107.004 150.852 106.888 151.225L107.543 151.573C107.674 151.15 107.805 150.731 107.962 150.318Z" fill="#FFB188"/>
<path d="M118.238 156.694C118.51 154.773 119.44 153.006 120.869 151.694C120.869 151.694 125.259 153.534 127.134 155.222C129.009 156.91 130.455 160.635 129.286 161.829C126.6 161.839 122.976 159.193 118.238 156.694Z" fill="#FFC4C3"/>
<path opacity="0.3" d="M118.238 156.694C118.793 156.986 119.327 157.278 119.851 157.571C120.424 155.66 120.763 153.686 120.859 151.694C119.433 153.007 118.507 154.774 118.238 156.694Z" fill="white"/>
<path d="M126.312 113.586C129.387 118.626 134.114 127.698 134.17 128.868C134.482 135.485 134.104 142.4 134.104 149.557C134.104 156.714 134.044 161.94 137.184 166.693C140.026 170.977 145.248 172.156 145.989 167.474C146.634 163.467 147.037 155.313 147.617 148.604C148.196 141.896 149.733 132.179 150.137 126.751C150.54 121.323 146.971 115.996 144.567 108.975C142.481 102.871 140.712 95.1602 137.441 91.8893C134.17 88.6183 121.792 82.4897 117.281 80.1108L126.312 113.586Z" fill="#FFBF9D"/>
<path d="M149.779 127.169C149.391 127.197 149.002 127.197 148.614 127.169C147.808 127.088 147.009 126.943 146.225 126.736C146.024 126.696 146.074 126.983 146.195 127.048C146.987 127.411 147.845 127.608 148.715 127.628C149.148 127.661 149.583 127.661 150.016 127.628H150.056C150.056 127.462 150.081 127.305 150.091 127.149L149.779 127.169Z" fill="#FFB188"/>
<path d="M145.152 122.306C145.016 122.371 145.187 122.608 145.308 122.578C146.245 122.328 147.222 122.273 148.181 122.417C148.606 122.492 149.021 122.612 149.421 122.774L149.789 122.951C149.743 122.734 149.693 122.517 149.643 122.301C149.213 122.127 148.765 122.002 148.307 121.928C147.241 121.73 146.141 121.862 145.152 122.306Z" fill="#FFB188"/>
<path d="M147.002 124.06C146.237 124.03 145.472 124.094 144.724 124.251C144.094 124.392 143.171 124.548 142.758 125.098C142.758 125.098 142.758 125.184 142.783 125.184C143.134 125.173 143.482 125.112 143.816 125.002C144.179 124.911 144.542 124.831 144.91 124.775C146.27 124.557 147.662 124.64 148.987 125.017C149.377 125.131 149.757 125.273 150.126 125.441C150.126 125.184 150.126 124.937 150.081 124.664C149.804 124.564 149.522 124.473 149.249 124.397C148.516 124.195 147.762 124.082 147.002 124.06Z" fill="#FFB188"/>
<path d="M147.223 152.42C146.961 152.334 146.689 152.258 146.422 152.183C145.868 152.037 145.313 151.906 144.749 151.8C144.719 151.792 144.689 151.791 144.659 151.796C144.63 151.801 144.601 151.812 144.576 151.829C144.551 151.846 144.53 151.867 144.513 151.893C144.497 151.918 144.486 151.946 144.482 151.976C144.482 152.117 144.613 152.213 144.734 152.233C145.238 152.334 145.742 152.445 146.271 152.581L147.012 152.798L147.279 152.883L147.309 152.445L147.223 152.42Z" fill="#FFB188"/>
<path d="M145.545 150.585C146.115 150.755 146.674 150.96 147.218 151.2L147.4 151.281L147.445 150.686L147.385 150.656C146.805 150.423 146.21 150.228 145.605 150.071C145.007 149.916 144.399 149.798 143.786 149.718C143.139 149.593 142.476 149.581 141.825 149.683C141.705 149.683 141.76 149.9 141.861 149.92C142.501 150.046 143.156 150.081 143.796 150.192C144.386 150.29 144.97 150.421 145.545 150.585Z" fill="#FFB188"/>
<path d="M144.603 148.998C145.399 149.175 146.185 149.398 146.956 149.663C147.143 149.728 147.324 149.804 147.506 149.88C147.506 149.713 147.536 149.552 147.546 149.376L147.163 149.229C146.32 148.957 145.455 148.761 144.577 148.645C144.351 148.63 144.436 148.962 144.603 148.998Z" fill="#FFB188"/>
<path d="M146.911 157.928C143.957 155.081 140.863 156.094 140.863 156.094C140.496 158.503 140.359 160.942 140.455 163.377C140.666 166.784 142.914 168.452 144.633 168.744C146.351 169.037 146.578 165.675 146.911 157.928Z" fill="#FFC4C3"/>
<path opacity="0.3" d="M146.855 159.183C146.855 158.78 146.891 158.362 146.911 157.928C143.957 155.081 140.863 156.094 140.863 156.094C141.453 157.142 144.719 158.982 146.855 159.183Z" fill="white"/>
<path d="M139.104 92.7914C137.738 90.9266 135.692 89.8279 133.676 88.7998C132.537 88.2483 131.432 87.6272 130.37 86.94C130.309 86.8946 130.294 87.0257 130.329 87.061C131.927 88.4722 133.857 89.455 135.601 90.6343C137.513 91.8324 138.994 93.6083 139.83 95.7046C140.364 96.9192 140.807 98.1691 141.291 99.4039C141.327 99.4997 141.402 99.4392 141.392 99.3586C141.12 97.0704 140.475 94.6714 139.104 92.7914Z" fill="#FFB188"/>
<path d="M149.184 52.92C149.184 36.671 167.57 23.5015 190.25 23.5015C212.93 23.5015 231.336 36.666 231.336 52.92C231.336 69.174 212.945 82.3435 190.265 82.3435C188.897 82.3435 187.553 82.2948 186.233 82.1974C181.747 90.6293 174.137 92.0758 168.19 91.4054C170.295 90.419 172.039 88.7975 173.175 86.7688C174.312 84.7402 174.784 82.4065 174.525 80.0957C159.637 75.6655 149.184 65.1672 149.184 52.92Z" fill="white"/>
<path d="M168.114 91.8238C168.021 91.8137 167.934 91.7731 167.867 91.7084C167.799 91.6436 167.755 91.5584 167.741 91.4659C167.726 91.3729 167.742 91.2777 167.787 91.1947C167.832 91.1118 167.902 91.046 167.988 91.0073C169.965 90.0776 171.61 88.5651 172.702 86.6731C173.794 84.781 174.281 82.6001 174.097 80.4233C158.694 75.7411 148.756 64.9706 148.756 52.92C148.756 36.4644 167.373 23.0731 190.25 23.0731C213.127 23.0731 231.749 36.4594 231.749 52.92C231.749 69.3806 213.132 82.7719 190.25 82.7719C189.01 82.7719 187.73 82.7266 186.455 82.6459C182.216 90.3773 175.488 91.975 170.659 91.975C169.809 91.9723 168.959 91.9218 168.114 91.8238ZM186.258 81.7438C187.609 81.8395 188.96 81.8899 190.29 81.8899C212.698 81.8899 230.928 68.8817 230.928 52.8948C230.928 36.9079 212.698 23.9047 190.29 23.9047C167.882 23.9047 149.612 36.9281 149.612 52.92C149.612 64.6531 159.43 75.1615 174.626 79.6874C174.707 79.712 174.779 79.76 174.833 79.8255C174.887 79.891 174.92 79.971 174.928 80.0554C175.155 82.2037 174.781 84.3727 173.849 86.3214C172.916 88.27 171.462 89.9217 169.646 91.093C174.344 91.3097 181.511 90.1202 185.83 82.021C185.866 81.9524 185.921 81.8952 185.987 81.8552C186.054 81.8153 186.13 81.7942 186.208 81.7942L186.258 81.7438Z" fill="#E0E0E0"/>
<path d="M200.088 72.576L201.701 72.7927L201.585 73.7352H196.192L196.313 72.7927L197.886 72.5558L197.019 69.2294H192.397L191.233 72.5558L193.007 72.7927L192.886 73.7352H188.244L188.36 72.7927L189.837 72.5558L194.373 60.0617L196.54 59.8248L200.088 72.576ZM196.706 68.04L195.048 61.6392H194.988L192.78 68.04H196.706Z" fill="#E0E0E0"/>
<path d="M171.678 61.488L171.914 54.7042L170.967 54.4874L171.027 53.9834H172.615L172.781 54.0994L172.655 57.4711L172.383 59.8651H172.464L172.842 58.459C173.21 57.073 173.673 56.4732 174.591 56.4732C175.644 56.4732 176.103 57.2947 176.103 58.6404C176.103 60.7622 175.069 61.9214 173.633 61.9214C172.957 61.9245 172.289 61.7764 171.678 61.488ZM172.943 59.9206L172.605 61.0898C172.919 61.2423 173.264 61.3232 173.613 61.3267C174.56 61.3267 175.175 60.2532 175.175 58.7462C175.175 58.1767 175.175 57.2342 174.45 57.2342C173.653 57.2393 173.452 58.1969 172.943 59.9407V59.9206Z" fill="#E0E0E0"/>
<path d="M164.682 44.6998C164.688 44.7886 164.676 44.8778 164.646 44.9616C164.615 45.0454 164.568 45.1218 164.506 45.186C164.444 45.2502 164.37 45.3006 164.287 45.3341C164.205 45.3675 164.116 45.3832 164.027 45.3802C163.885 45.3788 163.746 45.3354 163.629 45.2556C163.511 45.1758 163.42 45.0631 163.367 44.9316L163.578 44.6796C163.976 44.231 163.578 43.974 163.074 43.974C162.137 43.974 161.598 44.8308 161.598 46.3781C161.598 47.3458 161.965 48.1219 162.792 48.1219C163.064 48.0932 163.326 48.0095 163.565 47.8761C163.803 47.7427 164.012 47.5623 164.178 47.3458L164.551 47.7338C164.334 48.0583 164.044 48.3279 163.704 48.5212C163.365 48.7145 162.985 48.8263 162.595 48.8477C161.275 48.8477 160.579 47.8397 160.579 46.4134C160.579 44.6594 161.537 43.3894 163.099 43.3894C163.997 43.3742 164.682 43.848 164.682 44.6998Z" fill="#E0E0E0"/>
<path d="M195.915 40.2192C196.384 41.2272 195.638 41.9983 194.937 42.5527L194.04 43.2785C194.383 43.8732 195.048 44.4478 195.844 44.095C196.29 43.8452 196.621 43.4311 196.767 42.9408L197.24 43.1374C197.162 43.493 197.004 43.8264 196.779 44.1126C196.554 44.3989 196.267 44.6306 195.94 44.7905C194.746 45.3398 193.672 44.6947 193.087 43.4246C192.357 41.832 192.714 40.2746 194.045 39.6648C194.957 39.2364 195.587 39.5086 195.915 40.2192ZM194.206 40.2192C193.44 40.577 193.289 41.5195 193.783 42.7392L194.604 42.0689C195.179 41.6052 195.381 41.2171 195.108 40.6174C194.937 40.2646 194.63 40.0126 194.206 40.2091V40.2192Z" fill="#E0E0E0"/>
<path d="M191.288 50.2841L190.683 51.7457L192.866 52.5118L192.457 53.4643L190.341 52.7234L188.325 57.7937C187.584 59.6383 186.384 61.4527 185.144 62.2188C184.911 62.3921 184.641 62.5083 184.355 62.5582C184.068 62.6081 183.774 62.5902 183.496 62.5061C182.851 62.2793 182.549 61.8106 182.69 61.3066C182.84 60.9055 183.118 60.5653 183.481 60.3389L184.071 60.8731C184.545 61.3066 185.054 61.2914 185.437 60.5203C185.684 60.0163 185.87 59.5426 186.132 58.8974L188.768 52.169L187.407 51.665L187.826 50.8385L189.151 51.161L189.504 50.4C190.336 48.384 191.964 47.245 194.015 47.9707C195.023 48.3235 196.142 49.2408 195.673 50.5714C195.637 50.7046 195.572 50.8283 195.483 50.934C195.394 51.0396 195.283 51.1246 195.158 51.1831C195.032 51.2416 194.896 51.2722 194.758 51.2727C194.62 51.2733 194.483 51.2438 194.358 51.1862C194.185 51.1289 194.028 51.0333 193.898 50.9068C193.768 50.7802 193.669 50.6259 193.607 50.4554L193.924 50.0623C194.428 49.4374 194.342 48.9838 193.637 48.7368C192.568 48.384 191.767 49.135 191.288 50.2841Z" fill="#E0E0E0"/>
<path d="M208.656 51.7507L207.855 52.799C206.6 54.4219 205.677 55.0973 204.327 54.5328C202.865 53.923 202.815 52.3354 203.495 50.7074C204.553 48.1522 206.519 46.9274 208.464 47.7238C209.062 47.9723 209.609 48.3295 210.077 48.7771L210.743 48.6511L211.095 48.9586L208.429 54.7596C207.451 56.8865 205.793 58.6454 203.087 57.5266C202.129 57.1284 201.146 56.3371 201.575 55.3392C201.613 55.2096 201.678 55.0894 201.765 54.986C201.852 54.8827 201.96 54.7986 202.081 54.7389C202.202 54.6792 202.334 54.6453 202.469 54.6394C202.604 54.6334 202.739 54.6554 202.865 54.7042C203.012 54.7648 203.145 54.8566 203.254 54.9731C203.362 55.0897 203.445 55.2283 203.495 55.3795L203.208 55.7273C202.739 56.2313 202.845 56.6345 203.596 56.947C205.017 57.5366 206.317 56.4883 207.406 54.427L208.777 51.8263L208.656 51.7507ZM208.409 50.9947L209.548 49.5281C209.166 49.138 208.713 48.825 208.212 48.6058C206.932 48.0715 205.551 49.1954 204.74 51.1258C204.498 51.7003 203.863 53.2325 204.916 53.6458C205.97 54.059 206.847 52.9805 208.394 50.9947H208.409Z" fill="#E0E0E0"/>
<path d="M162.187 59.7391C161.827 59.9131 161.498 60.1466 161.214 60.4296L160.574 59.5879C161.109 58.9228 161.802 58.4028 162.59 58.0759C163.689 57.6576 164.531 58.0759 164.974 59.5879L166.774 65.52C166.93 66.024 167.096 66.3113 167.509 66.155C167.877 65.9615 168.178 65.661 168.371 65.2932L169.132 65.9434C168.713 66.7878 168.008 67.4559 167.142 67.8283C165.821 68.3323 165.166 67.7326 164.823 66.6036L162.953 60.3036C162.817 59.8198 162.616 59.5778 162.187 59.7391ZM161.31 53.5752C161.571 53.4821 161.852 53.4678 162.121 53.534C162.389 53.6003 162.632 53.7442 162.819 53.9477C163.006 54.1513 163.129 54.4054 163.173 54.6784C163.216 54.9514 163.178 55.2312 163.063 55.4827C162.948 55.7342 162.762 55.9463 162.528 56.0925C162.293 56.2388 162.021 56.3126 161.744 56.3048C161.468 56.297 161.2 56.208 160.974 56.0488C160.748 55.8896 160.574 55.6673 160.474 55.4098C160.399 55.2352 160.362 55.0471 160.365 54.8575C160.367 54.6678 160.409 54.4807 160.488 54.3081C160.566 54.1355 160.68 53.9812 160.822 53.855C160.963 53.7288 161.13 53.6335 161.31 53.5752Z" fill="#E0E0E0"/>
<path d="M189.232 37.3414C188.451 37.3414 188.224 36.8827 188.279 36.2578L188.607 32.5282C188.683 31.6008 188.526 31.3135 188.103 31.3135C187.599 31.3135 187.382 31.6814 186.974 32.8255L185.462 37.1398H184.388L184.595 31.6966C184.595 31.3337 184.519 31.1926 184.242 31.1926C183.974 31.2269 183.714 31.3052 183.471 31.4244L183.249 30.7742C183.716 30.5226 184.232 30.3748 184.761 30.3408C185.507 30.3408 185.769 30.7994 185.674 31.6764L185.346 35.1691H185.442L186.394 32.3316C186.863 30.9406 187.402 30.3156 188.41 30.3156C189.575 30.3156 189.887 31.0615 189.756 32.5786L189.469 35.9503C189.428 36.3434 189.469 36.5148 189.771 36.5148C190.041 36.4882 190.296 36.3791 190.502 36.2023L190.804 36.671C190.366 37.0585 189.815 37.2937 189.232 37.3414Z" fill="#E0E0E0"/>
<path d="M216.367 40.3754C218.146 40.3754 219.17 41.6959 219.17 43.7069C219.17 45.7178 218.267 47.5877 215.974 47.5877C214.195 47.5877 213.202 46.2672 213.202 44.231C213.202 42.1949 214.064 40.3754 216.367 40.3754ZM217.904 43.6918C217.904 42.2201 217.486 41.1718 216.261 41.1718C214.815 41.1718 214.482 42.6838 214.482 44.3016C214.482 45.8136 214.986 46.8216 216.055 46.8216C217.501 46.7914 217.904 45.3197 217.904 43.6918Z" fill="#E0E0E0"/>
<path d="M172.277 32.4878C175.664 31.2631 178.996 32.6542 180.528 36.8878C182.206 41.5195 180.558 44.6494 177.151 46.3126L177.206 46.4738C178.344 46.2323 179.526 46.3002 180.629 46.6704C182.367 47.1744 182.997 47.1744 182.942 46.3831L182.881 45.6523C184.111 45.2038 184.898 45.607 185.18 46.3932C185.538 47.4012 184.933 48.2378 184.01 48.5705C183.002 48.9384 181.808 48.7318 180.331 48.2378C178.396 47.5524 177.685 47.2853 176.516 47.7338C175.669 48.0362 175.16 48.5201 174.298 49.3567L173.376 48.4092C173.849 47.902 174.384 47.4566 174.969 47.0837L174.923 46.9627C171.713 47.2802 169.379 45.2542 168.336 42.3713C166.345 36.8726 168.936 33.7025 172.277 32.4878ZM176.4 45.4406C178.779 44.5788 179.817 41.9126 178.416 38.0117C177.141 34.4837 174.938 33.0019 172.459 33.899C170.186 34.7256 168.825 36.923 170.418 41.3431C171.698 44.856 173.784 46.3932 176.4 45.4406Z" fill="#E0E0E0"/>
<path d="M207.048 64.7942C206.84 64.8215 206.637 64.8828 206.448 64.9757L206.277 64.4717C206.639 64.2795 207.038 64.1662 207.446 64.139C208.026 64.139 208.223 64.4918 208.162 65.1773L208.016 66.6238H208.081L208.631 65.3285C208.963 64.5322 209.22 64.129 209.82 64.129C209.918 64.1169 210.018 64.1257 210.112 64.1548C210.207 64.1839 210.294 64.2327 210.368 64.2979C210.442 64.3631 210.502 64.4433 210.543 64.5332C210.584 64.6231 210.606 64.7206 210.606 64.8194C210.606 64.9707 210.56 65.1183 210.475 65.2432C210.389 65.3681 210.268 65.4645 210.128 65.52L209.891 65.2478C209.78 65.1067 209.699 65.021 209.548 65.021C209.397 65.021 209.241 65.1874 208.913 65.9081C208.162 67.6015 208.016 67.9241 207.966 68.5994L207.875 69.4361H207.144L207.346 65.1974C207.335 64.9152 207.265 64.7942 207.048 64.7942Z" fill="#E0E0E0"/>
<path d="M199.251 33.0422C200.375 32.7802 200.889 33.3396 201.02 34.3174L201.766 39.6094C201.943 40.7887 202.129 41.1919 202.719 41.0558C203.309 40.9198 203.495 40.2948 203.661 38.6064L204.276 32.1451L206.06 31.7318L207.542 39.4531C207.638 39.9571 207.799 40.1486 208.187 40.0579C208.541 39.9266 208.871 39.7394 209.165 39.5035L209.709 40.3452C209.13 40.8712 208.441 41.2635 207.693 41.4943C206.605 41.7463 206.05 41.197 205.879 39.937L205.194 34.897H205.042L204.74 39.191C204.584 41.207 204.085 42.3108 202.613 42.6535C200.995 43.0265 200.305 42.0437 200.007 40.0176L199.297 35.1238C199.236 34.6198 199.095 34.3375 198.692 34.4282C198.342 34.5485 198.035 34.7694 197.81 35.0633L197.23 34.403C197.752 33.7571 198.457 33.283 199.251 33.0422Z" fill="#E0E0E0"/>
<path d="M181.022 68.2013C180.864 69.0824 180.645 69.9514 180.366 70.8019C180.104 71.6587 179.994 72.2232 180.739 72.3492C182.004 72.5609 183.103 70.4189 183.375 69.048C183.491 68.4482 183.375 68.2819 183.063 68.0954L182.614 67.8485C182.645 67.1278 183.048 66.6943 183.678 66.8002C184.489 66.9362 184.726 67.5713 184.575 68.4734C184.232 70.4894 182.685 73.7604 180.321 73.3622C179.953 73.3179 179.618 73.1309 179.387 72.8414C179.156 72.552 179.048 72.1833 179.086 71.815C178.838 72.1875 178.482 72.4766 178.067 72.6447C177.652 72.8128 177.196 72.8521 176.758 72.7574C176.062 72.6415 174.994 72.2232 175.402 70.3735L176.158 66.901C176.244 66.4927 176.022 66.397 175.654 66.4322L175.19 66.5028L175.09 65.7821C175.627 65.6124 176.194 65.5591 176.753 65.6258C176.908 65.6357 177.059 65.6814 177.194 65.7595C177.329 65.8375 177.444 65.9457 177.53 66.0756C177.616 66.2055 177.67 66.3535 177.689 66.5081C177.709 66.6627 177.692 66.8196 177.64 66.9665L176.904 70.303C176.707 71.1698 176.702 71.6587 177.322 71.7646C178.608 71.9813 179.258 70.2526 179.6 68.2063C179.698 67.6309 179.762 67.0503 179.792 66.4675L181.178 66.5431C181.179 67.0996 181.127 67.6549 181.022 68.2013Z" fill="#E0E0E0"/>
<path d="M217.421 58.6606L221.004 54.6588L219.769 54.0994L220.016 53.4089L223.655 54.2203L223.378 54.9662H222.113L217.577 59.8399L216.785 62.8135L218.161 63.3175L217.904 64.0332L213.726 63.1058L213.978 62.3851L215.263 62.4658L216.095 59.5123L214.336 53.1821L213.252 52.6781L213.53 51.9473L217.562 52.8394L217.305 53.5752L216.009 53.4946L217.365 58.6253L217.421 58.6606Z" fill="#E0E0E0"/>
</svg>
