<svg width="254" height="254" viewBox="0 0 254 254" fill="none" xmlns="http://www.w3.org/2000/svg">
<path d="M40.8127 125.369C-6.76147 152.837 -6.76147 197.373 40.8127 224.841C88.3869 252.308 165.527 252.308 213.101 224.841C260.675 197.373 260.68 152.837 213.101 125.369C165.522 97.9017 88.392 97.9017 40.8127 125.369Z" fill="#FAFAFA"/>
<path d="M232.014 102.85C229.169 103.464 224.815 107.279 222.966 114.717C221.55 120.138 221.328 125.802 222.316 131.318C222.89 131.735 223.454 132.151 224.013 132.578L224.449 132.908C225.035 133.358 225.609 133.811 226.172 134.264L226.578 134.6C226.7 133.132 226.903 131.313 227.243 129.103C227.365 128.341 227.497 127.615 227.635 126.924C229.733 116.764 234.315 114.381 236.423 109.901C238.795 104.877 235.204 102.154 232.014 102.85Z" fill="#E0E0E0"/>
<path d="M232.77 105.745C228.325 109.809 223.306 120.477 224.449 132.908L224.028 132.588C223.012 120.167 228.051 109.515 232.506 105.456C232.525 105.437 232.548 105.421 232.573 105.411C232.598 105.4 232.624 105.395 232.651 105.395C232.678 105.395 232.705 105.4 232.73 105.411C232.754 105.421 232.777 105.437 232.796 105.456C232.814 105.476 232.827 105.5 232.835 105.526C232.843 105.552 232.847 105.579 232.844 105.606C232.842 105.633 232.834 105.659 232.821 105.683C232.809 105.707 232.791 105.728 232.77 105.745Z" fill="white"/>
<path d="M233.014 128.793C231.162 131.111 229.781 133.768 228.95 136.616C228.574 136.291 228.198 135.961 227.817 135.641L227.431 135.316C227.147 135.072 226.862 134.833 226.568 134.6L226.161 134.264C226.324 131.331 226.857 128.429 227.746 125.628C228.762 122.87 230.357 119.807 231.754 118.323C235.224 114.645 239.258 114.3 240.68 117.307C242.102 120.315 236.682 123.952 233.014 128.793Z" fill="#F0F0F0"/>
<path d="M236.464 119.71C233.583 121.458 228.691 129.103 227.828 135.641L227.442 135.316C228.412 128.666 233.279 121.168 236.255 119.36C236.278 119.346 236.304 119.337 236.33 119.333C236.357 119.329 236.384 119.331 236.41 119.337C236.436 119.344 236.46 119.356 236.482 119.372C236.503 119.388 236.521 119.408 236.535 119.431C236.549 119.454 236.558 119.479 236.561 119.506C236.565 119.532 236.564 119.559 236.557 119.585C236.551 119.611 236.539 119.636 236.523 119.657C236.507 119.678 236.487 119.697 236.464 119.71Z" fill="white"/>
<path d="M35.4888 128.646C34.8386 129.073 34.1934 129.504 33.5635 129.936C32.771 130.485 31.9955 131.035 31.2369 131.587C31.2545 126.279 30.2311 121.018 28.2244 116.103C27.5008 114.334 26.5969 112.643 25.5269 111.059C20.7619 104.211 21.595 100.863 24.4754 99.883C27.3557 98.9025 34.9249 103.215 36.1594 114.722C36.6979 119.807 36.0679 125.263 35.4888 128.646Z" fill="#F0F0F0"/>
<path d="M32.6797 129.637H32.6441C32.5778 129.623 32.5194 129.584 32.4815 129.528C32.4435 129.472 32.4289 129.403 32.4409 129.337C34.4729 118.725 30.7544 106.807 26.162 101.844C26.1382 101.82 26.1193 101.792 26.1064 101.761C26.0936 101.73 26.0869 101.697 26.0869 101.663C26.0869 101.63 26.0936 101.597 26.1064 101.566C26.1193 101.535 26.1382 101.507 26.162 101.483C26.2104 101.436 26.2751 101.41 26.3424 101.41C26.4097 101.41 26.4744 101.436 26.5227 101.483C31.1963 106.533 34.9758 118.648 32.9286 129.423C32.919 129.482 32.8887 129.536 32.8432 129.575C32.7976 129.614 32.7397 129.636 32.6797 129.637Z" fill="white"/>
<path d="M33.9547 128.163C33.8843 128.766 33.7533 129.36 33.5635 129.936C32.771 130.485 31.9955 131.035 31.2369 131.587C29.977 132.508 28.7646 133.443 27.5996 134.391L27.0916 134.798C25.2492 136.312 23.5237 137.859 21.9151 139.441C21.3664 139.72 19.9085 138.466 19.5021 138.166C18.8039 137.636 18.253 136.937 17.9019 136.134C17.5132 135.222 17.4156 134.213 17.6225 133.243C17.7356 132.726 17.8833 132.217 18.0644 131.719C18.2321 131.211 18.3997 130.749 18.5724 130.261C18.7722 129.793 18.8725 129.288 18.8671 128.778C18.7858 127.762 17.9273 127.005 17.1399 126.355C16.2712 125.633 15.3771 124.694 15.4431 123.474C15.5561 122.532 15.9776 121.653 16.642 120.975C17.2618 120.269 17.9882 119.649 18.5521 118.897C18.9934 118.376 19.2442 117.721 19.2633 117.038C19.2269 116.617 19.106 116.208 18.9077 115.834C18.4536 115.053 18.0612 114.238 17.7342 113.396C17.4802 112.527 17.5767 111.47 18.2727 110.891C18.5815 110.685 18.9284 110.542 19.293 110.472C19.6576 110.401 20.0326 110.404 20.3961 110.48C21.0837 110.599 21.7371 110.866 22.3113 111.262C24.1909 112.436 25.1815 114.783 27.1881 115.712C27.5284 115.865 27.8821 115.986 28.2447 116.073C28.707 116.2 29.1845 116.296 29.6417 116.444C30.0599 116.546 30.4522 116.734 30.7934 116.996C31.1346 117.259 31.4171 117.59 31.6229 117.968C32.2986 119.492 30.8101 121.295 31.2572 122.921C31.5366 123.937 32.2732 124.541 32.9641 125.278C33.1334 125.456 33.2896 125.646 33.4314 125.847C33.5334 125.984 33.6251 126.128 33.7057 126.279C33.9875 126.864 34.0747 127.525 33.9547 128.163Z" fill="#E0E0E0"/>
<path d="M27.5995 134.391L27.0915 134.798C27.4268 125.684 23.7235 115.905 20.7771 112.852C20.7545 112.83 20.7366 112.803 20.7244 112.774C20.7121 112.745 20.7058 112.714 20.7058 112.682C20.7058 112.65 20.7121 112.619 20.7244 112.59C20.7366 112.561 20.7545 112.534 20.7771 112.512C20.8226 112.467 20.8837 112.443 20.9473 112.443C21.0109 112.443 21.0719 112.467 21.1175 112.512C24.0943 115.58 27.8027 125.273 27.5995 134.391Z" fill="white"/>
<path d="M26.2787 124.907C26.2552 124.912 26.231 124.912 26.2076 124.907C23.9661 124.171 21.6513 123.68 19.3038 123.444C19.2725 123.441 19.2419 123.433 19.2139 123.418C19.1859 123.404 19.161 123.384 19.1407 123.36C19.1204 123.336 19.1051 123.308 19.0956 123.278C19.0861 123.248 19.0826 123.216 19.0854 123.185C19.0872 123.153 19.0957 123.121 19.1102 123.093C19.1247 123.064 19.145 123.039 19.1698 123.018C19.1946 122.998 19.2234 122.982 19.2543 122.973C19.2852 122.965 19.3177 122.962 19.3496 122.966C21.7394 123.204 24.0956 123.704 26.3752 124.46C26.4265 124.482 26.4685 124.522 26.4943 124.571C26.52 124.621 26.5279 124.678 26.5166 124.733C26.5052 124.788 26.4754 124.837 26.4321 124.872C26.3888 124.908 26.3346 124.927 26.2787 124.927V124.907Z" fill="white"/>
<path d="M118.964 127.544L48.7682 168.077C47.6404 168.727 47.6404 169.784 48.7682 170.439L145.207 225.963C145.841 226.284 146.541 226.451 147.252 226.451C147.962 226.451 148.662 226.284 149.296 225.963L219.492 185.42C220.625 184.77 220.625 183.713 219.492 183.058L123.053 127.544C122.419 127.223 121.719 127.056 121.008 127.056C120.298 127.056 119.598 127.223 118.964 127.544Z" fill="#E0E0E0"/>
<path d="M82.1386 172.532C94.8386 179.959 94.8386 192.004 82.1386 199.431C69.4386 206.858 48.7935 206.858 36.0732 199.431C23.3528 192.004 23.3731 179.959 36.0732 172.532C48.7732 165.105 69.4183 165.1 82.1386 172.532Z" fill="#E0E0E0"/>
<path d="M24.5212 201.087C33.9751 208.016 43.9624 209.509 54.6862 210.007C61.7982 210.332 68.9102 209.85 75.9613 209.139C79.116 208.818 82.2605 208.443 85.3999 208.056C88.7934 207.635 92.1817 207.198 95.6056 207.305C98.105 207.381 100.772 207.65 103.109 208.793C105.369 209.895 106.888 212.197 106.004 214.762C105.576 215.863 104.916 216.86 104.069 217.683C101.397 220.502 98.0948 222.433 96.1848 225.984C95.5345 227.203 95.0164 229.169 95.7123 230.363C97.4192 233.279 103.332 233.274 106.009 233.167C113.462 232.862 117.963 231.704 122.992 229.86C130.719 227.02 136.83 222.748 142.403 218.445C144.059 217.165 145.816 216.002 147.483 214.701C147.762 214.478 147.899 215.138 147.696 215.316C145.029 217.668 142.072 219.613 139.36 221.879C136.833 223.978 134.092 225.803 131.181 227.325C125.39 230.373 121.89 232.044 114.981 233.507C113.259 233.873 109.164 234.401 107.406 234.523C104.474 234.788 101.521 234.706 98.6079 234.279C96.8502 233.995 94.4626 232.923 93.7921 230.977C93.0301 228.773 93.7921 226.604 94.9859 224.693C96.1922 222.893 97.6653 221.286 99.3547 219.928C100.493 218.912 102.357 217.358 103.251 216.139C106.629 211.511 101.727 209.438 97.7646 208.991C94.6866 208.702 91.5863 208.752 88.519 209.139C85.471 209.509 82.2656 210.053 79.2328 210.393C72.3021 211.259 65.3232 211.681 58.3387 211.658C54.9199 211.618 50.5816 211.333 47.0916 210.947C35.8801 209.718 26.8072 205.176 23.0074 200.599C22.5857 200.091 21.9406 199.045 22.2657 198.872C22.9296 199.695 23.6865 200.438 24.5212 201.087Z" fill="#B7E0D8"/>
<path d="M219.415 198.318C217.305 198.401 215.256 199.045 213.477 200.182C212.152 201.12 211.134 202.428 210.551 203.942C209.484 206.522 209.535 209.23 208.239 211.785C206.944 214.34 203.434 216.454 198.679 216.957C196.687 217.155 194.677 217.029 192.725 216.586C195.367 214.62 197.048 212.181 195.839 209.697C195.398 208.853 194.758 208.129 193.975 207.586C193.192 207.044 192.289 206.7 191.343 206.583C188.803 206.228 186.162 207.63 184.887 208.747C181.879 211.394 184.521 214.803 188.534 216.54C188.905 216.703 189.296 216.845 189.692 216.982C186.792 218.665 183.631 219.853 180.34 220.497C176.074 221.419 171.666 221.481 167.376 220.68C162.945 219.727 158.824 217.68 155.387 214.727C154.61 214.092 153.822 213.467 152.999 212.852C152.684 212.618 151.414 212.669 151.699 213.06C153.97 216.2 158.145 219.156 163.271 220.899C167.609 222.357 172.745 222.641 177.602 222.047C182.021 221.546 186.31 220.232 190.251 218.171C190.652 217.952 191.044 217.719 191.43 217.48C195.271 218.374 199.281 218.246 203.058 217.109C207.599 215.687 209.931 213.142 210.85 210.292C211.734 207.543 211.567 204.633 213.517 202.027C214.681 200.462 216.779 199.217 219.801 199.004C222.145 198.766 224.5 199.33 226.482 200.604C227.266 201.13 227.877 201.876 228.239 202.748C228.275 202.839 228.656 202.956 228.656 202.804C228.6 200.055 224.028 198.013 219.415 198.318ZM186.751 213.558C185.583 212.308 185.064 210.779 186.243 209.469C186.927 208.789 187.753 208.269 188.661 207.945C189.142 207.722 189.657 207.584 190.185 207.538C190.729 207.552 191.26 207.699 191.734 207.965C193.507 208.89 194.274 210.342 194.203 211.694C194.122 213.218 192.989 214.635 191.419 215.849C191.298 215.946 191.16 216.032 191.033 216.129C189.42 215.623 187.952 214.738 186.751 213.548V213.558Z" fill="#455A64"/>
<path d="M123.231 128.245L55.3721 163.993L53.9751 166.187V167.955C53.9885 168.413 54.1254 168.858 54.3713 169.245C54.6172 169.631 54.963 169.944 55.3721 170.15L144.816 221.803C145.533 222.183 146.333 222.382 147.145 222.382C147.957 222.382 148.757 222.183 149.474 221.803L215.844 183.485V181.717L123.231 128.245Z" fill="#263238"/>
<path d="M147.147 220.614C146.333 220.627 145.529 220.427 144.816 220.035L55.3721 168.382C54.9549 168.186 54.602 167.876 54.3548 167.488C54.1076 167.099 53.9763 166.648 53.9763 166.187C53.9763 165.726 54.1076 165.275 54.3548 164.887C54.602 164.498 54.9549 164.188 55.3721 163.993L120.244 126.522L215.844 181.717L149.474 220.035C148.762 220.427 147.96 220.626 147.147 220.614Z" fill="#B7E0D8"/>
<path d="M120.244 121.336L56.0833 158.379L55.4229 159.299V166.187C55.4411 166.385 55.5119 166.575 55.628 166.737C55.7441 166.898 55.9013 167.026 56.0833 167.107L145.552 218.76C146.045 219.013 146.591 219.145 147.145 219.145C147.699 219.145 148.245 219.013 148.737 218.76L212.903 181.717V174.833L120.244 121.336Z" fill="#EBEBEB"/>
<path d="M212.908 174.833L212.105 175.296L201.676 181.326L199.735 182.448L148.742 211.877C148.249 212.127 147.703 212.257 147.15 212.257C146.596 212.257 146.051 212.127 145.557 211.877L56.0782 160.218C55.2044 159.71 55.2044 158.882 56.0782 158.374L56.9316 157.866L120.244 121.336L212.11 174.371L212.303 174.488L212.908 174.833Z" fill="#F0F0F0"/>
<path d="M147.142 212.258V219.146C146.589 219.158 146.043 219.025 145.557 218.76L56.0782 167.102C55.8968 167.021 55.7404 166.893 55.6252 166.731C55.51 166.569 55.4401 166.38 55.4229 166.182V159.299C55.4426 159.496 55.5135 159.684 55.6284 159.845C55.7434 160.007 55.8984 160.135 56.0782 160.218L145.557 211.877C146.043 212.14 146.59 212.272 147.142 212.258Z" fill="#E0E0E0"/>
<path d="M212.908 173.914L201.351 180.584L199.542 181.6L148.742 210.932C148.249 211.182 147.703 211.313 147.15 211.313C146.596 211.313 146.051 211.182 145.557 210.932L65.4304 164.699C64.7091 164.302 64.0385 163.911 63.3984 163.535C60.1371 161.549 58.1762 159.776 56.9163 157.881L56.7639 157.648C56.6629 157.505 56.5936 157.342 56.5607 157.17C56.5061 156.808 56.5919 156.438 56.8006 156.137C57.0092 155.836 57.325 155.626 57.6834 155.55C59.7837 154.938 61.8094 154.094 63.7235 153.035L63.8048 152.989L120.244 120.396L212.908 173.914Z" fill="white"/>
<path opacity="0.1" d="M200.944 173.106C200.127 173.584 200.127 174.356 200.944 174.833C201.405 175.069 201.915 175.191 202.433 175.191C202.95 175.191 203.461 175.069 203.921 174.833C204.744 174.356 204.744 173.584 203.921 173.106C203.461 172.871 202.95 172.748 202.433 172.748C201.915 172.748 201.405 172.871 200.944 173.106Z" fill="black"/>
<path d="M210.505 167.528C209.372 166.873 207.965 166.975 206.502 167.808C204.262 169.108 202.316 172.009 201.473 175.047C201.827 175.16 202.199 175.205 202.57 175.179C203.347 172.471 205.07 169.921 207.056 168.763C207.606 168.424 208.234 168.231 208.88 168.204C209.257 168.202 209.628 168.298 209.956 168.483C210.912 169.037 211.48 170.383 211.48 172.171C211.481 172.467 211.464 172.762 211.43 173.055L212.471 173.655C212.546 173.164 212.583 172.668 212.583 172.171C212.568 169.977 211.836 168.285 210.505 167.528Z" fill="#263238"/>
<path d="M212.344 174.244C212.334 174.33 212.317 174.415 212.293 174.498L212.1 174.381L212.344 174.244Z" fill="#263238"/>
<path opacity="0.1" d="M191.984 167.93C191.166 168.407 191.166 169.179 191.984 169.652C192.443 169.887 192.953 170.01 193.469 170.01C193.986 170.01 194.495 169.887 194.955 169.652C195.783 169.179 195.783 168.407 194.955 167.93C194.495 167.694 193.986 167.571 193.469 167.571C192.953 167.571 192.443 167.694 191.984 167.93Z" fill="black"/>
<path d="M201.544 162.352C200.406 161.696 199.004 161.798 197.536 162.631C195.296 163.932 193.35 166.832 192.507 169.87C192.861 169.981 193.233 170.026 193.604 170.002C194.381 167.295 196.103 164.739 198.09 163.586C198.639 163.245 199.267 163.053 199.913 163.027C200.29 163.025 200.662 163.122 200.99 163.307C201.945 163.855 202.514 165.207 202.514 166.99C202.515 167.285 202.498 167.58 202.463 167.874L203.505 168.478C203.579 167.986 203.617 167.488 203.617 166.99C203.601 164.8 202.849 163.109 201.544 162.352Z" fill="#263238"/>
<path opacity="0.1" d="M183.012 162.753C182.194 163.225 182.194 163.998 183.012 164.475C183.473 164.711 183.983 164.833 184.501 164.833C185.018 164.833 185.528 164.711 185.989 164.475C186.812 163.998 186.812 163.225 185.989 162.753C185.528 162.518 185.018 162.395 184.501 162.395C183.983 162.395 183.473 162.518 183.012 162.753Z" fill="black"/>
<path d="M192.573 157.17C191.44 156.515 190.033 156.621 188.57 157.45C186.324 158.755 184.384 161.651 183.535 164.694C183.891 164.802 184.262 164.847 184.633 164.826C185.415 162.118 187.137 159.563 189.123 158.41C189.672 158.067 190.301 157.873 190.947 157.846C191.325 157.843 191.697 157.941 192.024 158.13C192.979 158.679 193.548 160.025 193.548 161.813C193.549 162.109 193.532 162.404 193.497 162.697L194.544 163.302C194.616 162.809 194.653 162.311 194.656 161.813C194.635 159.624 193.883 157.927 192.573 157.17Z" fill="#263238"/>
<path opacity="0.1" d="M174.046 157.577C173.228 158.049 173.228 158.821 174.046 159.299C174.507 159.534 175.017 159.657 175.534 159.657C176.052 159.657 176.562 159.534 177.023 159.299C177.846 158.821 177.846 158.049 177.023 157.577C176.562 157.341 176.052 157.218 175.534 157.218C175.017 157.218 174.507 157.341 174.046 157.577Z" fill="black"/>
<path d="M183.607 151.994C182.474 151.338 181.067 151.445 179.604 152.278C177.358 153.579 175.418 156.479 174.569 159.517C174.924 159.625 175.296 159.67 175.667 159.649C176.449 156.942 178.171 154.386 180.157 153.233C180.706 152.892 181.335 152.699 181.981 152.674C182.357 152.671 182.726 152.768 183.053 152.954C184.013 153.502 184.577 154.849 184.577 156.637C184.578 156.932 184.561 157.227 184.526 157.521L185.573 158.125C185.645 157.632 185.682 157.135 185.684 156.637C185.669 154.432 184.912 152.756 183.607 151.994Z" fill="#263238"/>
<path opacity="0.1" d="M165.1 152.4C164.282 152.878 164.282 153.65 165.1 154.127C165.56 154.363 166.069 154.485 166.586 154.485C167.103 154.485 167.612 154.363 168.072 154.127C168.9 153.65 168.9 152.878 168.072 152.4C167.611 152.168 167.102 152.047 166.586 152.047C166.07 152.047 165.561 152.168 165.1 152.4Z" fill="black"/>
<path d="M174.64 146.812C173.508 146.157 172.1 146.263 170.637 147.091C168.392 148.397 166.451 151.293 165.603 154.335C165.958 154.444 166.33 154.489 166.7 154.468C167.483 151.76 169.2 149.205 171.191 148.052C171.74 147.709 172.368 147.514 173.015 147.488C173.391 147.484 173.762 147.582 174.087 147.772C175.047 148.321 175.611 149.667 175.611 151.455C175.611 151.751 175.594 152.046 175.56 152.339L176.606 152.944C176.677 152.451 176.712 151.953 176.713 151.455C176.698 149.271 175.951 147.574 174.64 146.812Z" fill="#263238"/>
<path opacity="0.1" d="M156.109 147.218C155.291 147.696 155.291 148.468 156.109 148.946C156.569 149.181 157.079 149.304 157.597 149.304C158.114 149.304 158.625 149.181 159.085 148.946C159.908 148.468 159.908 147.696 159.085 147.218C158.625 146.983 158.114 146.86 157.597 146.86C157.079 146.86 156.569 146.983 156.109 147.218Z" fill="black"/>
<path d="M165.669 141.641C164.536 140.985 163.129 141.087 161.666 141.92C159.426 143.226 157.48 146.121 156.637 149.159C156.989 149.271 157.36 149.318 157.729 149.296C158.511 146.588 160.233 144.033 162.22 142.875C162.77 142.536 163.398 142.343 164.043 142.316C164.421 142.314 164.792 142.41 165.12 142.596C166.075 143.149 166.644 144.496 166.644 146.284C166.645 146.579 166.628 146.874 166.594 147.168L167.61 147.772C167.684 147.279 167.721 146.782 167.721 146.284C167.731 144.089 166.98 142.397 165.669 141.641Z" fill="#263238"/>
<path opacity="0.1" d="M147.142 142.042C146.33 142.519 146.33 143.292 147.142 143.769C147.603 144.005 148.113 144.127 148.631 144.127C149.148 144.127 149.658 144.005 150.119 143.769C150.942 143.292 150.942 142.519 150.119 142.042C149.658 141.806 149.148 141.684 148.631 141.684C148.113 141.684 147.603 141.806 147.142 142.042Z" fill="black"/>
<path d="M156.703 136.464C155.57 135.809 154.163 135.91 152.7 136.743C150.46 138.044 148.514 140.945 147.671 143.982C148.023 144.096 148.394 144.141 148.763 144.115C149.545 141.407 151.267 138.857 153.254 137.698C153.804 137.36 154.432 137.168 155.077 137.14C155.454 137.138 155.826 137.234 156.154 137.419C157.109 137.973 157.678 139.319 157.678 141.107C157.679 141.403 157.662 141.698 157.627 141.991L158.669 142.596C158.743 142.103 158.781 141.605 158.781 141.107C158.765 138.913 158.014 137.221 156.703 136.464Z" fill="#263238"/>
<path opacity="0.1" d="M138.176 136.865C137.358 137.343 137.358 138.115 138.176 138.593C138.637 138.828 139.147 138.951 139.665 138.951C140.182 138.951 140.692 138.828 141.153 138.593C141.976 138.115 141.976 137.343 141.153 136.865C140.692 136.63 140.182 136.507 139.665 136.507C139.147 136.507 138.637 136.63 138.176 136.865Z" fill="black"/>
<path d="M147.737 131.288C146.604 130.632 145.197 130.734 143.734 131.567C141.488 132.867 139.548 135.768 138.699 138.806C139.053 138.919 139.426 138.964 139.797 138.938C140.579 136.23 142.296 133.68 144.287 132.522C144.837 132.183 145.465 131.99 146.111 131.963C146.487 131.961 146.856 132.057 147.183 132.243C148.143 132.796 148.707 134.142 148.707 135.931C148.708 136.226 148.691 136.521 148.656 136.815L149.703 137.419C149.774 136.926 149.812 136.429 149.814 135.931C149.799 133.736 149.047 132.044 147.737 131.288Z" fill="#263238"/>
<path opacity="0.1" d="M129.21 131.689C128.392 132.161 128.392 132.939 129.21 133.411C129.671 133.646 130.181 133.769 130.698 133.769C131.216 133.769 131.726 133.646 132.187 133.411C133.01 132.939 133.01 132.161 132.187 131.689C131.726 131.453 131.216 131.331 130.698 131.331C130.181 131.331 129.671 131.453 129.21 131.689Z" fill="black"/>
<path d="M138.77 126.111C137.638 125.456 136.23 125.557 134.767 126.39C132.522 127.691 130.582 130.592 129.733 133.629C130.088 133.74 130.46 133.785 130.83 133.761C131.613 131.054 133.335 128.499 135.321 127.345C135.87 127.004 136.499 126.811 137.145 126.787C137.521 126.784 137.89 126.88 138.217 127.066C139.177 127.615 139.741 128.966 139.741 130.754C139.742 131.048 139.725 131.341 139.69 131.633L140.736 132.237C140.808 131.746 140.846 131.251 140.848 130.754C140.833 128.56 140.081 126.868 138.77 126.111Z" fill="#263238"/>
<path opacity="0.1" d="M120.244 126.492C119.426 126.97 119.426 127.742 120.244 128.214C120.704 128.45 121.213 128.572 121.73 128.572C122.246 128.572 122.756 128.45 123.216 128.214C124.044 127.742 124.044 126.97 123.216 126.492C122.756 126.257 122.246 126.134 121.73 126.134C121.213 126.134 120.704 126.257 120.244 126.492Z" fill="black"/>
<path d="M129.804 120.934C128.666 120.279 127.264 120.381 125.801 121.214C123.556 122.514 121.615 125.415 120.767 128.453C121.122 128.563 121.493 128.608 121.864 128.585C122.641 125.877 124.363 123.322 126.35 122.169C126.901 121.827 127.531 121.635 128.179 121.61C128.554 121.609 128.923 121.705 129.25 121.89C130.205 122.443 130.774 123.789 130.774 125.578C130.775 125.871 130.758 126.165 130.724 126.456L131.765 127.061C131.84 126.57 131.877 126.074 131.877 125.578C131.862 123.383 131.11 121.691 129.804 120.934Z" fill="#263238"/>
<path d="M146.522 207.635C146.103 207.639 145.69 207.534 145.324 207.33L139.883 204.216C139.716 204.14 139.573 204.021 139.468 203.871C139.364 203.721 139.302 203.545 139.289 203.363C139.294 203.213 139.34 203.068 139.421 202.943C139.502 202.818 139.616 202.717 139.751 202.651L191.216 172.923C191.556 172.765 191.928 172.69 192.302 172.703C192.677 172.716 193.043 172.818 193.37 172.999L198.811 176.144C198.979 176.219 199.123 176.338 199.229 176.488C199.334 176.638 199.397 176.814 199.41 176.997C199.404 177.147 199.357 177.292 199.275 177.418C199.193 177.543 199.078 177.643 198.943 177.709L147.478 207.411C147.184 207.568 146.855 207.645 146.522 207.635ZM192.166 173.253C191.933 173.246 191.703 173.298 191.496 173.406L140.03 203.109C139.959 203.149 139.842 203.23 139.842 203.337C139.842 203.444 139.929 203.576 140.162 203.713L145.603 206.853C145.846 206.986 146.117 207.063 146.394 207.076C146.672 207.089 146.948 207.039 147.203 206.929L198.669 177.226C198.735 177.185 198.852 177.104 198.852 176.997C198.852 176.891 198.77 176.759 198.532 176.621L193.091 173.482C192.806 173.33 192.489 173.252 192.166 173.253Z" fill="#E0E0E0"/>
<path d="M196.664 175.37L143.217 206.086L143.494 206.568L196.94 175.852L196.664 175.37Z" fill="#E0E0E0"/>
<path d="M134.955 200.955C134.537 200.958 134.124 200.855 133.757 200.655L62.9566 159.776C62.7889 159.701 62.6446 159.583 62.539 159.432C62.4335 159.282 62.3706 159.106 62.3572 158.923C62.3634 158.773 62.4102 158.628 62.4925 158.502C62.5748 158.377 62.6896 158.277 62.8245 158.212L114.3 128.524C114.64 128.364 115.012 128.289 115.387 128.303C115.762 128.317 116.128 128.421 116.454 128.605L187.254 169.479C187.422 169.554 187.566 169.673 187.672 169.823C187.777 169.973 187.84 170.149 187.854 170.332C187.847 170.482 187.8 170.627 187.718 170.753C187.636 170.878 187.521 170.978 187.386 171.044L135.911 200.731C135.617 200.887 135.288 200.965 134.955 200.955ZM115.24 128.819C115.006 128.812 114.773 128.864 114.564 128.971L63.0989 158.694C63.0328 158.735 62.916 158.816 62.916 158.923C62.916 159.029 62.9973 159.161 63.236 159.299L134.036 200.152C134.278 200.287 134.548 200.364 134.825 200.377C135.101 200.391 135.377 200.34 135.631 200.228L187.102 170.525C187.168 170.485 187.285 170.404 187.285 170.297C187.285 170.19 187.198 170.063 186.965 169.926L116.165 129.068C115.88 128.916 115.562 128.837 115.24 128.839V128.819Z" fill="#E0E0E0"/>
<path d="M184.304 167.923L131.102 198.64L131.379 199.119L184.581 168.403L184.304 167.923Z" fill="#E0E0E0"/>
<path d="M180.662 165.815L127.46 196.531L127.737 197.011L180.939 166.294L180.662 165.815Z" fill="#E0E0E0"/>
<path d="M177.013 163.705L123.811 194.421L124.088 194.9L177.29 164.184L177.013 163.705Z" fill="#E0E0E0"/>
<path d="M173.371 161.606L120.169 192.323L120.446 192.802L173.648 162.086L173.371 161.606Z" fill="#E0E0E0"/>
<path d="M169.718 159.527L116.511 190.234L116.788 190.713L169.995 160.007L169.718 159.527Z" fill="#E0E0E0"/>
<path d="M166.078 157.4L112.876 188.116L113.153 188.596L166.355 157.879L166.078 157.4Z" fill="#E0E0E0"/>
<path d="M162.428 155.302L109.226 186.019L109.503 186.498L162.705 155.782L162.428 155.302Z" fill="#E0E0E0"/>
<path d="M158.787 153.191L105.585 183.908L105.862 184.387L159.064 153.671L158.787 153.191Z" fill="#E0E0E0"/>
<path d="M155.145 151.088L101.943 181.804L102.219 182.284L155.422 151.568L155.145 151.088Z" fill="#E0E0E0"/>
<path d="M151.491 148.988L98.2886 179.704L98.5654 180.184L151.767 149.468L151.491 148.988Z" fill="#E0E0E0"/>
<path d="M147.848 146.897L94.6401 177.603L94.9169 178.083L148.124 147.376L147.848 146.897Z" fill="#E0E0E0"/>
<path d="M144.207 144.774L91.0051 175.49L91.282 175.97L144.484 145.253L144.207 144.774Z" fill="#E0E0E0"/>
<path d="M140.565 142.665L87.363 173.382L87.6399 173.861L140.842 143.145L140.565 142.665Z" fill="#E0E0E0"/>
<path d="M136.911 140.57L83.709 171.287L83.9859 171.766L137.188 141.05L136.911 140.57Z" fill="#E0E0E0"/>
<path d="M133.27 138.46L80.0676 169.176L80.3445 169.655L133.547 138.939L133.27 138.46Z" fill="#E0E0E0"/>
<path d="M129.628 136.356L76.4255 167.072L76.7024 167.552L129.904 136.836L129.628 136.356Z" fill="#E0E0E0"/>
<path d="M125.981 134.25L72.7791 164.967L73.0559 165.446L126.258 134.73L125.981 134.25Z" fill="#E0E0E0"/>
<path d="M122.33 132.165L69.123 162.872L69.3998 163.351L122.607 132.644L122.33 132.165Z" fill="#E0E0E0"/>
<path d="M118.69 130.042L65.488 160.758L65.7649 161.238L118.967 130.522L118.69 130.042Z" fill="#E0E0E0"/>
<path d="M185.42 172.121C185.37 172.12 185.321 172.106 185.278 172.08L112.466 130.048C112.433 130.031 112.405 130.007 112.382 129.978C112.359 129.949 112.342 129.915 112.332 129.88C112.323 129.844 112.321 129.807 112.326 129.77C112.332 129.733 112.345 129.698 112.365 129.667C112.382 129.636 112.406 129.608 112.435 129.586C112.464 129.564 112.496 129.547 112.531 129.538C112.566 129.528 112.603 129.526 112.639 129.531C112.675 129.535 112.709 129.547 112.74 129.565L185.552 171.602C185.584 171.62 185.611 171.644 185.633 171.673C185.655 171.702 185.672 171.734 185.681 171.769C185.691 171.804 185.693 171.841 185.688 171.877C185.684 171.912 185.672 171.947 185.654 171.978C185.631 172.021 185.597 172.056 185.556 172.081C185.515 172.106 185.468 172.12 185.42 172.121Z" fill="#B7E0D8"/>
<path d="M150.21 116.124C148.244 114.737 148.422 112.791 150.607 111.785C151.827 111.3 153.144 111.11 154.451 111.23C155.759 111.35 157.019 111.777 158.13 112.476C160.096 113.868 159.913 115.809 157.729 116.82C156.509 117.303 155.193 117.492 153.886 117.371C152.58 117.25 151.321 116.823 150.21 116.124Z" fill="#263238"/>
<path d="M159.101 115.768L158.242 115.687C158.031 115.196 157.677 114.78 157.226 114.493C156.326 113.927 155.305 113.581 154.245 113.483C153.186 113.385 152.119 113.538 151.13 113.929C150.638 114.133 150.217 114.477 149.921 114.92L149.062 114.844L149.906 116.5C150.125 116.885 150.431 117.213 150.8 117.46C151.701 118.024 152.722 118.368 153.781 118.466C154.84 118.564 155.906 118.413 156.896 118.024C157.301 117.846 157.661 117.579 157.947 117.241L159.101 115.768Z" fill="#263238"/>
<path d="M148.539 114.559C145.633 112.497 145.908 109.621 149.144 108.143C152.38 106.665 157.358 107.127 160.264 109.195C163.169 111.262 162.89 114.132 159.654 115.611C156.418 117.089 151.44 116.622 148.539 114.559Z" fill="#455A64"/>
<path d="M148.427 113.497C145.42 111.359 145.704 108.382 149.062 106.843C152.42 105.303 157.582 105.796 160.589 107.935C163.596 110.073 163.317 113.055 159.959 114.59C156.601 116.124 151.44 115.641 148.427 113.497Z" fill="#37474F"/>
<path d="M148.392 112.329C145.308 110.134 145.598 107.076 149.042 105.501C152.486 103.927 157.775 104.43 160.863 106.624C163.952 108.819 163.657 111.872 160.213 113.447C156.769 115.021 151.48 114.518 148.392 112.329Z" fill="#455A64"/>
<path d="M148.336 111.155C145.176 108.905 145.471 105.776 149.002 104.16C152.532 102.545 157.952 103.058 161.112 105.308C164.272 107.559 163.977 110.688 160.452 112.304C156.926 113.919 151.521 113.401 148.336 111.155Z" fill="#37474F"/>
<path d="M148.336 109.982C145.1 107.676 145.405 104.47 149.017 102.819C152.628 101.168 158.161 101.691 161.422 103.993C164.683 106.294 164.353 109.504 160.741 111.155C157.129 112.806 151.562 112.268 148.336 109.982Z" fill="#455A64"/>
<path d="M148.285 108.809C144.973 106.451 145.283 103.17 148.981 101.478C152.679 99.7864 158.364 100.325 161.681 102.682C164.998 105.039 164.683 108.316 160.985 110.012C157.287 111.709 151.597 111.166 148.285 108.809Z" fill="#37474F"/>
<path d="M164.816 101.991C164.943 100.604 164.155 99.1311 162.423 97.9018C158.953 95.4329 153.004 94.8538 149.139 96.6419C147.203 97.5258 146.152 98.8263 146.025 100.198C145.974 100.736 145.771 102.85 145.72 103.388C145.588 104.78 146.375 106.253 148.112 107.483C151.582 109.952 157.531 110.531 161.402 108.742C163.332 107.859 164.384 106.558 164.511 105.186C164.561 104.648 164.765 102.535 164.816 101.991Z" fill="#B7E0D8"/>
<path d="M161.498 36.9672C157.787 36.6142 154.043 36.9959 150.479 38.0905C146.915 39.185 143.602 40.9708 140.728 43.3461C137.855 45.7213 135.478 48.6394 133.732 51.9336C131.987 55.2278 130.908 58.8336 130.556 62.545C128.427 84.9732 146.583 90.4545 145.725 99.4918C145.593 100.935 146.406 102.464 148.204 103.744C151.806 106.284 157.978 106.888 161.991 105.049C164.023 104.13 165.085 102.779 165.222 101.341C166.08 92.2985 184.942 90.3275 187.066 67.8993C187.776 60.4072 185.481 52.9399 180.687 47.1393C175.892 41.3387 168.99 37.6798 161.498 36.9672Z" fill="#B7E0D8"/>
<g style="mix-blend-mode:screen" opacity="0.9">
<path d="M161.498 36.9672C157.787 36.6142 154.043 36.9959 150.479 38.0905C146.915 39.185 143.602 40.9708 140.728 43.3461C137.855 45.7213 135.478 48.6394 133.732 51.9336C131.987 55.2278 130.908 58.8336 130.556 62.545C128.427 84.9732 146.583 90.4545 145.725 99.4918C145.593 100.935 146.406 102.464 148.204 103.744C151.806 106.284 157.978 106.888 161.991 105.049C164.023 104.13 165.085 102.779 165.222 101.341C166.08 92.2985 184.942 90.3275 187.066 67.8993C187.776 60.4072 185.481 52.9399 180.687 47.1393C175.892 41.3387 168.99 37.6798 161.498 36.9672Z" fill="white"/>
</g>
<path d="M149.403 103.246C146.39 101.107 146.675 98.1304 150.033 96.5911C153.391 95.0519 158.552 95.5446 161.559 97.6833C164.567 99.822 164.287 102.804 160.929 104.343C157.571 105.882 152.4 105.39 149.403 103.246Z" fill="#B7E0D8"/>
<path opacity="0.55" d="M149.403 103.246C146.39 101.107 146.675 98.1304 150.033 96.5911C153.391 95.0519 158.552 95.5446 161.559 97.6833C164.567 99.822 164.287 102.804 160.929 104.343C157.571 105.882 152.4 105.39 149.403 103.246Z" fill="white"/>
<path opacity="0.25" d="M162.408 103.419C161.96 103.794 161.463 104.106 160.929 104.343C157.571 105.867 152.41 105.39 149.403 103.251C148.925 102.917 148.496 102.519 148.128 102.067C148.572 101.691 149.068 101.38 149.601 101.143C152.959 99.6188 158.125 100.091 161.132 102.235C161.611 102.567 162.041 102.966 162.408 103.419Z" fill="#B7E0D8"/>
<path d="M162.408 103.419C161.96 103.794 161.463 104.106 160.929 104.343C157.571 105.867 152.41 105.39 149.403 103.251C148.925 102.917 148.496 102.519 148.128 102.067C148.572 101.691 149.068 101.38 149.601 101.143C152.959 99.6188 158.125 100.091 161.132 102.235C161.611 102.567 162.041 102.966 162.408 103.419Z" fill="#B7E0D8"/>
<path opacity="0.35" d="M162.408 103.419C161.96 103.794 161.463 104.106 160.929 104.343C157.571 105.867 152.41 105.39 149.403 103.251C148.925 102.917 148.496 102.519 148.128 102.067C148.572 101.691 149.068 101.38 149.601 101.143C152.959 99.6188 158.125 100.091 161.132 102.235C161.611 102.567 162.041 102.966 162.408 103.419Z" fill="white"/>
<path opacity="0.35" d="M182.301 53.9293C180.777 51.0794 178.237 48.6258 174.793 49.7332C174.423 49.8551 174.071 50.026 173.746 50.2412C173.161 50.6593 172.694 51.2212 172.39 51.8726C172.086 52.524 171.954 53.2429 172.009 53.9598C172.151 56.7334 174.62 58.6842 175.941 60.9549C177.393 63.4437 178.394 66.1695 178.897 69.0067C179.013 70.0326 179.234 71.0438 179.558 72.0242C179.78 72.5285 180.182 72.932 180.685 73.1564C181.188 73.3808 181.757 73.41 182.281 73.2384C183.434 72.7608 184.135 71.44 184.389 70.3783C185.928 64.0588 185.059 59.1566 182.301 53.9293ZM180.848 74.9503C180.346 74.8839 179.836 74.9834 179.396 75.2338C178.956 75.4842 178.609 75.8717 178.41 76.3372C178.241 76.7408 178.158 77.1755 178.168 77.6131C178.177 78.0507 178.279 78.4813 178.466 78.8772C178.684 79.3028 179.061 79.6251 179.516 79.7744C179.97 79.9237 180.466 79.8879 180.894 79.6747C181.328 79.4496 181.699 79.12 181.974 78.7156C182.249 78.3112 182.419 77.8447 182.469 77.3582C182.555 76.3372 181.991 75.184 180.848 74.9503Z" fill="white"/>
<path d="M158.496 103.596L158.171 103.566C159.121 93.5126 160.304 87.2642 162.123 82.6821C162.586 81.4982 163.159 80.3604 163.835 79.2836C161.566 78.2811 159.535 76.8095 157.876 74.9656C155.903 76.4669 153.632 77.5318 151.216 78.0898C151.681 79.2723 152.03 80.4972 152.258 81.7474C153.187 86.5886 153.172 92.9488 152.222 103.002L151.892 102.972C152.842 92.9488 152.857 86.6191 151.938 81.8083C151.706 80.5574 151.352 79.3323 150.881 78.1507C150.564 78.2101 150.243 78.2508 149.921 78.2726C146.583 78.5114 144.76 77.3836 144.165 76.2406C143.962 75.855 143.881 75.4168 143.933 74.984C143.984 74.5512 144.166 74.1444 144.455 73.8175C144.736 73.4837 145.111 73.2419 145.531 73.1233C145.951 73.0047 146.398 73.0147 146.812 73.152C148.219 73.5025 149.895 74.9097 151.12 77.7799C153.506 77.2473 155.749 76.2078 157.698 74.7319C157.382 74.3566 157.103 73.9517 156.865 73.5228C155.55 71.0438 155.849 69.027 156.535 67.9704C156.76 67.6159 157.079 67.3306 157.456 67.1461C157.834 66.9616 158.255 66.8851 158.673 66.9251C159.091 66.965 159.49 67.1199 159.825 67.3725C160.161 67.6252 160.42 67.9657 160.574 68.3565C161.082 69.5249 160.97 71.5569 159.207 73.7464C158.892 74.1183 158.542 74.4586 158.161 74.7624C159.797 76.5817 161.805 78.0283 164.048 79.0042C165.791 76.4184 167.701 75.3516 169.128 75.2704C169.557 75.2191 169.99 75.2953 170.375 75.4896C170.76 75.6839 171.079 75.9876 171.292 76.3626C171.514 76.7386 171.616 77.1732 171.586 77.6086C171.555 78.0441 171.392 78.4599 171.12 78.801C170.322 79.817 168.316 80.5688 165.085 79.7103C164.78 79.629 164.475 79.5274 164.165 79.4106C163.479 80.4811 162.902 81.618 162.443 82.804C160.64 87.376 159.461 93.5736 158.496 103.596ZM164.343 79.1312C164.617 79.2328 164.892 79.3191 165.161 79.3902C168.239 80.2081 170.119 79.5172 170.85 78.5927C171.085 78.3038 171.224 77.9494 171.249 77.5782C171.273 77.207 171.182 76.8373 170.988 76.52C170.806 76.2002 170.533 75.9416 170.203 75.7771C169.874 75.6125 169.504 75.5493 169.139 75.5955C167.858 75.692 166.04 76.708 164.358 79.1312H164.343ZM146.329 73.406C146.031 73.3656 145.727 73.4017 145.446 73.511C145.165 73.6203 144.917 73.7992 144.724 74.0308C144.474 74.3064 144.316 74.6526 144.27 75.0218C144.225 75.3911 144.294 75.7653 144.47 76.0933C145.014 77.1347 146.736 78.171 149.911 77.9475C150.197 77.9264 150.482 77.8908 150.764 77.8408C149.57 75.123 147.975 73.7768 146.7 73.472C146.578 73.4415 146.454 73.4195 146.329 73.406ZM158.628 67.2338C158.268 67.1971 157.905 67.2624 157.581 67.4224C157.257 67.5823 156.984 67.8303 156.794 68.138C155.976 69.3674 156.113 71.4146 157.145 73.3552C157.37 73.7663 157.636 74.1543 157.937 74.5134C158.309 74.2102 158.65 73.8698 158.953 73.4974C160.33 71.7855 160.848 69.8043 160.274 68.4428C160.142 68.1066 159.917 67.8146 159.626 67.6006C159.334 67.3867 158.988 67.2595 158.628 67.2338Z" fill="#455A64"/>
<path d="M161.331 30.6426C161.219 30.6348 161.109 30.605 161.008 30.5548C160.908 30.5046 160.818 30.4351 160.744 30.3501C160.671 30.2651 160.615 30.1664 160.579 30.0597C160.544 29.953 160.53 29.8403 160.538 29.7282L161.127 21.2547C161.136 21.1426 161.166 21.0332 161.216 20.9328C161.266 20.8323 161.336 20.7427 161.421 20.6691C161.505 20.5955 161.604 20.5394 161.711 20.5039C161.817 20.4684 161.93 20.4542 162.042 20.4622C162.154 20.4702 162.263 20.5002 162.364 20.5505C162.464 20.6008 162.554 20.6704 162.628 20.7553C162.701 20.8402 162.757 20.9388 162.793 21.0454C162.828 21.152 162.842 21.2646 162.834 21.3766L162.245 29.8501C162.228 30.0761 162.123 30.2863 161.951 30.4348C161.78 30.5833 161.557 30.6579 161.331 30.6426Z" fill="#F0F0F0"/>
<path d="M178.908 36.7589C178.757 36.7469 178.611 36.6962 178.486 36.6116C178.393 36.5492 178.313 36.469 178.251 36.3756C178.189 36.2822 178.146 36.1775 178.125 36.0674C178.104 35.9573 178.104 35.8442 178.127 35.7344C178.15 35.6246 178.194 35.5205 178.257 35.4279L183.007 28.387C183.062 28.2786 183.139 28.1832 183.234 28.1071C183.329 28.0311 183.439 27.9761 183.556 27.9459C183.674 27.9157 183.797 27.9109 183.916 27.932C184.036 27.953 184.15 27.9994 184.25 28.068C184.35 28.1365 184.435 28.2257 184.498 28.3296C184.561 28.4334 184.601 28.5495 184.616 28.6702C184.63 28.7908 184.619 28.9131 184.583 29.029C184.546 29.1449 184.485 29.2516 184.404 29.3421L179.654 36.383C179.572 36.5037 179.46 36.6016 179.329 36.6673C179.199 36.7331 179.054 36.7646 178.908 36.7589Z" fill="#F0F0F0"/>
<path d="M191.069 50.8406C190.881 50.8284 190.702 50.7542 190.56 50.6296C190.419 50.5049 190.323 50.3369 190.287 50.1518C190.251 49.9667 190.277 49.7749 190.362 49.6063C190.446 49.4378 190.584 49.302 190.754 49.2201L198.374 45.4965C198.572 45.4245 198.789 45.4283 198.985 45.5071C199.18 45.5858 199.339 45.734 199.432 45.9231C199.525 46.1121 199.544 46.3288 199.487 46.5314C199.429 46.734 199.299 46.9082 199.121 47.0205L191.501 50.739C191.369 50.8113 191.219 50.8464 191.069 50.8406Z" fill="#F0F0F0"/>
<path d="M203.032 69.7128L194.564 69.1185C194.45 69.1136 194.338 69.086 194.235 69.0371C194.132 68.9882 194.039 68.9191 193.963 68.8339C193.887 68.7487 193.829 68.6492 193.792 68.5411C193.756 68.433 193.741 68.3187 193.749 68.2048C193.757 68.091 193.788 67.9799 193.84 67.8782C193.892 67.7765 193.964 67.6862 194.051 67.6127C194.138 67.5392 194.239 67.484 194.349 67.4503C194.458 67.4167 194.572 67.4052 194.686 67.4167L203.159 68.006C203.386 68.0221 203.596 68.1276 203.745 68.299C203.894 68.4705 203.968 68.694 203.952 68.9204C203.936 69.1467 203.83 69.3574 203.659 69.506C203.487 69.6546 203.264 69.729 203.037 69.7128H203.032Z" fill="#F0F0F0"/>
<path d="M195.484 91.44C195.335 91.4291 195.191 91.3802 195.067 91.2978L188.026 86.548C187.838 86.4213 187.708 86.2252 187.665 86.0028C187.622 85.7803 187.668 85.5497 187.795 85.3618C187.922 85.1738 188.118 85.0439 188.34 85.0006C188.563 84.9572 188.793 85.004 188.981 85.1307L196.022 89.8804C196.178 89.9854 196.296 90.1392 196.355 90.3177C196.415 90.4962 196.414 90.6894 196.353 90.8674C196.291 91.0454 196.173 91.198 196.016 91.3016C195.858 91.4051 195.671 91.4538 195.484 91.44Z" fill="#F0F0F0"/>
<path d="M118.709 85.852C118.521 85.8398 118.342 85.7655 118.201 85.6409C118.059 85.5163 117.963 85.3483 117.927 85.1632C117.891 84.9781 117.917 84.7863 118.002 84.6177C118.087 84.4491 118.225 84.3133 118.394 84.2315L126.014 80.5078C126.116 80.444 126.229 80.4021 126.348 80.385C126.466 80.3679 126.587 80.376 126.702 80.4087C126.818 80.4413 126.925 80.4979 127.017 80.5747C127.109 80.6514 127.183 80.7467 127.236 80.8542C127.289 80.9618 127.318 81.0792 127.323 81.1989C127.327 81.3186 127.306 81.4378 127.261 81.5489C127.216 81.66 127.149 81.7604 127.063 81.8436C126.976 81.9268 126.874 81.9909 126.761 82.0318L119.141 85.7555C119.008 85.8246 118.859 85.8579 118.709 85.852Z" fill="#F0F0F0"/>
<path d="M122.85 63.8708L114.376 63.2765C114.262 63.2716 114.15 63.2439 114.047 63.1951C113.944 63.1462 113.852 63.0771 113.776 62.9919C113.7 62.9067 113.642 62.8072 113.605 62.6991C113.568 62.591 113.553 62.4767 113.561 62.3628C113.569 62.249 113.6 62.1379 113.652 62.0362C113.704 61.9345 113.776 61.8442 113.863 61.7707C113.95 61.6972 114.052 61.642 114.161 61.6083C114.27 61.5747 114.385 61.5632 114.498 61.5747L122.972 62.164C123.198 62.1801 123.409 62.2855 123.557 62.457C123.706 62.6285 123.78 62.852 123.764 63.0784C123.748 63.3047 123.643 63.5154 123.471 63.664C123.3 63.8126 123.076 63.887 122.85 63.8708Z" fill="#F0F0F0"/>
<path d="M128.966 46.294C128.817 46.2839 128.674 46.2348 128.549 46.1518L121.509 41.402C121.416 41.3393 121.336 41.2589 121.274 41.1653C121.212 41.0718 121.169 40.9669 121.147 40.8568C121.126 40.7466 121.126 40.6333 121.149 40.5234C121.171 40.4134 121.215 40.3089 121.277 40.2158C121.34 40.1228 121.421 40.043 121.514 39.981C121.608 39.919 121.713 39.8761 121.823 39.8546C121.933 39.8331 122.046 39.8336 122.156 39.8559C122.266 39.8782 122.371 39.922 122.464 39.9847L129.505 44.7345C129.661 44.8395 129.778 44.9932 129.838 45.1717C129.898 45.3502 129.897 45.5435 129.835 45.7214C129.774 45.8994 129.655 46.052 129.498 46.1556C129.341 46.2592 129.154 46.3078 128.966 46.294Z" fill="#F0F0F0"/>
<path d="M143.053 34.1325C142.903 34.1222 142.758 34.0726 142.633 33.9888C142.509 33.905 142.408 33.7899 142.342 33.655L138.618 26.035C138.546 25.8371 138.55 25.6196 138.629 25.4243C138.707 25.229 138.855 25.0697 139.045 24.9771C139.234 24.8844 139.45 24.8649 139.653 24.9224C139.855 24.9798 140.03 25.1101 140.142 25.2882L143.866 32.9082C143.915 33.0093 143.944 33.119 143.951 33.2312C143.957 33.3434 143.942 33.4559 143.905 33.5621C143.868 33.6683 143.811 33.7662 143.736 33.8501C143.661 33.9341 143.571 34.0024 143.469 34.0512C143.34 34.1145 143.196 34.1426 143.053 34.1325Z" fill="#F0F0F0"/>
<path d="M54.1782 187.736C54.5491 186.157 52.9844 185.161 52.2427 184.252C51.0997 182.85 50.7187 179.583 50.7594 177.917C50.7594 175.834 50.5206 174.361 51.816 172.471C53.34 170.241 55.4838 167.635 62.6263 161.254L53.848 152.4C52.0091 155.285 47.3659 165.4 47.3659 165.4L47.0611 166.025C46.2907 167.058 45.3533 167.956 44.2875 168.681L43.7795 168.93C42.9413 169.499 40.8077 170.109 40.8432 172.105C40.8788 174.102 41.656 174.589 42.5603 176.22C43.2685 177.267 43.6244 178.513 43.5763 179.776C43.6067 181.381 43.5407 183.17 43.5255 184.607C43.5255 185.816 44.6278 187.569 46.9545 188.356C50.3631 189.525 53.8125 189.286 54.1782 187.736Z" fill="#FFBDA7"/>
<path d="M39.624 172.176C38.6151 173.534 37.763 175.001 37.084 176.55L39.4208 179.822L41.3817 176.52C40.513 175.203 39.9155 173.727 39.624 172.176Z" fill="#263238"/>
<path d="M39.4309 179.832L42.6415 179.608C42.7906 178.933 42.6761 178.226 42.3214 177.632C42.0813 177.211 41.7662 176.838 41.3918 176.53L39.4309 179.832Z" fill="black"/>
<path d="M40.2794 171.435C40.0314 171.616 39.821 171.844 39.6596 172.105C39.55 173.272 39.7906 174.444 40.3505 175.473C41.016 176.489 42.1031 177.505 42.3825 178.938C42.6619 180.37 42.0879 183.617 42.6518 185.593C43.2156 187.569 45.1257 189.835 49.2862 190.368C52.258 190.749 53.3807 190.185 54.3662 189.565C54.7269 188.28 54.6914 187.945 53.0658 186.863C51.4402 185.781 40.2794 171.435 40.2794 171.435Z" fill="#263238"/>
<path d="M45.8217 166.213C44.4856 167.797 44.0081 168.407 42.7736 169.118C41.2852 169.982 40.9804 170.327 40.2692 171.435C39.9695 173.152 40.3149 173.858 41.8897 176.052C42.9718 177.551 43.3223 178.537 43.2918 180.599C43.2563 183.093 42.4079 185.369 45.4457 187.919C47.813 189.911 52.9946 190.043 54.3967 188.661C55.6007 185.257 52.4003 185.435 51.6738 181.823C51.2725 179.827 51.2369 176.809 51.8618 174.813C52.1368 173.914 52.4886 173.04 52.9133 172.202C53.4213 171.353 53.8531 170.734 53.4518 170.292L52.6949 171.221C51.9431 171.384 50.1193 170.993 48.9154 170.023C46.0198 167.696 47.0307 166.04 47.0307 166.04L47.3355 165.415C47.051 165.064 46.5786 165.313 45.8217 166.213Z" fill="#37474F"/>
<path d="M78.0186 86.7308C78.7502 91.6483 81.1174 97.8154 82.4332 109.454C83.6676 120.376 84.2162 126.07 83.4492 131.496C83.1748 133.431 82.1741 135.697 80.2742 138.562C74.3153 147.528 62.5907 161.646 62.5907 161.646C62.5907 161.646 59.9288 161.6 56.708 159.034C55.7848 158.278 55.0221 157.344 54.4647 156.289C53.9072 155.233 53.5663 154.077 53.4619 152.888C53.4619 152.888 53.7718 150.856 58.6892 142.575C61.7177 137.289 63.6073 131.429 64.2366 125.369L61.0311 90.3173C68.6511 90.9879 74.4576 89.5909 78.0186 86.7308Z" fill="#263238"/>
<path d="M56.6929 159.034C55.7697 158.278 55.007 157.344 54.4495 156.289C53.8921 155.233 53.5512 154.077 53.4468 152.888C53.4468 152.888 53.7567 150.856 58.6741 142.575C61.7026 137.289 63.5922 131.429 64.2215 125.369L61.7678 98.552C67.7419 97.6274 76.0731 97.7036 76.0731 97.7036C76.2306 101.544 75.3822 106.299 69.8501 109.164C69.8501 109.164 70.8661 128.041 70.9982 133.548C71.0947 137.765 69.8704 148.493 69.2811 153.36C65.5575 158.074 62.5755 161.666 62.5755 161.666C62.5755 161.666 59.9136 161.6 56.6929 159.034Z" fill="black"/>
<path d="M66.8122 179.233L66.8477 178.384L67.6808 161.143L55.5498 164.191L58.2473 178.013L58.3387 178.73C58.3387 178.73 58.4657 182.245 63.8861 182.443C66.6598 182.529 66.8122 179.233 66.8122 179.233Z" fill="#FFBDA7"/>
<path d="M60.259 194.95L64.4704 193.391L64.6024 189.387L60.32 191.003L60.259 194.95Z" fill="black"/>
<path d="M56.1644 185.979C55.9916 187.452 57.1804 193.091 57.1804 193.091L60.2284 194.945L60.2893 190.998C60.2893 190.998 61.1377 191.724 62.0369 193.812C62.8852 195.783 64.0689 197.678 66.0501 198.674C68.0313 199.669 71.5111 200.081 74.4473 199.69C76.5352 199.42 77.8204 198.526 78.1709 197.998C78.274 197.731 78.3156 197.445 78.2928 197.16L56.1644 185.979Z" fill="#263238"/>
<path d="M66.8477 178.384C67.4269 178.338 67.3557 178.892 68.0923 182.194C68.6003 184.668 69.784 188.93 74.2798 191.74C76.134 192.898 78.6994 193.629 78.3438 197.17C77.0585 198.892 72.578 199.344 69.8957 198.872C64.4754 197.917 63.6677 195.778 62.3113 192.588C61.2293 190.048 60.2793 189.763 58.8264 188.737C57.8663 188.062 56.5658 187.086 56.1848 185.979C56.1137 183.551 57.0332 181.966 57.3583 180.741C57.6834 179.517 57.4904 178.171 58.2676 177.993L58.3591 178.709C58.3591 178.709 59.0855 180.66 62.8549 180.741C66.6242 180.823 66.8325 179.243 66.8325 179.243L66.8477 178.384Z" fill="#37474F"/>
<path d="M78.0187 86.7308C78.0187 86.7308 78.989 93.0808 76.9214 98.867C75.1231 103.896 71.6687 106.731 68.0365 107.909C68.0365 107.909 69.2456 130.49 69.5605 133.634C69.8755 136.779 69.1338 148.168 68.448 155.666C67.7622 163.165 67.5641 165.73 67.5641 165.73C67.5641 165.73 65.9639 167.416 61.4681 167.503C56.9723 167.589 55.5601 165.74 55.5601 165.74C55.5601 165.74 52.7254 157.074 52.6086 150.271C52.5374 146.375 53.396 144.44 52.6543 140.574C51.9126 136.708 46.4414 119.507 45.5169 111.354C44.5923 103.2 45.9792 96.0323 51.7805 87.6808C58.0238 91.755 72.3342 90.7339 78.0187 86.7308Z" fill="#263238"/>
<path d="M54.3559 88.9406C51.2114 93.279 46.68 102.23 49.8957 115.042C50.8101 118.689 51.7126 122.21 52.6033 125.603C54.6709 133.568 56.3016 139.863 56.52 142.26C56.5987 143.618 56.5323 144.981 56.3219 146.324C55.8728 149.483 55.8728 152.69 56.3219 155.849C56.8858 159.954 57.7036 164.262 58.2929 167.183C58.105 167.132 57.9272 167.081 57.7849 167.025C57.1956 164.109 56.4082 159.913 55.8545 155.915C55.3991 152.714 55.3991 149.465 55.8545 146.263C56.0595 144.957 56.1243 143.632 56.0476 142.311C55.8342 139.949 54.2035 133.675 52.1461 125.73C51.2622 122.326 50.3478 118.806 49.4334 115.164C46.1974 102.255 50.7136 93.2028 53.9038 88.7476C54.0257 88.8187 54.1781 88.9 54.3559 88.9406Z" fill="black"/>
<path d="M98.0847 82.1893C99.9338 83.3374 101.412 83.2053 102.88 83.5508C104.745 83.9826 106.213 84.902 108.737 86.0654C109.174 86.2635 109.601 86.4718 110.033 86.675C110.238 86.7842 110.45 86.8792 110.668 86.9594C110.871 87.0255 111.044 87.0915 111.039 87.3658C111.017 87.561 110.925 87.7416 110.78 87.8738C110.539 88.0907 110.255 88.2551 109.948 88.3565C109.64 88.458 109.314 88.4943 108.991 88.4631C108.349 88.3925 107.713 88.2685 107.092 88.0923C106.609 87.9856 106.838 88.4987 106.98 88.7273C107.686 89.8449 111.242 90.7136 112.4 91.2978C112.908 91.5619 113.624 91.5568 113.726 92.2528C113.739 92.4874 113.773 92.7203 113.828 92.9488C113.934 93.1741 114.067 93.3857 114.224 93.5787C114.446 93.8697 114.559 94.2291 114.544 94.5947C114.531 94.7798 114.464 94.9571 114.351 95.1043C114.238 95.2516 114.084 95.3623 113.909 95.4227C113.624 95.4989 113.309 95.4227 113.045 95.5345C112.927 95.6047 112.813 95.6828 112.705 95.7682C112.197 96.1085 111.526 95.9307 110.912 95.9104C110.404 95.9104 109.896 96.0577 109.388 96.0628C108.823 96.0913 108.258 96.0743 107.696 96.012C106.42 95.7946 105.168 95.4544 103.957 94.996C102.37 94.2918 100.936 93.284 99.7357 92.0293C98.796 90.9242 97.592 90.0748 96.2356 89.5604C93.9547 88.5444 85.1561 85.1662 82.0522 82.931C80.9245 82.1182 80.3606 81.2444 76.769 77.5513C71.435 72.07 69.7637 69.7941 69.7637 69.7941L65.9131 57.0027C70.3479 57.1398 72.2732 56.769 75.6057 60.3656C80.2742 65.3999 87.2897 74.0816 87.2897 74.0816C87.2897 74.0816 96.5201 81.219 98.0847 82.1893Z" fill="#FFBDA7"/>
<path d="M105.598 88.392C103.891 89.6163 101.183 88.9406 100.061 88.2802C100.061 88.2802 101.544 89.6671 102.977 89.6671C104.552 89.662 105.156 89.1134 105.598 88.392Z" fill="#FFBF9D"/>
<path d="M120.67 157.815L136.926 174.579C137.029 174.688 137.163 174.761 137.309 174.789C137.456 174.816 137.607 174.797 137.742 174.733C137.877 174.669 137.988 174.565 138.059 174.434C138.131 174.303 138.159 174.153 138.141 174.005L135.438 150.637L120.67 157.815Z" fill="#FFA8A7"/>
<path d="M138.14 174.026C138.159 174.173 138.131 174.324 138.059 174.454C137.988 174.585 137.877 174.69 137.742 174.753C137.607 174.817 137.455 174.837 137.309 174.809C137.162 174.781 137.029 174.708 136.926 174.6L133.751 171.323C134.474 171.362 135.193 171.201 135.831 170.858C136.468 170.515 136.998 170.002 137.363 169.377L137.561 169.032L138.14 174.026Z" fill="#455A64"/>
<path d="M89.3013 53.1012L90.2258 55.057L91.3485 57.4142L135.443 150.678C134.716 153.218 132.817 155.209 130.571 156.555C127.157 158.613 122.951 159.167 120.68 157.81L76.6165 64.5922L74.4829 60.0812C76.0272 62.926 90.81 55.9765 89.3013 53.1012Z" fill="#455A64"/>
<path d="M92.8472 60.5333L94.8792 64.9021C95.5142 66.1518 93.1978 68.2346 90.2209 69.9821C86.2636 72.3138 80.8635 73.4822 80.0152 71.8312L78.4912 68.6156L77.9832 67.4522C78.8366 69.1032 84.2366 67.9602 88.1889 65.6082C91.0438 63.9267 93.2689 61.9201 92.8879 60.6704C92.8849 60.6222 92.871 60.5754 92.8472 60.5333Z" fill="#EBEBEB"/>
<path d="M93.3501 61.6306C94.8386 64.5211 79.9847 71.4502 78.4962 68.5546L76.4236 64.1909C77.912 67.0814 92.7609 60.1269 91.2724 57.2618L93.3501 61.6306Z" fill="#B7E0D8"/>
<path d="M89.3013 53.1012L91.3333 57.4142C92.8167 60.2437 78.5419 67.0662 76.6013 64.5922C76.5582 64.5471 76.5223 64.4957 76.4946 64.4398L74.4626 60.0812C76.0273 62.926 90.8101 55.9765 89.3013 53.1012Z" fill="#EBEBEB"/>
<path opacity="0.1" d="M76.6165 64.5922L74.4829 60.0812C75.1789 61.3664 78.6688 60.9295 82.1029 59.4766L128.488 157.627L136.947 174.6L120.691 157.836L76.6165 64.5922Z" fill="black"/>
<path d="M65.6488 41.4122C65.6488 41.3664 65.5878 41.3207 65.5624 41.2699C64.6734 39.37 67.2693 36.2712 71.3638 34.351C75.4582 32.4307 79.4918 32.4104 80.3909 34.3002L89.2962 53.0962C89.9413 54.3255 87.6604 56.4032 84.7242 58.1762C80.777 60.5231 75.3668 61.7322 74.488 60.0964L65.7707 41.7017C65.73 41.6204 65.6945 41.5392 65.6589 41.4528C65.6234 41.3664 65.6538 41.4274 65.6488 41.4122Z" fill="#F28F8F"/>
<path opacity="0.1" d="M70.4953 34.7878L82.0878 59.4766C78.6944 60.8889 75.179 61.3715 74.4678 60.0812L65.7709 41.7017C65.7302 41.6204 65.6947 41.5392 65.6591 41.4528C65.6236 41.3664 65.6591 41.4528 65.6591 41.4122C65.6591 41.3715 65.5982 41.3207 65.5728 41.2699C64.7346 39.5122 66.9139 36.7182 70.4953 34.7878Z" fill="black"/>
<path d="M65.5624 41.2699C66.4565 43.1698 70.4951 43.1495 74.5946 41.2293C78.6942 39.309 81.2799 36.2052 80.396 34.3052C79.5121 32.4053 75.4582 32.4256 71.3638 34.351C67.2693 36.2763 64.6734 39.37 65.5624 41.2699Z" fill="#FFA8A7"/>
<path d="M45.8267 76.8452C45.8267 76.8452 48.2193 75.6869 48.8747 70.4901C49.1693 68.1279 48.3667 65.0494 47.3507 61.4985L54.1426 58.5419C54.1426 58.5419 56.388 57.9222 61.341 57.0179H65.913C65.913 57.0179 74.1934 60.513 77.5614 64.9275C79.3953 67.3354 81.3003 72.4713 78.0694 76.3727C78.3183 79.8678 78.3641 86.9899 78.3641 86.9899C78.3641 86.9899 76.4641 90.4342 67.3354 91.4756C54.2391 92.9996 50.5714 88.199 50.5714 88.199C50.3529 84.4652 47.2084 80.4469 45.8267 76.8452Z" fill="#B7E0D8"/>
<path opacity="0.2" d="M45.8267 76.8452C45.8267 76.8452 48.2193 75.6869 48.8747 70.4901C49.1693 68.1279 48.3667 65.0494 47.3507 61.4985L54.1426 58.5419C54.1426 58.5419 56.388 57.9222 61.341 57.0179H65.913C65.913 57.0179 74.1934 60.513 77.5614 64.9275C79.3953 67.3354 81.3003 72.4713 78.0694 76.3727C78.3183 79.8678 78.3641 86.9899 78.3641 86.9899C78.3641 86.9899 76.4641 90.4342 67.3354 91.4756C54.2391 92.9996 50.5714 88.199 50.5714 88.199C50.3529 84.4652 47.2084 80.4469 45.8267 76.8452Z" fill="white"/>
<path d="M68.3666 77.6072C68.3666 77.6072 66.4717 80.8076 61.407 80.6856C56.3422 80.5637 54.8284 76.9671 54.8284 76.9671C54.8284 76.9671 55.2195 81.8185 61.2749 81.9404C67.2388 82.0572 68.3666 77.6072 68.3666 77.6072Z" fill="#B7E0D8"/>
<path d="M49.8501 32.4307C50.5747 31.5577 51.5588 30.9384 52.6594 30.6629C53.716 30.4038 54.3612 30.419 55.367 30.0076C56.3729 29.5961 57.145 28.9509 58.1001 28.5496C60.1981 27.6657 62.7229 28.2143 64.5263 29.6012C65.3238 30.2158 66.0503 31.0134 67.0663 31.1607C67.5617 31.1987 68.0593 31.1987 68.5547 31.1607C69.3417 31.2037 70.1057 31.441 70.7786 31.8515C71.4514 32.2619 72.0121 32.8327 72.4104 33.5128C73.0343 34.5768 73.4094 35.7681 73.5077 36.9976C73.6296 38.2118 73.208 39.3446 73.2842 40.5536C73.4192 41.4315 73.8199 42.247 74.4323 42.8904C75.179 43.6738 75.7534 44.6048 76.1188 45.6235C76.4337 46.4963 76.5262 47.4339 76.3881 48.3514C76.312 48.808 76.1223 49.238 75.8365 49.602C75.5506 49.966 75.1778 50.2522 74.7523 50.4342C74.9128 50.0026 74.9644 49.5379 74.9023 49.0816C74.8403 48.6252 74.6666 48.1912 74.3967 47.818C74.4805 48.2291 74.4819 48.6527 74.4008 49.0643C74.3197 49.4759 74.1578 49.8673 73.9243 50.2158C73.4519 50.91 72.852 51.5082 72.1564 51.9786C70.6336 53.1566 68.7817 53.8313 66.858 53.909C64.826 53.909 62.794 53.2232 60.823 53.7464C60.2764 53.9131 59.7389 54.1081 59.2126 54.3306C58.2978 54.6803 57.3497 54.9356 56.383 55.0926C55.4585 55.245 54.5187 55.1739 53.6043 55.306C52.0914 55.5266 50.5513 55.1634 49.2964 54.29C48.4935 53.6628 47.8426 52.8623 47.3922 51.9484C46.9418 51.0345 46.7037 50.0307 46.6955 49.0118C46.3567 49.455 46.1443 49.9817 46.0808 50.5358C45.6343 49.9985 45.3226 49.3623 45.1715 48.6802C45.0204 47.9981 45.0343 47.2897 45.2121 46.6141C45.4915 45.5625 46.1621 44.6227 46.2281 43.5407C46.2942 42.6009 45.9081 41.6966 45.8065 40.7619C45.718 39.6677 46.0084 38.5764 46.6291 37.6709C47.2497 36.7654 48.1627 36.1008 49.2151 35.7886C49.0922 35.2148 49.0851 34.6222 49.1941 34.0456C49.3032 33.469 49.5262 32.92 49.8501 32.4307Z" fill="#FA8662"/>
<path d="M49.8756 44.196C51.1557 43.6575 52.2682 44.1046 53.0099 45.4406C53.65 46.6039 54.9098 46.1416 54.5339 44.3128C57.3533 41.4376 53.904 39.7815 56.2205 37.018C57.6632 35.2958 60.8788 35.6362 62.1946 36.642C62.5234 36.0175 63.0534 35.5222 63.6988 35.2364C64.3441 34.9506 65.0671 34.891 65.7506 35.0672C67.112 35.494 67.9908 36.2661 68.702 38.1152C69.4386 40.0355 68.7528 40.4266 69.1288 41.7881C69.5443 42.7142 69.82 43.6969 69.9466 44.704C70.2718 51.1302 68.9916 52.7964 67.6048 53.9039C66.6548 54.6608 65.4254 55.0875 63.3071 55.179L63.5052 57.978C65.2695 60.1165 66.3806 62.7178 66.7056 65.471C60.6096 63.9064 57.4092 61.8388 53.8278 59.1414L53.2182 49.8246C52.9439 50.5663 51.4758 51.4198 49.9314 50.2412C47.9807 48.768 47.615 45.151 49.8756 44.196Z" fill="#FFBDA7"/>
<path d="M68.072 41.0312L65.9841 40.259C66.0268 40.1202 66.0975 39.9916 66.1918 39.8811C66.2861 39.7707 66.4021 39.6808 66.5326 39.617C66.6631 39.5532 66.8052 39.5169 66.9503 39.5102C67.0954 39.5035 67.2403 39.5267 67.3761 39.5783C67.6548 39.6869 67.8818 39.8975 68.011 40.1672C68.1403 40.437 68.1621 40.7459 68.072 41.0312Z" fill="#4F2C21"/>
<path d="M59.9085 40.5079L57.9933 41.656C57.9109 41.5346 57.8544 41.3974 57.8273 41.2532C57.8003 41.1089 57.8033 40.9606 57.8362 40.8176C57.8691 40.6745 57.9312 40.5398 58.0185 40.4218C58.1059 40.3039 58.2166 40.2052 58.3439 40.132C58.6035 39.9835 58.91 39.9397 59.2008 40.0095C59.4916 40.0794 59.7447 40.2577 59.9085 40.5079Z" fill="#4F2C21"/>
<path d="M61.0414 48.1635L64.1554 49.1287C64.0869 49.3451 63.9741 49.545 63.8241 49.7154C63.6742 49.8859 63.4904 50.0233 63.2844 50.1189C63.0785 50.2145 62.8549 50.2661 62.6279 50.2705C62.4009 50.275 62.1754 50.2321 61.9659 50.1447C61.7733 50.0778 61.5961 49.973 61.4448 49.8364C61.2935 49.6998 61.1711 49.5342 61.0849 49.3495C60.9987 49.1648 60.9504 48.9646 60.9429 48.7609C60.9354 48.5572 60.9689 48.354 61.0414 48.1635Z" fill="#B16668"/>
<path d="M62.8651 50.231C62.8134 49.81 62.6069 49.4233 62.2857 49.1463C61.9645 48.8692 61.5517 48.7217 61.1277 48.7324C61.0753 48.7272 61.0226 48.7272 60.9702 48.7324C60.9645 49.0441 61.0606 49.3492 61.244 49.6013C61.4273 49.8534 61.6879 50.0388 61.9862 50.1294C62.2666 50.2341 62.5682 50.269 62.8651 50.231Z" fill="#F28F8F"/>
<path d="M62.9414 41.5696L63.6221 47.3151L66.7666 46.1315L62.9414 41.5696Z" fill="#FFBF9D"/>
<path d="M59.6596 44.2265C60.173 44.2265 60.5893 43.8103 60.5893 43.2968C60.5893 42.7834 60.173 42.3672 59.6596 42.3672C59.1462 42.3672 58.73 42.7834 58.73 43.2968C58.73 43.8103 59.1462 44.2265 59.6596 44.2265Z" fill="#4F2C21"/>
<path d="M66.9038 43.8201C67.4172 43.8201 67.8334 43.4039 67.8334 42.8904C67.8334 42.377 67.4172 41.9608 66.9038 41.9608C66.3903 41.9608 65.9741 42.377 65.9741 42.8904C65.9741 43.4039 66.3903 43.8201 66.9038 43.8201Z" fill="#4F2C21"/>
<path d="M63.3071 55.1739C61.2395 55.118 57.7191 55.118 55.9614 52.8574C55.9614 52.8574 56.2307 54.229 58.3643 55.2348C59.8883 55.941 63.3681 56.1442 63.3681 56.1442L63.3071 55.1739Z" fill="#FFBF9D"/>
<path d="M93.6701 86.6851C93.4872 87.0407 93.0554 87.1931 92.9081 87.5284C92.8696 87.7127 92.8696 87.9029 92.9081 88.0872C92.9203 88.345 92.8766 88.6023 92.7802 88.8416C92.6837 89.081 92.5368 89.2967 92.3493 89.474C92.2213 89.57 92.1068 89.6828 92.009 89.8093C91.9325 89.9555 91.881 90.1135 91.8566 90.2767C91.6532 90.9906 91.241 91.6275 90.6729 92.1055C90.4342 92.3087 90.1649 92.5119 89.9211 92.6948C89.2647 93.1744 88.5382 93.5496 87.7672 93.8073C85.922 94.2968 84.0221 94.5494 82.1131 94.5591C80.0811 94.5591 78.2168 94.0511 75.0316 94.234C70.3783 94.4829 60.6908 94.6709 57.5158 94.6099C54.3408 94.549 52.9742 94.2848 51.0286 90.3224C49.469 87.1576 48.9712 86.1924 45.8318 79.0346C41.7068 69.596 41.717 64.0842 47.3558 61.4985C50.4038 62.3976 52.4866 66.0705 54.0309 69.9973C55.8343 74.5287 59.9999 84.4245 59.9999 84.4245C59.9999 84.4245 74.3509 85.9079 76.8452 85.791C79.1871 85.6742 81.3257 84.6684 83.5051 83.9114C84.1553 83.6828 84.775 83.4034 85.4151 83.1748L86.3702 85.2068C86.2005 85.4496 85.9989 85.6683 85.7707 85.8571C85.4862 86.1009 84.8157 86.614 85.2627 86.9899C85.7098 87.3658 86.4667 87.1677 87.183 86.9493C87.6452 86.807 88.0669 86.6343 88.3361 86.548C89.4367 86.1247 90.5677 85.7851 91.7194 85.532C92.0041 85.4554 92.3011 85.4362 92.5932 85.4755C92.8854 85.5147 93.1668 85.6116 93.4212 85.7606C93.501 85.8021 93.5713 85.8598 93.6277 85.93C93.6841 86.0002 93.7253 86.0813 93.7487 86.1682C93.7721 86.2551 93.7772 86.3459 93.7636 86.4349C93.7501 86.5239 93.7183 86.6091 93.6701 86.6851Z" fill="#FFBDA7"/>
<path d="M86.3601 85.2068C86.173 85.5431 85.9348 85.8481 85.6539 86.1111C85.3949 86.36 85.1459 86.7207 85.3695 86.8121C85.8775 87.1474 86.736 86.8121 87.3202 86.6343C88.7578 86.172 90.2056 85.6183 91.7245 85.5472C90.2818 86.0095 88.9153 86.6394 87.4726 87.1169C86.9133 87.3405 86.3106 87.4343 85.7098 87.3912C85.2018 87.3506 84.6938 86.8528 85.0545 86.3498C85.4152 85.8469 85.9791 85.6691 86.3601 85.2068Z" fill="#FFBF9D"/>
<path d="M59.9897 84.4245C64.2366 84.648 68.6715 85.0595 72.9031 85.3542C73.9801 85.4354 75.0519 85.5218 76.1238 85.5574C78.2676 85.6488 80.325 84.897 82.3316 84.201L85.405 83.185C82.4078 84.3839 79.4258 86.0755 76.1137 86.0298C70.7152 85.7754 65.3334 85.243 59.9897 84.4347V84.4245Z" fill="#FFBF9D"/>
<path d="M132.938 175.936C128.687 173.619 123.596 173.177 118.821 173.96C114.046 174.742 109.535 176.672 105.232 178.882C103.566 179.741 101.676 180.665 99.9032 180.086C98.1303 179.507 97.033 177.389 97.2007 175.468C97.3683 173.548 98.4859 171.831 99.8169 170.439C104.699 165.334 112.725 163.464 119.431 165.689C125.344 167.645 129.697 171.516 132.938 175.936Z" fill="#B7E0D8"/>
<path opacity="0.6" d="M132.938 175.936C128.687 173.619 123.596 173.177 118.821 173.96C114.046 174.742 109.535 176.672 105.232 178.882C103.566 179.741 101.676 180.665 99.9032 180.086C98.1303 179.507 97.033 177.389 97.2007 175.468C97.3683 173.548 98.4859 171.831 99.8169 170.439C104.699 165.334 112.725 163.464 119.431 165.689C125.344 167.645 129.697 171.516 132.938 175.936Z" fill="white"/>
<path d="M105.186 161.737C106.108 161.554 107.048 161.488 107.986 161.539C108.412 161.564 108.819 161.656 109.245 161.717C109.699 161.778 110.148 161.874 110.586 162.006C110.427 161.761 110.235 161.537 110.018 161.341C109.402 160.713 108.692 160.185 107.914 159.776C105.434 158.444 102.705 157.641 99.8981 157.419C98.0389 157.274 96.1685 157.401 94.3457 157.795C91.9429 158.303 89.4791 159.441 88.2497 161.59C87.6858 162.606 87.4471 163.866 87.9855 164.882C88.2116 165.267 88.5169 165.599 88.8812 165.858C89.2456 166.116 89.6606 166.294 90.0988 166.38C90.9751 166.546 91.8763 166.529 92.7455 166.329C94.9197 165.908 96.9517 164.968 98.9583 164.033C100.965 163.098 103.012 162.159 105.186 161.737Z" fill="#B7E0D8"/>
<path opacity="0.35" d="M105.186 161.737C106.108 161.554 107.048 161.488 107.986 161.539C108.412 161.564 108.819 161.656 109.245 161.717C109.699 161.778 110.148 161.874 110.586 162.006C110.427 161.761 110.235 161.537 110.018 161.341C109.402 160.713 108.692 160.185 107.914 159.776C105.434 158.444 102.705 157.641 99.8981 157.419C98.0389 157.274 96.1685 157.401 94.3457 157.795C91.9429 158.303 89.4791 159.441 88.2497 161.59C87.6858 162.606 87.4471 163.866 87.9855 164.882C88.2116 165.267 88.5169 165.599 88.8812 165.858C89.2456 166.116 89.6606 166.294 90.0988 166.38C90.9751 166.546 91.8763 166.529 92.7455 166.329C94.9197 165.908 96.9517 164.968 98.9583 164.033C100.965 163.098 103.012 162.159 105.186 161.737Z" fill="white"/>
<path d="M103.688 153.035C107.467 156.545 111.77 158.679 116.505 160.503C113.787 157.617 112.034 154.092 110.652 150.414C109.271 146.736 108.854 142.794 108.173 138.918C107.792 136.728 107.081 134.523 105.598 132.872C104.114 131.221 101.732 130.241 99.6136 130.901C97.7594 131.486 96.4284 133.223 95.9306 135.103C95.5135 137.01 95.5869 138.992 96.1439 140.863C97.353 145.598 100.111 149.708 103.688 153.035Z" fill="#B7E0D8"/>
<g opacity="0.2">
<path d="M103.688 153.035C107.467 156.545 111.77 158.679 116.505 160.503C113.787 157.617 112.034 154.092 110.652 150.414C109.271 146.736 108.854 142.794 108.173 138.918C107.792 136.728 107.081 134.523 105.598 132.872C104.114 131.221 101.732 130.241 99.6136 130.901C97.7594 131.486 96.4284 133.223 95.9306 135.103C95.5135 137.01 95.5869 138.992 96.1439 140.863C97.353 145.598 100.111 149.708 103.688 153.035Z" fill="white"/>
</g>
<path d="M99.2884 129.611C98.2777 129.999 97.3688 130.612 96.631 131.405C95.8933 132.197 95.3462 133.147 95.0314 134.183C94.9247 134.554 94.7672 135.006 94.3862 135.062C94.0052 135.118 93.675 134.605 93.6141 134.168C93.1569 130.759 96.8094 129.662 99.2884 129.611Z" fill="#B7E0D8"/>
<path d="M151.501 159.05C146.969 162.357 142.534 166.954 140.97 172.507C139.4 163.49 142.265 153.523 147.284 146.025C152.12 138.796 161.102 132.11 170.231 135.829C172.557 136.774 174.518 138.877 174.747 141.417C174.95 143.632 173.797 145.791 172.207 147.325C170.617 148.859 168.575 149.865 166.573 150.83C161.397 153.294 156.129 155.666 151.501 159.05Z" fill="#B7E0D8"/>
<path opacity="0.35" d="M151.501 159.05C146.969 162.357 142.534 166.954 140.97 172.507C139.4 163.49 142.265 153.523 147.284 146.025C152.12 138.796 161.102 132.11 170.231 135.829C172.557 136.774 174.518 138.877 174.747 141.417C174.95 143.632 173.797 145.791 172.207 147.325C170.617 148.859 168.575 149.865 166.573 150.83C161.397 153.294 156.129 155.666 151.501 159.05Z" fill="white"/>
<path d="M134.203 125.903C134.432 129.723 136.266 134.29 137.277 137.251C138.801 141.696 140.223 146.487 139.009 151.028C142.22 146.888 145.262 142.159 146.685 137.079C148.173 131.74 148.006 125.654 143.931 121.427C141.275 118.674 135.758 118.471 134.488 122.748C134.213 123.776 134.117 124.843 134.203 125.903Z" fill="#B7E0D8"/>
<path opacity="0.6" d="M134.203 125.903C134.432 129.723 136.266 134.29 137.277 137.251C138.801 141.696 140.223 146.487 139.009 151.028C142.22 146.888 145.262 142.159 146.685 137.079C148.173 131.74 148.006 125.654 143.931 121.427C141.275 118.674 135.758 118.471 134.488 122.748C134.213 123.776 134.117 124.843 134.203 125.903Z" fill="white"/>
<path d="M167.741 130.459C166.378 130.193 164.967 130.325 163.677 130.84C162.225 131.448 161.016 132.52 160.238 133.888C161.605 133.106 163.749 132.431 167.31 132.939C170.723 133.421 172.755 135.031 173.477 135.91C173.416 134.209 172.059 132.405 170.601 131.531C169.719 131.008 168.751 130.645 167.741 130.459Z" fill="#B7E0D8"/>
<path d="M194.213 140.716L195.057 137.719C194.686 136.002 201.696 140.051 202.067 141.783L199.807 147.879C199.728 148.062 199.595 148.216 199.426 148.321C198.918 148.626 195.585 150.525 195.423 150.622C195.296 150.699 195.154 150.746 195.007 150.761C194.859 150.775 194.711 150.756 194.572 150.705C194.433 150.653 194.308 150.571 194.205 150.464C194.103 150.358 194.026 150.229 193.98 150.089L191.054 140.051C190.871 139.192 192.486 139.736 194.213 140.716Z" fill="#37474F"/>
<path d="M186.207 98.9787L212.852 114.356C213.114 114.526 213.333 114.757 213.489 115.028C213.645 115.299 213.735 115.603 213.751 115.915V147.498C213.731 147.805 213.638 148.103 213.481 148.368C213.324 148.633 213.107 148.857 212.847 149.022L209.687 150.876C209.406 151.016 209.097 151.088 208.783 151.088C208.469 151.088 208.16 151.016 207.879 150.876L181.224 135.499C180.961 135.328 180.743 135.098 180.587 134.827C180.431 134.556 180.341 134.252 180.325 133.939V102.321C180.342 102.009 180.433 101.706 180.59 101.436C180.747 101.165 180.966 100.936 181.229 100.767L184.399 98.9686C184.681 98.8305 184.991 98.7596 185.304 98.7614C185.618 98.7631 185.927 98.8375 186.207 98.9787Z" fill="#37474F"/>
<path d="M181.224 101.798L207.879 117.175C208.141 117.346 208.36 117.576 208.517 117.847C208.674 118.118 208.765 118.422 208.783 118.735V150.322C208.783 150.896 208.376 151.13 207.879 150.83L197.678 144.948L195.803 150.144C195.724 150.326 195.592 150.48 195.423 150.585C195.255 150.689 195.058 150.74 194.86 150.73C194.662 150.72 194.471 150.65 194.314 150.529C194.157 150.408 194.04 150.242 193.98 150.053L191.516 141.387L181.249 135.463C180.987 135.293 180.769 135.063 180.612 134.792C180.456 134.52 180.366 134.216 180.35 133.904V102.321C180.34 101.747 180.726 101.514 181.224 101.798Z" fill="#FAFAFA"/>
<path d="M180.848 102.108C180.913 102.113 180.976 102.134 181.031 102.169L207.686 117.546C207.883 117.676 208.047 117.851 208.165 118.055C208.283 118.26 208.352 118.489 208.366 118.725V150.312C208.366 150.449 208.331 150.505 208.305 150.515C208.24 150.51 208.177 150.487 208.123 150.449L197.896 144.577L197.444 144.313L197.267 144.821L195.397 150.002C195.356 150.106 195.283 150.194 195.189 150.255C195.095 150.316 194.985 150.345 194.873 150.34C194.761 150.335 194.654 150.296 194.566 150.227C194.478 150.158 194.413 150.064 194.381 149.957L191.892 141.28L191.841 141.107L191.689 141.021L181.422 135.098C181.227 134.966 181.064 134.791 180.946 134.587C180.828 134.383 180.758 134.154 180.741 133.919V102.321C180.741 102.184 180.777 102.123 180.787 102.118M180.787 101.676C180.492 101.676 180.279 101.915 180.279 102.321V133.904C180.295 134.216 180.385 134.52 180.541 134.792C180.698 135.063 180.916 135.293 181.178 135.463L191.516 141.387L194.005 150.063C194.067 150.262 194.191 150.435 194.36 150.557C194.528 150.679 194.732 150.743 194.94 150.739C195.129 150.741 195.315 150.687 195.474 150.583C195.632 150.479 195.756 150.33 195.829 150.155L197.703 144.958L207.904 150.84C208.026 150.914 208.164 150.956 208.305 150.962C208.605 150.962 208.813 150.729 208.813 150.322V118.735C208.796 118.422 208.704 118.118 208.547 117.847C208.39 117.576 208.172 117.346 207.909 117.175L181.254 101.798C181.133 101.724 180.995 101.681 180.853 101.676H180.787Z" fill="#37474F"/>
<path d="M180.34 102.159C180.411 101.702 180.782 101.539 181.234 101.798L207.884 117.175C208.149 117.343 208.368 117.576 208.519 117.851L213.487 114.996C213.334 114.73 213.115 114.508 212.852 114.351L186.197 98.9736C185.916 98.834 185.607 98.7614 185.293 98.7614C184.979 98.7614 184.67 98.834 184.389 98.9736L181.219 100.772C180.984 100.929 180.785 101.134 180.633 101.373C180.482 101.611 180.382 101.879 180.34 102.159Z" fill="#455A64"/>
<path d="M186.853 111.857V119.558L187.554 119.949V117.521C187.554 116.21 188.62 115.763 189.931 116.505L193.203 118.389V132.283C193.203 133.807 192.273 134.493 191.125 133.833L189.093 132.649V133.487L200.208 139.903V139.09L198.176 137.907C197.028 137.246 196.098 135.479 196.098 133.96V120.066L199.37 121.956C200.685 122.712 201.747 124.389 201.747 125.7V128.128L202.448 128.544V120.843L186.853 111.857Z" fill="#455A64"/>
</svg>
