<svg width="151" height="151" viewBox="0 0 151 151" fill="none" xmlns="http://www.w3.org/2000/svg">
<path d="M126.038 125.802H24.9622C19.6452 125.796 14.5479 123.681 10.7882 119.921C7.02862 116.161 4.91371 111.064 4.90747 105.747V45.2528C4.91371 39.9359 7.02862 34.8385 10.7882 31.0789C14.5479 27.3193 19.6452 25.2044 24.9622 25.1981H126.038C131.355 25.2044 136.452 27.3193 140.212 31.0789C143.971 34.8385 146.086 39.9359 146.092 45.2528V105.747C146.086 111.064 143.971 116.161 140.212 119.921C136.452 123.681 131.355 125.796 126.038 125.802ZM24.9622 32.2762C21.5206 32.2762 18.2199 33.6434 15.7863 36.077C13.3528 38.5106 11.9856 41.8112 11.9856 45.2528V105.747C11.9856 109.189 13.3528 112.489 15.7863 114.923C18.2199 117.357 21.5206 118.724 24.9622 118.724H126.038C129.479 118.724 132.78 117.357 135.214 114.923C137.647 112.489 139.014 109.189 139.014 105.747V45.2528C139.014 41.8112 137.647 38.5106 135.214 36.077C132.78 33.6434 129.479 32.2762 126.038 32.2762H24.9622Z" fill="#B7E0D8"/>
<path d="M75.5001 89.845C71.1342 89.8518 66.8851 88.4354 63.3965 85.8104L8.30506 44.1439C7.91581 43.8707 7.58562 43.5219 7.33419 43.1182C7.08276 42.7146 6.91526 42.2644 6.84168 41.7946C6.76811 41.3248 6.78998 40.845 6.90598 40.3838C7.02198 39.9226 7.22973 39.4895 7.51683 39.1104C7.80393 38.7313 8.16449 38.414 8.57697 38.1773C8.98945 37.9407 9.44539 37.7896 9.91756 37.7331C10.3897 37.6766 10.8685 37.7158 11.3251 37.8484C11.7818 37.981 12.2071 38.2043 12.5755 38.505L67.6669 80.2187C69.9293 81.9076 72.6769 82.82 75.5001 82.82C78.3232 82.82 81.0708 81.9076 83.3332 80.2187L138.425 38.505C138.793 38.2043 139.218 37.981 139.675 37.8484C140.132 37.7158 140.61 37.6766 141.083 37.7331C141.555 37.7896 142.011 37.9407 142.423 38.1773C142.836 38.414 143.196 38.7313 143.483 39.1104C143.77 39.4895 143.978 39.9226 144.094 40.3838C144.21 40.845 144.232 41.3248 144.158 41.7946C144.085 42.2644 143.917 42.7146 143.666 43.1182C143.414 43.5219 143.084 43.8707 142.695 44.1439L87.6037 85.8104C84.1151 88.4354 79.8659 89.8518 75.5001 89.845Z" fill="#B7E0D8"/>
<path d="M9.8387 115.94C9.12091 115.941 8.41977 115.724 7.82831 115.317C7.23686 114.91 6.78304 114.333 6.52709 113.663C6.27113 112.992 6.22514 112.259 6.39521 111.562C6.56528 110.865 6.94337 110.236 7.47932 109.758L50.8918 71.0408C51.5927 70.415 52.5134 70.0933 53.4514 70.1464C54.3894 70.1995 55.268 70.6231 55.8937 71.3239C56.5194 72.0247 56.8412 72.9454 56.7881 73.8835C56.735 74.8215 56.3114 75.7 55.6106 76.3258L12.1981 115.043C11.5534 115.63 10.7103 115.95 9.8387 115.94ZM141.162 115.94C140.29 115.95 139.447 115.63 138.802 115.043L95.3896 76.3258C94.6888 75.7 94.2652 74.8215 94.2121 73.8835C94.1591 72.9454 94.4808 72.0247 95.1065 71.3239C95.7323 70.6231 96.6108 70.1995 97.5488 70.1464C98.4868 70.0933 99.4075 70.415 100.108 71.0408L143.497 109.758C144.033 110.236 144.411 110.865 144.581 111.562C144.751 112.259 144.705 112.992 144.45 113.663C144.194 114.333 143.74 114.91 143.148 115.317C142.557 115.724 141.856 115.941 141.138 115.94H141.162Z" fill="#B7E0D8"/>
</svg>
