<svg width="79" height="79" viewBox="0 0 79 79" fill="none" xmlns="http://www.w3.org/2000/svg">
<path d="M67.379 6.58328H11.6182C10.9914 6.57458 10.369 6.68943 9.78657 6.92129C9.20416 7.15314 8.67313 7.49745 8.22379 7.93455C7.77446 8.37166 7.41564 8.893 7.16781 9.46879C6.91998 10.0446 6.788 10.6636 6.77942 11.2904V67.7095C6.788 68.3363 6.91998 68.9553 7.16781 69.5311C7.41564 70.1069 7.77446 70.6282 8.22379 71.0653C8.67313 71.5025 9.20416 71.8468 9.78657 72.0786C10.369 72.3105 10.9914 72.4253 11.6182 72.4166H67.379C68.0058 72.4253 68.6282 72.3105 69.2106 72.0786C69.793 71.8468 70.324 71.5025 70.7734 71.0653C71.2227 70.6282 71.5815 70.1069 71.8294 69.5311C72.0772 68.9553 72.2092 68.3363 72.2178 67.7095V11.2904C72.2092 10.6636 72.0772 10.0446 71.8294 9.46879C71.5815 8.893 71.2227 8.37166 70.7734 7.93455C70.324 7.49745 69.793 7.15314 69.2106 6.92129C68.6282 6.68943 68.0058 6.57458 67.379 6.58328ZM26.6282 61.6858H16.7532V32.0608H26.6282V61.6858ZM21.6907 27.9133C20.3288 27.9133 19.0227 27.3723 18.0597 26.4093C17.0967 25.4463 16.5557 24.1402 16.5557 22.7783C16.5557 21.4164 17.0967 20.1103 18.0597 19.1473C19.0227 18.1843 20.3288 17.6433 21.6907 17.6433C22.4138 17.5613 23.1462 17.6329 23.8397 17.8536C24.5333 18.0742 25.1724 18.4388 25.7152 18.9236C26.2581 19.4084 26.6924 20.0024 26.9898 20.6666C27.2872 21.3309 27.4409 22.0505 27.4409 22.7783C27.4409 23.5061 27.2872 24.2257 26.9898 24.8899C26.6924 25.5542 26.2581 26.1482 25.7152 26.633C25.1724 27.1177 24.5333 27.4824 23.8397 27.703C23.1462 27.9236 22.4138 27.9953 21.6907 27.9133ZM62.244 61.6858H52.369V45.787C52.369 41.8041 50.9536 39.2037 47.3657 39.2037C46.2553 39.2118 45.174 39.5601 44.2677 40.2016C43.3613 40.8432 42.6733 41.7471 42.2965 42.7916C42.0389 43.5653 41.9273 44.3801 41.9673 45.1945V61.6529H32.0923C32.0923 61.6529 32.0923 34.727 32.0923 32.0279H41.9673V36.2083C42.8644 34.6517 44.1692 33.3693 45.741 32.4992C47.3129 31.6292 49.0924 31.2045 50.8878 31.2708C57.4711 31.2708 62.244 35.517 62.244 44.635V61.6858Z" fill="#F5F5F5"/>
</svg>
