<svg width="80" height="80" viewBox="0 0 80 80" fill="none" xmlns="http://www.w3.org/2000/svg">
<path d="M68.2319 6.6666H11.7652C11.1305 6.65779 10.5002 6.7741 9.91045 7.00888C9.32067 7.24367 8.78291 7.59234 8.32789 8.03498C7.87287 8.47761 7.50951 9.00555 7.25854 9.58864C7.00758 10.1717 6.87393 10.7985 6.86523 11.4333V68.5666C6.87393 69.2013 7.00758 69.8281 7.25854 70.4112C7.50951 70.9943 7.87287 71.5222 8.32789 71.9649C8.78291 72.4075 9.32067 72.7562 9.91045 72.991C10.5002 73.2258 11.1305 73.3421 11.7652 73.3333H68.2319C68.8666 73.3421 69.4969 73.2258 70.0867 72.991C70.6765 72.7562 71.2142 72.4075 71.6692 71.9649C72.1243 71.5222 72.4876 70.9943 72.7386 70.4112C72.9896 69.8281 73.1232 69.2013 73.1319 68.5666V11.4333C73.1232 10.7985 72.9896 10.1717 72.7386 9.58864C72.4876 9.00555 72.1243 8.47761 71.6692 8.03498C71.2142 7.59234 70.6765 7.24367 70.0867 7.00888C69.4969 6.7741 68.8666 6.65779 68.2319 6.6666ZM26.9652 62.4666H16.9652V32.4666H26.9652V62.4666ZM21.9652 28.2666C20.5861 28.2666 19.2635 27.7187 18.2883 26.7436C17.3131 25.7684 16.7652 24.4457 16.7652 23.0666C16.7652 21.6875 17.3131 20.3648 18.2883 19.3896C19.2635 18.4145 20.5861 17.8666 21.9652 17.8666C22.6976 17.7836 23.4392 17.8561 24.1415 18.0795C24.8438 18.303 25.491 18.6722 26.0408 19.1631C26.5905 19.654 27.0303 20.2555 27.3315 20.9282C27.6326 21.6009 27.7883 22.3296 27.7883 23.0666C27.7883 23.8036 27.6326 24.5323 27.3315 25.205C27.0303 25.8777 26.5905 26.4792 26.0408 26.9701C25.491 27.461 24.8438 27.8302 24.1415 28.0537C23.4392 28.2771 22.6976 28.3497 21.9652 28.2666ZM63.0319 62.4666H53.0319V46.3666C53.0319 42.3333 51.5986 39.6999 47.9652 39.6999C46.8408 39.7082 45.7459 40.0609 44.828 40.7105C43.9102 41.3602 43.2135 42.2755 42.8319 43.3333C42.5711 44.1167 42.458 44.9418 42.4986 45.7666V62.4333H32.4986C32.4986 62.4333 32.4986 35.1666 32.4986 32.4333H42.4986V36.6666C43.407 35.0903 44.7283 33.7917 46.32 32.9106C47.9118 32.0296 49.7138 31.5994 51.5319 31.6666C58.1986 31.6666 63.0319 35.9666 63.0319 45.1999V62.4666Z" fill="#3A3442"/>
</svg>
