<svg width="151" height="151" viewBox="0 0 151 151" fill="none" xmlns="http://www.w3.org/2000/svg">
<path d="M76.4435 136.382L74.1179 133.54C72.5674 131.473 33.0312 85.218 33.0312 57.5685C33.0312 33.5367 52.6701 14.1562 76.4435 14.1562C100.217 14.1562 119.856 33.7951 119.856 57.5685C119.856 85.218 80.3196 131.731 78.7692 133.54L76.4435 136.382ZM76.4435 20.0996C55.771 20.0996 39.233 36.896 39.233 57.3101C39.233 79.0163 67.9161 115.968 76.4435 126.563C84.9709 115.968 113.654 79.2747 113.654 57.3101C113.654 36.896 97.116 20.0996 76.4435 20.0996Z" fill="#B7E0D8"/>
<path d="M76.4445 74.1075C67.4003 74.1075 59.9065 66.6137 59.9065 57.5695C59.9065 48.5253 67.4003 41.0315 76.4445 41.0315C85.4887 41.0315 92.9825 48.5253 92.9825 57.5695C92.9825 66.6137 85.4887 74.1075 76.4445 74.1075ZM76.4445 47.2333C70.7596 47.2333 66.1082 51.8846 66.1082 57.5695C66.1082 63.2544 70.7596 67.9058 76.4445 67.9058C82.1294 67.9058 86.7808 63.2544 86.7808 57.5695C86.7808 51.8846 82.1294 47.2333 76.4445 47.2333Z" fill="#B7E0D8"/>
</svg>
