<svg width="151" height="151" viewBox="0 0 151 151" fill="none" xmlns="http://www.w3.org/2000/svg">
<path d="M128.86 97.4375L118.478 87.0562C115.384 83.9865 111.207 82.2558 106.848 82.2373C102.489 82.2187 98.2978 83.9138 95.1773 86.9571C93.5122 88.6317 91.3155 89.6737 88.9652 89.9036C86.6149 90.1336 84.2579 89.5372 82.2998 88.2171C74.5715 83.0593 67.9322 76.4328 62.7595 68.7145C61.4626 66.7345 60.8878 64.3681 61.1319 62.0139C61.376 59.6597 62.4241 57.4615 64.0996 55.7898C67.1153 52.6663 68.7886 48.4864 68.7612 44.1448C68.7339 39.8031 67.0081 35.6447 63.9533 32.5594L53.5721 22.1781C50.464 19.0808 46.2551 17.3416 41.8672 17.3416C37.4793 17.3416 33.2704 19.0808 30.1623 22.1781L27.1754 25.1698C11.6035 40.7417 12.769 73.4804 45.168 105.86C64.7036 125.401 84.3666 133.583 100.311 133.583C105.005 133.739 109.683 132.96 114.072 131.29C118.461 129.621 122.474 127.094 125.877 123.858L128.869 120.866C131.972 117.757 133.714 113.543 133.712 109.15C133.711 104.757 131.965 100.544 128.86 97.4375ZM122.187 114.194L119.196 117.185C106.927 129.454 79.8461 127.213 51.8308 99.1929C23.8156 71.1729 21.5695 44.0731 33.8383 31.8044L36.8063 28.8174C38.1427 27.4859 39.9524 26.7382 41.8389 26.7382C43.7254 26.7382 45.535 27.4859 46.8714 28.8174L57.2527 39.1987C58.5648 40.5174 59.3096 42.2966 59.3281 44.1568C59.3466 46.017 58.6374 47.8107 57.3518 49.1552C54.1632 52.3641 52.1742 56.5713 51.7181 61.072C51.2619 65.5726 52.3663 70.0934 54.8461 73.8768C60.7235 82.6721 68.2816 90.2189 77.0856 96.0832C80.8577 98.5634 85.3665 99.6743 89.8591 99.2303C94.3516 98.7863 98.5558 96.8143 101.769 93.6436C103.111 92.3428 104.91 91.6205 106.779 91.6319C108.648 91.6434 110.438 92.3878 111.764 93.705L122.145 104.086C122.814 104.746 123.346 105.531 123.711 106.397C124.075 107.262 124.265 108.192 124.269 109.131C124.273 110.071 124.091 111.001 123.734 111.87C123.376 112.739 122.851 113.529 122.187 114.194Z" fill="#B7E0D8"/>
</svg>
