<svg width="79" height="79" viewBox="0 0 79 79" fill="none" xmlns="http://www.w3.org/2000/svg">
<path d="M24.3172 49.375C24.1938 49.375 23.9469 49.375 23.8234 49.2516L1.975 39.9938C1.48125 39.8703 1.23438 39.3766 1.23438 38.8828C1.23438 38.3891 1.60469 38.0188 1.975 37.7719L76.1609 9.01094C76.7781 8.76407 77.3953 9.01094 77.6422 9.50469C77.8891 9.99844 77.7656 10.7391 77.2719 10.9859L24.9344 49.2516C24.8109 49.375 24.5641 49.375 24.3172 49.375ZM5.43125 39.0063L24.0703 47.0297L68.7547 14.4422L5.43125 39.0063Z" fill="#3A3442"/>
<path d="M30.6125 69.9891C30.1188 69.9891 29.625 69.6188 29.5016 69.125L23.0829 48.5109C22.9594 48.0172 23.0829 47.5234 23.5766 47.1531L75.9141 9.13438C76.4078 8.76406 77.1485 8.8875 77.5188 9.25781C77.8891 9.75156 77.8891 10.4922 77.5188 10.8625L36.5375 52.9547L31.7235 69.2484C31.7235 69.7422 31.2297 69.9891 30.6125 69.9891ZM25.675 48.7578L30.736 64.9281L34.4391 52.0906C34.4391 51.8438 34.5625 51.7203 34.686 51.5969L66.286 19.2563L25.675 48.7578Z" fill="#3A3442"/>
<path d="M64.4344 64.6813C64.311 64.6813 64.1876 64.6812 64.0641 64.5578L35.1797 53.4484C34.8094 53.325 34.5625 52.9547 34.4391 52.5844C34.3157 52.2141 34.4391 51.7203 34.8094 51.4734L75.6672 9.38125C76.0375 9.01094 76.6547 8.8875 77.1485 9.13437C77.6422 9.38125 77.8891 9.875 77.7657 10.4922L65.6688 63.8172C65.5454 64.1875 65.4219 64.4344 65.0516 64.5578C64.8047 64.5578 64.6813 64.6813 64.4344 64.6813ZM37.6485 51.9672L63.6938 61.9656L74.5563 13.9484L37.6485 51.9672Z" fill="#3A3442"/>
<path d="M30.6125 69.9891C30.489 69.9891 30.2422 69.9891 30.1187 69.8656C29.625 69.6187 29.3781 69.0016 29.5015 68.5078L34.3156 51.9672C34.439 51.5969 34.6859 51.35 34.9328 51.2266C35.1797 51.1031 35.55 51.1031 35.9203 51.2266L41.475 53.325C41.8453 53.4484 42.0922 53.6953 42.2156 54.0656C42.339 54.4359 42.2156 54.8063 42.0922 55.0531L31.7234 69.3719C31.3531 69.8656 30.9828 69.9891 30.6125 69.9891ZM36.2906 53.8188L33.6984 62.7063L39.3765 55.0531L36.2906 53.8188Z" fill="#3A3442"/>
</svg>
