<svg width="100" height="100" viewBox="0 0 100 100" fill="none" xmlns="http://www.w3.org/2000/svg">
<path d="M74.1935 43.5484C72.904 43.5432 71.6437 43.9315 70.5806 44.6613C70.1432 43.3993 69.3249 42.3042 68.2386 41.5271C67.1524 40.7499 65.8517 40.3291 64.5161 40.3226C63.2266 40.3174 61.9662 40.7057 60.9032 41.4355C60.4658 40.1735 59.6475 39.0784 58.5612 38.3012C57.475 37.5241 56.1743 37.1033 54.8387 37.0968C53.7016 37.1015 52.587 37.4136 51.6129 38V22.5806C51.6135 21.6222 51.4007 20.6756 50.9897 19.8097C50.5787 18.9438 49.98 18.1804 49.237 17.5749C48.494 16.9694 47.6255 16.537 46.6945 16.3092C45.7635 16.0815 44.7934 16.064 43.8548 16.2581C42.3723 16.5922 41.0506 17.4279 40.1131 18.624C39.1756 19.8201 38.6799 21.3032 38.7096 22.8226V60.2258L34.2903 55.1774C32.9235 53.6266 31.0134 52.6599 28.9544 52.4768C26.8954 52.2937 24.8447 52.9082 23.2258 54.1935L22.0967 55.0968C21.1775 55.8079 20.5537 56.8338 20.3453 57.9772C20.1369 59.1205 20.3585 60.3006 20.9677 61.2903L32.4677 79.8387C34.6757 83.8775 37.9025 87.2681 41.8271 89.6732C45.7518 92.0784 50.2376 93.4144 54.8387 93.5484C61.683 93.5484 68.2469 90.8295 73.0866 85.9898C77.9262 81.1502 80.6451 74.5862 80.6451 67.7419V50C80.6451 48.2889 79.9654 46.6479 78.7555 45.438C77.5456 44.2281 75.9046 43.5484 74.1935 43.5484ZM77.4193 67.7419C77.4193 73.7307 75.0403 79.4742 70.8056 83.7089C66.5709 87.9435 60.8274 90.3226 54.8387 90.3226C50.7977 90.1872 46.8626 88.9964 43.4246 86.8685C39.9866 84.7407 37.1655 81.7499 35.2419 78.1935L23.7741 59.5484C23.5883 59.239 23.5203 58.873 23.5825 58.5175C23.6447 58.162 23.833 57.8408 24.1129 57.6129L25.2419 56.7097C26.2134 55.9422 27.4422 55.5762 28.6753 55.6873C29.9084 55.7983 31.0521 56.3777 31.8709 57.3064L39.1129 65.5806C39.3294 65.8262 39.6156 66 39.9333 66.0791C40.2511 66.1581 40.5853 66.1385 40.8917 66.023C41.1981 65.9074 41.462 65.7014 41.6484 65.4322C41.8349 65.1631 41.935 64.8435 41.9354 64.5161V22.8226C41.8987 22.0401 42.1318 21.2688 42.5957 20.6375C43.0596 20.0063 43.7261 19.5535 44.4838 19.3548C45.0108 19.2447 45.5569 19.2681 46.0724 19.4231C46.588 19.578 47.0565 19.8595 47.4354 20.2419C47.7432 20.5477 47.9861 20.9125 48.1496 21.3143C48.3131 21.7162 48.3938 22.1469 48.387 22.5806V54.8387C48.387 55.2665 48.557 55.6767 48.8595 55.9792C49.1619 56.2817 49.5722 56.4516 50 56.4516C50.4277 56.4516 50.838 56.2817 51.1404 55.9792C51.4429 55.6767 51.6129 55.2665 51.6129 54.8387V43.5484C51.6129 42.6928 51.9527 41.8724 52.5577 41.2674C53.1626 40.6624 53.9831 40.3226 54.8387 40.3226C55.6942 40.3226 56.5147 40.6624 57.1197 41.2674C57.7246 41.8724 58.0645 42.6928 58.0645 43.5484V54.8387C58.0645 55.2665 58.2344 55.6767 58.5369 55.9792C58.8394 56.2817 59.2496 56.4516 59.6774 56.4516C60.1051 56.4516 60.5154 56.2817 60.8179 55.9792C61.1203 55.6767 61.2903 55.2665 61.2903 54.8387V46.7742C61.2903 45.9187 61.6301 45.0982 62.2351 44.4932C62.84 43.8882 63.6605 43.5484 64.5161 43.5484C65.3716 43.5484 66.1921 43.8882 66.7971 44.4932C67.402 45.0982 67.7419 45.9187 67.7419 46.7742V54.8387C67.7419 55.2665 67.9118 55.6767 68.2143 55.9792C68.5168 56.2817 68.927 56.4516 69.3548 56.4516C69.7826 56.4516 70.1928 56.2817 70.4953 55.9792C70.7978 55.6767 70.9677 55.2665 70.9677 54.8387V50C70.9677 49.1445 71.3076 48.324 71.9125 47.719C72.5175 47.1141 73.338 46.7742 74.1935 46.7742C75.049 46.7742 75.8695 47.1141 76.4745 47.719C77.0794 48.324 77.4193 49.1445 77.4193 50V67.7419ZM45.1612 14.5161C45.589 14.5161 45.9993 14.3462 46.3017 14.0437C46.6042 13.7412 46.7741 13.331 46.7741 12.9032V8.06452C46.7741 7.63675 46.6042 7.2265 46.3017 6.92402C45.9993 6.62155 45.589 6.45161 45.1612 6.45161C44.7335 6.45161 44.3232 6.62155 44.0207 6.92402C43.7183 7.2265 43.5483 7.63675 43.5483 8.06452V12.9032C43.5483 13.331 43.7183 13.7412 44.0207 14.0437C44.3232 14.3462 44.7335 14.5161 45.1612 14.5161Z" fill="#F5F5F5"/>
<path d="M54.8387 20.9677C54.8387 21.3955 55.0086 21.8058 55.3111 22.1082C55.6135 22.4107 56.0238 22.5806 56.4516 22.5806H61.2903C61.718 22.5806 62.1283 22.4107 62.4308 22.1082C62.7333 21.8058 62.9032 21.3955 62.9032 20.9677C62.9032 20.54 62.7333 20.1297 62.4308 19.8272C62.1283 19.5248 61.718 19.3548 61.2903 19.3548H56.4516C56.0238 19.3548 55.6135 19.5248 55.3111 19.8272C55.0086 20.1297 54.8387 20.54 54.8387 20.9677ZM29.0322 22.5806H33.8709C34.2987 22.5806 34.7089 22.4107 35.0114 22.1082C35.3139 21.8058 35.4838 21.3955 35.4838 20.9677C35.4838 20.54 35.3139 20.1297 35.0114 19.8272C34.7089 19.5248 34.2987 19.3548 33.8709 19.3548H29.0322C28.6044 19.3548 28.1942 19.5248 27.8917 19.8272C27.5892 20.1297 27.4193 20.54 27.4193 20.9677C27.4193 21.3955 27.5892 21.8058 27.8917 22.1082C28.1942 22.4107 28.6044 22.5806 29.0322 22.5806ZM35.9516 15.6613C36.1015 15.8125 36.2799 15.9325 36.4764 16.0143C36.673 16.0962 36.8838 16.1384 37.0967 16.1384C37.3097 16.1384 37.5205 16.0962 37.717 16.0143C37.9136 15.9325 38.0919 15.8125 38.2419 15.6613C38.3931 15.5114 38.5131 15.333 38.5949 15.1364C38.6768 14.9399 38.719 14.7291 38.719 14.5161C38.719 14.3032 38.6768 14.0924 38.5949 13.8958C38.5131 13.6993 38.3931 13.5209 38.2419 13.371L35.0161 10.1452C34.8657 9.99478 34.6872 9.87549 34.4907 9.7941C34.2942 9.71271 34.0836 9.67082 33.8709 9.67082C33.4414 9.67082 33.0295 9.84145 32.7258 10.1452C32.422 10.4489 32.2514 10.8608 32.2514 11.2903C32.2514 11.7198 32.422 12.1318 32.7258 12.4355L35.9516 15.6613ZM53.2258 16.129C53.438 16.1303 53.6485 16.0896 53.845 16.0093C54.0415 15.929 54.2202 15.8108 54.3709 15.6613L57.5967 12.4355C57.7471 12.2851 57.8664 12.1066 57.9478 11.9101C58.0292 11.7136 58.0711 11.503 58.0711 11.2903C58.0711 11.0776 58.0292 10.8671 57.9478 10.6706C57.8664 10.4741 57.7471 10.2955 57.5967 10.1452C57.4463 9.99478 57.2678 9.87549 57.0713 9.7941C56.8748 9.71271 56.6642 9.67082 56.4516 9.67082C56.2389 9.67082 56.0283 9.71271 55.8318 9.7941C55.6353 9.87549 55.4568 9.99478 55.3064 10.1452L52.0806 13.371C51.9294 13.5209 51.8094 13.6993 51.7276 13.8958C51.6457 14.0924 51.6035 14.3032 51.6035 14.5161C51.6035 14.7291 51.6457 14.9399 51.7276 15.1364C51.8094 15.333 51.9294 15.5114 52.0806 15.6613C52.2313 15.8108 52.41 15.929 52.6066 16.0093C52.8031 16.0896 53.0135 16.1303 53.2258 16.129Z" fill="#F5F5F5"/>
</svg>
